<?xml version="1.0" encoding="UTF-8"?>
<svg version="1.1" viewBox="0 0 2000 794" xmlns="http://www.w3.org/2000/svg"><g transform="matrix(1.3 0 0 -1.3 0 794)"><g><path d="m0 1.7e-5h1500v595h-1500z" fill="#3a95b7"/><path d="m1500 1.7e-5h-1500v93s147-16 221-15c92 1.6 244 26 273 28 3.1 0.18 85 6.2 88 5.7l113-19c5.1-0.86 85 14 90 13 11-0.31 77-2.3 88-2.3 8.1 0 54-19 54-11 0 0-0.095 0.31 0 0.4 18 18 75 0 75 0 26-4.6 32-6 58-2.9l85 2.6h78v0.28h12v-1.5c9.6-0.54 19-0.74 29-0.74 13 0 26 0.37 39 0.74 13 0.37 26 0.74 39 0.74 9.6 0 19-0.2 29-0.74v1.5h129v-93" fill="#3586a8"/><path d="m1428 93h-76v8.4c1.3-0.13 2.6-0.24 3.9-0.33 0.38-0.027 0.75-0.055 1.1-0.079 0.36-0.023 0.73-0.042 1.1-0.063 0.41-0.023 0.82-0.048 1.2-0.067 0.21-0.01 0.42-0.017 0.63-0.027 2.7-0.12 5.4-0.17 8.1-0.17 1.4 0 2.7 0.013 4.1 0.036-6.8 0.15-14 0.38-20 0.7v4.9h-0.01l0.01 0.18v3.1l-0.01 1e-3 0.01 0.18v3.1h-0.01l0.01 0.18v3.1l-0.01 1e-3 0.01 0.18v1.5c-2.3 0.087-4.5 0.18-6.8 0.29v-25h-44l-0.27 7.6 10 0.37-0.37 10-14-0.48c-0.12 3.3-0.24 6.7-0.36 10 3.7 0.26 7.3 0.53 11 0.83-0.29 3.4-0.57 6.9-0.86 10-14-1.1-28-1.9-42-2.4v0.019c11 0.48 23 1.2 34 2.1-0.02 0.58-0.041 1.2-0.061 1.7h0.01l-0.016 0.19c-0.039 1.1-0.078 2.2-0.12 3.3l0.01 1e-3 -0.016 0.19c-0.017 0.47-0.034 0.94-0.051 1.4 2.4 0.083 4.8 0.17 7.3 0.25-2.4 0.02-4.8 0.051-7.3 0.092-0.018 0.5-0.036 1-0.054 1.5l0.01 1e-3 -0.016 0.19c-0.038 1.1-0.077 2.2-0.12 3.3h0.01l-0.016 0.19c-0.064 1.8-0.13 3.6-0.19 5.4-0.099 2.8-0.2 5.6-0.3 8.4 1-0.075 2-0.14 3-0.23-0.012 2.6-0.025 5.2-0.037 7.9 1.6-0.01 3.2-0.015 4.9-0.015 13 0 25 0.3 38 0.9v-5.1l0.01-0.18h-0.01v-3.1l0.01-0.18-0.01-1e-3v-3.1l0.01-0.18h-0.01v-3.1l0.01-0.18-0.01-1e-3v-1.6c-12-0.54-23-0.84-35-0.89 1.2-5e-3 2.3-8e-3 3.5-8e-3 13 0 25 0.3 38 0.89v25h-6.8v-8.2c-1.3 0.13-2.6 0.24-3.9 0.33-0.38 0.027-0.76 0.055-1.1 0.079-0.36 0.023-0.71 0.041-1.1 0.061-0.42 0.024-0.83 0.049-1.3 0.069-0.2 9e-3 -0.4 0.016-0.6 0.025-2.7 0.12-5.5 0.17-8.2 0.17-2.2 0-4.4-0.033-6.6-0.09l-0.093-3e-3c-0.69-0.018-1.4-0.038-2.1-0.06l-0.19-6e-3c-0.66-0.022-1.3-0.045-2-0.07-0.096-4e-3 -0.19-8e-3 -0.29-0.011-0.63-0.024-1.3-0.05-1.9-0.076-0.13-6e-3 -0.25-0.011-0.38-0.017-0.61-0.026-1.2-0.053-1.8-0.081-0.12-6e-3 -0.25-0.012-0.37-0.017-2.1-0.097-4.1-0.2-6.2-0.3-1.2-0.06-2.4-0.12-3.6-0.18-0.4-0.02-0.81-0.04-1.2-0.059-0 0.63-0.01 1.3-0.01 1.9-0 0.96-0.01 1.9-0.013 2.9h0.01l-0.01 0.19c-0 0.7-0.01 1.4-0.01 2.1l0.01 1e-3 -0.01 0.19c-0 0.86-0.01 1.7-0.013 2.6 1.6 0.077 3.2 0.16 4.9 0.24 7.3 0.37 15 0.74 22 0.74 4.4 0 8.8-0.13 13-0.48v25h9.8v8.2c-4.3-0.084-8.6-0.14-13-0.14v9.8c14 0 28 0.52 41 1-11 0.087-21 0.38-32 0.88 0.15 3.2 0.3 6.4 0.45 9.5-2.3 0.089-4.6 0.18-6.9 0.29v1.6l-0.01 1e-3 0.01 0.18v3.1h-0.01l0.01 0.18v3.1l-0.01 1e-3 0.01 0.18v3.1h-0.01l0.01 0.18v2l-0.01 1e-3 0.01 0.18v2.9h1e-3 -1e-3v9.8c5.4-0.54 11-0.74 16-0.74 7.3 0 15 0.37 22 0.74 7.3 0.37 15 0.74 22 0.74 5.4 0 11-0.2 16-0.74v-9.8-5.1l0.01-0.18h-0.01v-3.1l0.01-0.18-0.01-1e-3v-3.1l0.01-0.18h-0.01v-3.1l0.01-0.18-0.01-1e-3v-1.6c-12-0.54-23-0.84-35-0.89 1.2-5e-3 2.3-8e-3 3.5-8e-3 13 1e-3 25 0.3 38 0.9 0.15-3.3 0.31-6.6 0.46-9.8-3.5-0.16-6.9-0.3-10-0.42v-9.5h13v-9.8h-9.8v-27h9.8v-27h-9.8v-9.8h-76v-8.1h13v6.3c25 0 51 1.8 76 1.8v-9.8c-13 0-27-0.48-40-0.94 10 0.1 20 0.38 30 0.85 0.15-3.3 0.31-6.6 0.46-9.8-12-0.55-23-0.85-35-0.9 1.2-5e-3 2.3-7e-3 3.5-7e-3 13 0 25 0.3 38 0.9v-1.8l0.01-0.18-0.01-1e-3v-3.1l0.01-0.18h-0.01v-3.1l0.01-0.18-0.01-1e-3v-3.1l0.01-0.18h-0.01v-2l0.01-0.18h-0.01v-2.7-8.4m-30 156c-0.71-0.013-1.4-0.029-2.1-0.048l-0.12-3e-3c-0.68-0.018-1.4-0.038-2-0.06l-0.21-7e-3c-0.66-0.021-1.3-0.044-2-0.069-0.096-4e-3 -0.19-8e-3 -0.29-0.011-0.64-0.025-1.3-0.05-1.9-0.077-0.12-5e-3 -0.24-0.01-0.36-0.015-0.62-0.027-1.2-0.054-1.9-0.082-0.11-5e-3 -0.21-0.01-0.32-0.015-2.1-0.097-4.2-0.2-6.2-0.31-1.2-0.06-2.4-0.12-3.6-0.18l-2.4-0.11c-0.61-0.029-1.2-0.056-1.8-0.083-0.24-0.011-0.47-0.021-0.71-0.031-0.71-0.03-1.4-0.059-2.1-0.087-0.14-5e-3 -0.29-0.011-0.43-0.016-2.2-0.084-4.5-0.15-6.7-0.19 6-0.13 12-0.2 18-0.2 13 0 25 0.3 38 0.9-1.3 0.13-2.6 0.24-3.9 0.33-0.38 0.027-0.75 0.055-1.1 0.079-0.37 0.023-0.74 0.042-1.1 0.063-0.4 0.023-0.81 0.047-1.2 0.066-0.23 0.012-0.46 0.019-0.69 0.029-2.7 0.12-5.4 0.17-8.1 0.17-1.5 0-3-0.015-4.5-0.042h-0.01m-122-101c0.023 0.47 0.045 0.95 0.068 1.4-0.18 7e-3 -0.36 0.013-0.54 0.02 0.32 0.02 0.64 0.038 0.96 0.057 0.71 0.042 1.4 0.084 2.1 0.12 0.89 0.047 1.8 0.084 2.7 0.12 0.73 0.031 1.5 0.059 2.2 0.083 0.85 0.028 1.7 0.048 2.6 0.066 0.79 0.016 1.6 0.027 2.4 0.034 0.49 4e-3 0.98 6e-3 1.5 6e-3 0.3 0 0.61-1e-3 0.91-2e-3 0.86-5e-3 1.7-0.019 2.6-0.036 0.75-0.016 1.5-0.034 2.2-0.06 1.4-0.049 2.8-0.11 4.2-0.2-7.9-0.66-16-1.2-24-1.6" fill="#3281a1"/><path d="m1368 91c-5.4 0-11 0.2-16 0.74v1.5h76v-1.5c-5.4 0.54-11 0.74-16 0.74-7.3 0-15-0.37-22-0.74-7.3-0.37-15-0.74-22-0.74m-23 1.9h-44l-0.01 0.28h44v-0.28" fill="#2d7493"/><path d="m1179 93h-41c-3.3 0.13-6.6 0.22-9.9 0.22-2.8 0-5.6-0.064-8.4-0.22h-5.2v7.9 2.3l-0.01 1e-3 0.01 0.15v1.7h-0.01l0.01 0.15v2.6l-0.01 1e-3 0.01 0.15v2.6l-0.01 1e-3 0.01 0.15v2.6h-0.01l0.01 0.15v1.5c11-0.5 21-0.76 32-0.76 0.98 0 2 3e-3 2.9 7e-3 -9.9 0.042-20 0.29-30 0.76 0.13 2.8 0.26 5.5 0.39 8.3 8.4-0.4 17-0.63 25-0.72-11 0.39-22 0.8-34 0.8v8.3c21 0 43-1.5 64-1.5v-5.4h11v6.9h-64v8.3h-8.3v23h8.2v23h-8.3v8.3h11v8c-2.9 0.1-5.9 0.22-8.8 0.36 0.13 2.8 0.26 5.5 0.39 8.3 11-0.51 21-0.76 32-0.76 0.98 0 2 2e-3 3 6e-3 -9.8 0.042-20 0.29-29 0.75v1.4h-0.01l0.01 0.15v2.6l-0.01 1e-3 0.01 0.15v2.6h-0.01l0.01 0.15v2.6h-0.01l0.01 0.15v4.3c11-0.5 21-0.76 32-0.76 5 0 10 0.056 15 0.17-1.9 0.033-3.8 0.088-5.7 0.16-0.12 5e-3 -0.24 0.01-0.36 0.014-0.6 0.024-1.2 0.048-1.8 0.074-0.2 8e-3 -0.4 0.017-0.6 0.025-0.52 0.023-1 0.046-1.5 0.071-0.26 0.012-0.51 0.023-0.77 0.035-0.42 0.02-0.83 0.041-1.2 0.061-1 0.05-2 0.1-3 0.15-1.7 0.088-3.5 0.18-5.3 0.26-0.091 4e-3 -0.18 9e-3 -0.27 0.013-0.52 0.024-1 0.047-1.6 0.069-0.1 5e-3 -0.2 9e-3 -0.3 0.013-0.54 0.023-1.1 0.045-1.6 0.065l-0.24 9e-3c-0.56 0.021-1.1 0.041-1.7 0.059l-0.18 6e-3c-0.58 0.018-1.2 0.035-1.7 0.051l-0.1 2e-3c-0.6 0.015-1.2 0.029-1.8 0.04h-0.01c-1.3 0.023-2.5 0.036-3.8 0.036-2.3 0-4.6-0.042-6.9-0.14-0.2-9e-3 -0.39-0.016-0.58-0.025-0.34-0.016-0.68-0.037-1-0.056-0.31-0.018-0.62-0.034-0.94-0.054-0.32-0.02-0.63-0.043-0.95-0.066-1.1-0.079-2.2-0.17-3.3-0.28v8.3c4.5 0.46 9.1 0.62 14 0.62 6.2 0 12-0.31 19-0.62 6.2-0.31 12-0.62 19-0.62 4.5 0 9.1 0.17 14 0.62v-8.3-2.5l0.01-0.15-0.01-1e-3v-1.7l0.01-0.15h-0.01v-2.6l0.01-0.15h-0.01v-2.6l0.01-0.15-0.01-1e-3v-2.6l0.01-0.15h-0.01v-1.4c-1.9-0.092-3.9-0.17-5.8-0.25 0.13-2.7 0.25-5.4 0.38-8.1-9-0.42-18-0.67-27-0.74 12-0.4 23-0.84 35-0.84v-8.3c-3.6 0-7.2 0.045-11 0.12v-6.9h8.3v-21c3.7 0.29 7.4 0.4 11 0.4 6.2 0 12-0.31 19-0.62 1.6-0.078 3.1-0.16 4.7-0.23 0.01-2.2 0.021-4.4 0.032-6.6 2.6-0.25 5.1-0.4 7.7-0.51-0.3-2e-3 -0.6-3e-3 -0.9-3e-3 -3.3 0-6.6 0.086-9.8 0.3 0.016-0.44 0.032-0.89 0.047-1.3-0.58 0.029-1.2 0.058-1.7 0.087-1.7 0.087-3.5 0.18-5.2 0.26l-0.31 0.015c-0.52 0.023-1 0.046-1.6 0.068-0.11 5e-3 -0.21 9e-3 -0.32 0.014-0.54 0.022-1.1 0.044-1.6 0.065l-0.24 9e-3c-0.56 0.021-1.1 0.041-1.7 0.059l-0.16 5e-3c-0.58 0.019-1.2 0.036-1.7 0.051l-0.078 2e-3c-1.9 0.048-3.7 0.076-5.6 0.076-2.3 0-4.6-0.043-6.9-0.14-0.17-7e-3 -0.34-0.013-0.51-0.021-0.35-0.017-0.7-0.038-1.1-0.058-0.3-0.017-0.6-0.033-0.9-0.052-0.32-0.02-0.64-0.044-0.96-0.067-1.1-0.078-2.2-0.17-3.3-0.28v6.9h-5.8v-21c11-0.5 21-0.75 32-0.75 0.98 0 2 2e-3 2.9 6e-3 -9.8 0.042-20 0.29-29 0.75v1.4h-0.01l0.01 0.15v2.6h-0.01l0.01 0.15v2.6h-0.01l0.01 0.15v2.6l-0.01 1e-3 0.01 0.15v4.3c11-0.5 21-0.76 32-0.76 0.6 0 1.2 1e-3 1.8 2e-3 0.1-2.8 0.2-5.6 0.3-8.4 0.036-1 0.073-2.1 0.11-3.1v-0.19h0.01l0.075-2.1v-0.19h0.01c0.039-1.1 0.078-2.2 0.12-3.3v-0.19h0.01c0.039-1.1 0.078-2.2 0.12-3.3v-0.19h0.01c0.018-0.52 0.037-1 0.055-1.6-0.9-0.011-1.8-0.021-2.7-0.028 0.9-0.031 1.8-0.063 2.7-0.094 0.018-0.53 0.037-1.1 0.056-1.6v-0.19h0.01c0.021-0.58 0.041-1.2 0.062-1.7 2.4-0.028 4.9-0.034 7.3-0.041-0.038-3.4-0.077-6.7-0.12-10 3.2-0.036 6.4-0.054 9.5-0.054 1.5 0 3 4e-3 4.5 0.012v-1c-8-0.52-16-0.97-24-1.2 0.12-3.5 0.25-6.9 0.37-10 4.5 0.16 9 0.39 14 0.64l0.31-8.7-10-0.37 0.053-1.5 0.014-0.39 0.069-1.9 0.012-0.36h-36v21c-1.9-0.089-3.8-0.17-5.8-0.24v-1.3l0.01-0.15h-0.01v-2.6l0.01-0.15-0.01-1e-3v-2.6l0.01-0.15-0.01-1e-3v-2.6l0.01-0.15h-0.01v-4.2-7.9m0 7.9c-5.7-0.27-11-0.46-17-0.59 1.2-0.019 2.3-0.03 3.5-0.03 2.3 0 4.6 0.042 6.9 0.14 0.18 8e-3 0.36 0.014 0.54 0.023 0.35 0.017 0.69 0.038 1 0.057 0.31 0.017 0.61 0.033 0.92 0.053 0.32 0.02 0.64 0.044 0.95 0.066 1.1 0.079 2.2 0.17 3.3 0.28m61 46c0.21 0.012 0.43 0.025 0.64 0.037 0.57 0.031 1.1 0.063 1.7 0.097 1.3 0.08 2.6 0.17 3.9 0.26 0.55 0.039 1.1 0.076 1.7 0.12 0.27 0.02 0.54 0.04 0.81 0.061v-0.41c-2.9-0.069-5.8-0.12-8.8-0.16" fill="#3281a1"/><path d="m1165 92c-6.2 0-12 0.31-19 0.62-2.9 0.15-5.8 0.29-8.6 0.4h41v-0.4c-4.5-0.46-9.1-0.62-14-0.62m-51 0.62v0.4h5.2c-1.7-0.097-3.5-0.23-5.2-0.4" fill="#2d7493"/><path d="m1182 191 16-6.4s-8.4-18-0.73-25l-20-1s-11 8.4 4.7 33" fill="#feffff"/><path d="m1147 48-9.6 7.5-17-10 42-16 21 13-15 5.8h-22" fill="#317bab"/><path d="m1162 74-25-8.1s1.5-27 22-29c0 0 1.2 9 17 12 0 0-22 9.1-15 25" fill="#feffff"/><path d="m1226 62 6.6-13s-3 11-22 5.4c-19-5.4-21 4.2-21 4.2v3.7h37" fill="#317bab"/><path d="m1230 57s-8.1 6.9-17-1.5c0 0-4.2-3.1-13 2.1l-3.5 9.4s12-6.4 15-4c2.7 2.4 15 9.4 19-6" fill="#feffff"/><path d="m1341 61 3-2.5s-8.9-11-24-6.8c-15 3.7-21-4.3-21-4.3l10 14 31-0.25" fill="#317bab"/><path d="m1334 67 6.9-6.2s-2.5-12-18-5.5c-15 6.2-18 0-18 0s4.6 15 15 13c0 0 12-7.7 13-1.5" fill="#feffff"/><path d="m1124 71 8.2-1-24-17-34-3.9 14 17 36 5.6" fill="#317bab"/><path d="m1117 58-38 1.5 5 11h40l-7.4-12" fill="#feffff"/><path d="m1089 59-9.3-0.57v1.5l2 2.7 7.4-3.6" fill="#92cdcd"/><path d="m1269 93h-48l-0.021 0.57-1e-3 0.025h28v23h-8.3v1.2c6.6 0.43 13 0.9 20 1.4-6.6-0.18-13-0.3-20-0.33v4.7c3.6-0.07 7.2-0.12 11-0.12v8.3c-11 0-21 0.37-32 0.75-0 0.041-0 0.081-0.01 0.12 8.1 0.097 16 0.33 24 0.71-0.13 2.7-0.25 5.4-0.38 8.1 1.9 0.075 3.9 0.16 5.8 0.25v1.4h0.01l-0.01 0.15v2.6h0.01l-0.01 0.15v0.91c8.8 0.21 18 0.55 26 1-0.13-2.7-0.26-5.4-0.38-8.1 8.2-0.39 16-0.65 25-0.79 0-0.11 0.01-0.23 0.012-0.34-11-0.39-23-0.74-34-0.74v-8.2c-0.74-0.031-1.5-0.061-2.2-0.091 0.74 0.023 1.5 0.047 2.2 0.072v-1.6c4.3 0 8.6 0.054 13 0.14v-8.2h-9.8v-27m-20 54v1.3h0.01l-0.01 0.15v2.6l0.01 1e-3 -0.01 0.15v1.7h0.01l-0.01 0.15v2.5 8.3c-4.5-0.46-9.1-0.62-14-0.62-4.6 0-9.3 0.17-14 0.39-0.01 1.3-0.012 2.5-0.018 3.8 1.4-0.13 2.8-0.23 4.2-0.32 0.75-0.049 1.5-0.09 2.2-0.13 0.86-0.044 1.7-0.084 2.6-0.12 0.79-0.028 1.6-0.051 2.4-0.069 0.79-0.018 1.6-0.031 2.4-0.04 0.76-7e-3 1.5-0.013 2.3-0.013h0.28c0.73 1e-3 1.5 8e-3 2.2 0.016 0.89 0.01 1.8 0.02 2.7 0.039l0.19 5e-3c-7.1 0.12-14 0.33-21 0.63-0.01 1.7-0.017 3.5-0.025 5.2l-0.01 1e-3 0.01 0.19c-0.01 1.1-0.01 2.2-0.016 3.3h-0.01l0.01 0.19c-0.01 1.1-0.011 2.2-0.016 3.3l-0.01 1e-3 0.01 0.19c-0 1.1-0.01 2.2-0.016 3.3h-0.01l0.01 0.19c-0 0.54-0 1.1-0.01 1.6-2.6 0.087-5.2 0.18-7.8 0.28 0.15 3.5 0.29 6.9 0.44 10 3.5-0.15 7-0.27 10-0.38-0.015 3-0.029 6-0.044 9 27 0.13 54 2.1 80 2.3 0.017-3.5 0.033-6.9 0.05-10-14-0.067-28-0.64-42-1.2 10 0.16 21 0.5 31 1 0.18-3.5 0.36-6.9 0.54-10-12-0.64-25-1-37-1.1 15 7e-3 29 0.38 44 1.1 0-0.64 0.01-1.3 0.01-1.9l0.01-0.19h-0.01c0.01-1.1 0.01-2.2 0.016-3.3l0.01-0.19-0.01-1e-3c0.01-1.1 0.011-2.2 0.016-3.3l0.01-0.19h-0.01c1e-3 -0.23 0-0.47 0-0.7-5.7-0.27-11-0.5-17-0.5-5.4 0-11 0.2-16 0.74v-9.8h1e-3 -1e-3v-2.9l-0.01-0.18 0.01-1e-3v-2l-0.01-0.18h0.01v-3.1l-0.01-0.18 0.01-1e-3v-3.1l-0.01-0.18h0.01v-3.1l-0.01-0.18 0.01-1e-3v-1.6c2.1-0.1 4.3-0.19 6.4-0.27-0.58-0.034-1.2-0.069-1.7-0.11-0.74-0.049-1.5-0.1-2.2-0.16-0.85-0.062-1.7-0.12-2.6-0.19-0.86-0.067-1.7-0.14-2.6-0.21-0.74-0.06-1.5-0.12-2.2-0.18-0.78-0.066-1.6-0.13-2.4-0.2-0.76-0.065-1.5-0.13-2.3-0.19-0.32-0.028-0.64-0.055-0.96-0.082-1.4-0.12-2.9-0.25-4.3-0.37-0.5-0.042-1-0.08-1.5-0.12-1.1-0.088-2.2-0.18-3.3-0.26m-30 7.8c-0.01 0.22-0.016 0.44-0.024 0.67 0.44-0.022 0.87-0.043 1.3-0.064 0.42-0.021 0.83-0.041 1.2-0.061 0.26-0.012 0.51-0.024 0.77-0.036 0.52-0.024 1-0.047 1.5-0.07 0.2-9e-3 0.4-0.017 0.6-0.026 0.6-0.026 1.2-0.05 1.8-0.073 0.12-5e-3 0.24-0.01 0.36-0.014 1.9-0.071 3.8-0.13 5.7-0.16-4.4-0.097-8.9-0.15-13-0.16m83 10c-4.3 0.026-8.7 0.086-13 0.18 2.2 0.039 4.5 0.1 6.7 0.19 0.14 5e-3 0.29 0.011 0.43 0.017 0.71 0.027 1.4 0.056 2.1 0.086 0.24 0.01 0.47 0.02 0.71 0.031 0.61 0.027 1.2 0.054 1.8 0.083 0.3 0.014 0.61 0.028 0.91 0.042 0.089 5e-3 0.18 9e-3 0.27 0.013 1e-3 -0.21 0-0.43 0-0.64" fill="#3281a1"/><path d="m1222 69-0.5 14-0.014 0.38-0.11 3.1-0.014 0.39-0.11 3.1-0.013 0.39-0.089 2.5h48v-0.28h33l0.74-21-80-2.9" fill="#2d7493"/><path d="m1301 93h-33v27h9.8v8.2c-4.3-0.083-8.6-0.14-13-0.14v1.6c14 0.47 28 1.3 42 2.4 0.29-3.4 0.57-6.9 0.86-10-3.6-0.3-7.3-0.58-11-0.83 0.12-3.3 0.24-6.7 0.36-10l14 0.48 0.37-10-10-0.37 0.27-7.6m-36 37v8.2c11 0 23 0.35 34 0.74 0.017-0.47 0.034-0.94 0.051-1.4l0.016-0.19-0.01-1e-3c0.038-1.1 0.077-2.2 0.12-3.3l0.016-0.19h-0.01c0.02-0.58 0.041-1.2 0.061-1.7-11-0.95-23-1.6-34-2.1m34 9.3c-8.2 0.14-16 0.4-25 0.79 0.13 2.7 0.26 5.4 0.38 8.1 7.9 0.43 16 0.98 24 1.6 0.064-1.8 0.13-3.6 0.19-5.4l0.016-0.19h-0.01c0.039-1.1 0.078-2.2 0.12-3.3l0.016-0.19-0.01-1e-3c0.018-0.5 0.036-1 0.054-1.5m-25 10c-2.1 0.083-4.3 0.17-6.4 0.27v1.6l-0.01 1e-3 0.01 0.18v3.1h-0.01l0.01 0.18v3.1l-0.01 1e-3 0.01 0.18v3.1h-0.01l0.01 0.18v2l-0.01 1e-3 0.01 0.18v2.9h1e-3 -1e-3v9.8c5.4-0.54 11-0.74 16-0.74 5.7 0 11 0.22 17 0.5 0-0.86 0.01-1.7 0.013-2.6l0.01-0.19-0.01-1e-3c0-0.7 0.01-1.4 0.01-2.1l0.01-0.19h-0.01c0-0.96 0.01-1.9 0.013-2.9 0-0.63 0.01-1.3 0.01-1.9-0.089-4e-3 -0.18-8e-3 -0.27-0.013-0.3-0.014-0.61-0.028-0.91-0.042-0.61-0.029-1.2-0.056-1.8-0.083-0.24-0.011-0.47-0.021-0.71-0.031-0.71-0.03-1.4-0.059-2.1-0.086-0.14-6e-3 -0.29-0.012-0.43-0.017-2.2-0.084-4.5-0.15-6.7-0.19 4.3-0.096 8.7-0.16 13-0.18 0.012-2.6 0.025-5.2 0.037-7.9-1 0.096-2 0.16-3 0.23 0.099-2.8 0.2-5.6 0.3-8.4-1.4 0.09-2.8 0.15-4.2 0.2-0.75 0.026-1.5 0.044-2.2 0.06-0.86 0.017-1.7 0.031-2.6 0.036-0.3 1e-3 -0.61 2e-3 -0.91 2e-3 -0.49 0-0.98-2e-3 -1.5-6e-3 -0.79-7e-3 -1.6-0.018-2.4-0.034-0.85-0.018-1.7-0.038-2.6-0.066-0.73-0.024-1.5-0.052-2.2-0.083-0.89-0.038-1.8-0.075-2.7-0.12-0.71-0.037-1.4-0.079-2.1-0.12-0.32-0.019-0.64-0.037-0.96-0.057" fill="#2b6f8c"/><path d="m1301 93h-33v0.28h33l0.01-0.28" fill="#27637f"/><path d="m1249 94h-28l-0.012 0.36-0.069 1.9-0.014 0.39-0.053 1.5 10 0.37-0.31 8.7c-4.5-0.25-9-0.48-14-0.64-0.12 3.5-0.25 6.9-0.37 10 8 0.28 16 0.73 24 1.2v-1.2h8.3v-23m-13 25c-3.2 0-6.4 0.018-9.5 0.054 0.039 3.4 0.078 6.7 0.12 10-2.4 7e-3 -4.9 0.013-7.3 0.041-0.021 0.58-0.041 1.2-0.062 1.7h-0.01v0.19c-0.019 0.53-0.038 1.1-0.056 1.6 11-0.37 21-0.75 32-0.75v-8.3c-3.6 0-7.2 0.045-11 0.12v-4.7c-1.5-8e-3 -3-0.012-4.5-0.012m-17 14c-0.018 0.52-0.037 1-0.055 1.6h-0.01v0.19c-0.039 1.1-0.078 2.2-0.12 3.3h-0.01v0.19c-0.039 1.1-0.078 2.2-0.12 3.3h-0.01v0.19l-0.075 2.1h-0.01v0.19c-0.036 1-0.073 2.1-0.11 3.1-0.1 2.8-0.2 5.6-0.3 8.4 4.4 0.012 8.9 0.067 13 0.16-1.9 0.033-3.8 0.089-5.7 0.16-0.12 4e-3 -0.24 9e-3 -0.36 0.014-0.6 0.023-1.2 0.047-1.8 0.073-0.2 9e-3 -0.4 0.017-0.6 0.026-0.52 0.023-1 0.046-1.5 0.07-0.26 0.012-0.51 0.024-0.77 0.036-0.42 0.02-0.83 0.04-1.2 0.061-0.44 0.021-0.87 0.042-1.3 0.064-0.015 0.44-0.031 0.89-0.047 1.3 3.3-0.21 6.6-0.3 9.8-0.3 0.3 0 0.6 1e-3 0.9 3e-3 -2.6 0.11-5.1 0.26-7.7 0.51-0.011 2.2-0.022 4.4-0.032 6.6 4.6-0.22 9.3-0.39 14-0.39 4.5 0 9.1 0.17 14 0.62v-8.3-2.5l0.01-0.15h-0.01v-1.7l0.01-0.15-0.01-1e-3v-2.6l0.01-0.15h-0.01v-1.3c-0.27-0.021-0.54-0.041-0.81-0.061-0.55-0.042-1.1-0.079-1.7-0.12-1.3-0.094-2.6-0.18-3.9-0.26-0.57-0.034-1.1-0.066-1.7-0.097-0.22-0.012-0.43-0.025-0.64-0.037 2.9 0.04 5.8 0.094 8.8 0.16v-0.91l0.01-0.15h-0.01v-2.6l0.01-0.15h-0.01v-1.4c-1.9-0.092-3.9-0.17-5.8-0.25 0.13-2.7 0.25-5.4 0.38-8.1-8.1-0.38-16-0.62-24-0.71" fill="#2b6f8c"/><path d="m1211 206-0.05 10 10 0.049-0.14 28-10-0.049-0.084 18v0.38l-0.042 8.8v0.38l-0.01 1.5 77 0.37-67-0.32-0.041 8.7c-4.5-0.11-9-0.2-14-0.22-0.017 3.5-0.033 6.9-0.05 10 15 0.07 29 0.69 44 1.3-11 0.036-23 0.28-34 0.76 0.14 3.4 0.28 6.7 0.43 10-2.4 0.082-4.9 0.16-7.3 0.27-0 0.58-0.01 1.2-0.01 1.7h-0.01l0.01 0.19c-0.01 1.1-0.011 2.2-0.016 3.3h-0.01l0.01 0.19c-0 1.1-0.01 2.2-0.016 3.3h-0.01l0.01 0.19c-0.01 1.1-0.011 2.2-0.016 3.3h-0.01l0.01 0.19c-0 0.7-0.01 1.4-0.01 2.1h-0.01l0.01 0.19c-0.01 1-0.01 2.1-0.015 3.1-0.016 3.5-0.033 6.9-0.05 10 2.6-0.24 5.1-0.4 7.7-0.51l-0.06 12-1e-3 0.38-0.015 3.1v0.38l-0.015 3.1v0.38l1e-3 1e-3 -0.015 3.1v0.38l-0.01 1.9v0.38l-0.01 1.5 10 0.05-0.041 8.7c-4.5-0.11-9-0.2-14-0.22-0.017 3.5-0.033 6.9-0.05 10 15 0.07 29 0.69 44 1.3-11 0.036-23 0.28-34 0.76 0.14 3.4 0.28 6.7 0.43 10-2.4 0.082-4.9 0.16-7.3 0.27-0 0.58-0.01 1.2-0.01 1.7l-0.01 1e-3 0.01 0.19c-0.01 1.1-0.01 2.2-0.016 3.3h-0.01l0.01 0.19c-0.01 1.1-0.01 2.2-0.015 3.3l-0.01 1e-3 0.01 0.19c-0.01 1.1-0.011 2.2-0.016 3.3h-0.01l0.01 0.19c-0 0.7-0.01 1.4-0.01 2.1l-0.01 1e-3 0.01 0.19c-0 1-0.01 2.1-0.015 3.1-0.015 3.3-0.031 6.5-0.046 9.8-2.3 0.38-4.6 0.79-6.9 1.2-0.01 2-0.02 4.1-0.03 6.1-4 1.3-9 2.3-15 2.4 0 0 5.7 2.8 15 5.6l-0.017 4e-3 0.038 0.19c-0.01 1.1-0.011 2.2-0.016 3.3l-0.039 7e-3 0.038 0.19c-0 1.1-0.01 2.2-0.016 3.3l-0.039 8e-3 0.039 0.19c-0.01 1.1-0.011 2.2-0.016 3.3l-0.039 7e-3 0.038 0.19c-0 0.7-0.01 1.4-0.01 2.1l-0.039 7e-3 0.038 0.19c-0 0.56-0.01 1.1-0.01 1.7 13-2.6 26-3.9 39-3.9 1.5 0 3.1 0.018 4.6 0.053-12 0.17-24 1.5-37 3.9-0.014 2.8-0.028 5.7-0.041 8.5-3.5 0.52-7 1.1-10 1.8-0.016 3.5-0.033 6.9-0.05 10 13-2.6 26-3.9 39-3.9 14 0 28 1.4 41 4.3 0.017-3.5 0.033-6.9 0.05-10-5.4-1.2-11-2.1-16-2.8l1.6-0.88c8.5 0.68 17 1.9 25 3.7 0.017-3.5 0.034-6.9 0.05-10-2.4-0.52-4.9-0.97-7.3-1.4 0.044-9.1 0.087-18 0.13-27-0.23-0.048-0.45-0.088-0.68-0.14 2.5-0.11 5-0.26 7.6-0.5 0.017-3.5 0.033-6.9 0.05-10-1.4 0.13-2.8 0.23-4.2 0.32-0.75 0.049-1.5 0.09-2.2 0.13-0.86 0.044-1.7 0.084-2.6 0.12-0.79 0.028-1.6 0.052-2.4 0.069-0.79 0.018-1.6 0.031-2.4 0.039-0.76 8e-3 -1.5 0.014-2.3 0.014h-0.28c-0.73-1e-3 -1.5-8e-3 -2.2-0.016-0.9-0.01-1.8-0.02-2.7-0.039-0.7-0.015-1.4-0.035-2.1-0.055-0.9-0.026-1.8-0.05-2.7-0.083-0.73-0.026-1.5-0.057-2.2-0.088-0.86-0.036-1.7-0.07-2.6-0.11-0.84-0.039-1.7-0.082-2.5-0.12-0.76-0.038-1.5-0.075-2.3-0.12-0.73-0.039-1.5-0.079-2.2-0.12-0.81-0.044-1.6-0.087-2.4-0.13-0.28-0.016-0.56-0.031-0.85-0.046-1.5-0.082-3-0.16-4.5-0.24-0.5-0.026-1-0.049-1.5-0.075-1.4-0.069-2.7-0.14-4.1-0.2-0.55-0.024-1.1-0.044-1.7-0.066-1.3-0.054-2.6-0.1-4-0.14-0.57-0.017-1.1-0.031-1.7-0.045-0.22-5e-3 -0.43-0.012-0.65-0.017 5-0.085 9.9-0.13 15-0.13 15 0 29 0.38 44 1.1 0.01-1.8 0.017-3.6 0.026-5.4l0.01-0.19h-0.01c0.01-1.1 0.01-2.2 0.015-3.3l0.01-0.19h-0.01c0.01-1.1 0.011-2.2 0.016-3.3l0.01-0.19h-0.01c0-1.1 0.01-2.2 0.016-3.3l0.01-0.19-0.01-1e-3c0-0.58 0-1.2 0.01-1.7-12-0.63-24-0.99-37-1.1 15 7e-3 29 0.38 44 1.1 0.18-3.5 0.36-6.9 0.54-10-3.7-0.19-7.3-0.35-11-0.5 0.017-3.3 0.033-6.7 0.049-10l14 0.065 0.05-10-10-0.05 0.14-29-7.7-0.037c0.013-2.7 0.026-5.4 0.039-8.1-1.4 0.13-2.8 0.23-4.2 0.32-0.75 0.05-1.5 0.09-2.2 0.13-0.86 0.044-1.7 0.084-2.6 0.12-0.79 0.028-1.6 0.052-2.4 0.07-0.8 0.018-1.6 0.031-2.4 0.039-0.77 8e-3 -1.5 0.014-2.3 0.014-0.076 0-0.15 0-0.23-1e-3 -0.73-1e-3 -1.5-7e-3 -2.2-0.015-0.89-0.011-1.8-0.021-2.7-0.04-0.71-0.015-1.4-0.035-2.1-0.055-0.9-0.025-1.8-0.05-2.7-0.082-0.74-0.027-1.5-0.059-2.2-0.089-0.86-0.036-1.7-0.07-2.6-0.11-0.84-0.039-1.7-0.082-2.5-0.12-0.76-0.038-1.5-0.075-2.3-0.12-0.65-0.034-1.3-0.07-1.9-0.1-0.89-0.049-1.8-0.097-2.7-0.15-0.34-0.019-0.69-0.037-1-0.056-1.4-0.078-2.8-0.16-4.3-0.23-0.5-0.026-1-0.049-1.5-0.074-1.4-0.07-2.7-0.14-4.1-0.2-0.55-0.025-1.1-0.045-1.7-0.067-1.3-0.053-2.6-0.1-4-0.14-0.57-0.017-1.1-0.031-1.7-0.045-0.22-5e-3 -0.43-0.012-0.65-0.016 5-0.086 9.9-0.13 15-0.13 15 0 29 0.38 44 1.1 0.01-1.8 0.017-3.6 0.026-5.4l0.01-0.19h-0.01c0-1.1 0.01-2.2 0.015-3.3l0.01-0.19-0.01-1e-3c0-1.1 0.01-2.2 0.016-3.3l0.01-0.19h-0.01c0.01-1.1 0.01-2.2 0.015-3.3l0.01-0.19-0.01-1e-3c0-0.58 0.01-1.2 0.01-1.7-12-0.63-24-0.99-37-1.1 15 8e-3 29 0.38 44 1.1 0.18-3.5 0.36-6.9 0.54-10-3.7-0.19-7.3-0.35-11-0.5 0.016-3.3 0.032-6.7 0.048-10l14 0.065 0.05-10-10-0.05 0.14-28 10 0.05 0.084-18v-0.38l0.042-8.8v-0.38l0.01-1.5-10-0.05 0.049-10-80-0.38m77 78m-21 171c-4.6-0.46-9.2-0.77-14-0.92 1.4-0.029 2.8-0.044 4.1-0.044 4.7 0 9.4 0.17 14 0.5l-4.5 0.46" fill="#3281a1"/><path d="m1305 130c-27-1.3-54-1.3-80 0v18c27-1.3 54-1.3 80 0v-18" fill="#9adbe0"/></g><g fill="#bce7eb"><path d="m1264 144c-13 0-27 0.31-40 0.94l0.018 0.38c26-1.2 52-1.3 77-0.14l0.016-0.38c-12-0.53-25-0.8-37-0.8"/><path d="m1264 142c-13 0-27 0.32-40 0.94l0.018 0.38c27-1.3 54-1.3 80 0l0.018-0.38c-13-0.63-27-0.94-40-0.94"/><path d="m1264 138c-13 0-27 0.31-40 0.94l0.018 0.38c27-1.3 54-1.3 80 0l0.018-0.38c-13-0.63-27-0.94-40-0.94"/><path d="m1264 135c-13 0-27 0.32-40 0.94l0.018 0.38c27-1.3 54-1.3 80 0l0.018-0.38c-13-0.63-27-0.94-40-0.94"/><path d="m1264 131c-13 0-27 0.31-40 0.94l0.018 0.38c27-1.3 54-1.3 80 0l0.018-0.38c-13-0.63-27-0.94-40-0.94"/></g><path d="m1305 70h-80v29h80v-29" fill="#d7f2f3"/><g fill="#bce7eb"><path d="m1298 97h-74v0.39h74v-0.39"/><path d="m1301 95h-77v0.38h77v-0.38"/><path d="m1301 91h-77v0.39h77v-0.39"/><path d="m1301 88h-77v0.38h77v-0.38"/><path d="m1301 85h-77v0.38h77v-0.38"/><path d="m1300 85h-74v0.38h74v-0.38"/><path d="m1303 82h-77v0.39h77v-0.39"/><path d="m1303 79h-77v0.38h77v-0.38"/><path d="m1303 75h-77v0.39h77v-0.39"/><path d="m1303 72h-77v0.38h77v-0.38"/></g><path d="m1305 148c-27 2.7-54-2.7-80 0v10c27-2.7 54 2.7 80 0v-10" fill="#b3e6eb"/><g fill="#eef9fa"><path d="m1241 155c-4.8 0-9.6 0.15-14 0.53l0.031 0.38c12-1 25-0.37 37 0.24 12 0.61 25 1.2 37 0.28l-0.029-0.38c-12 0.96-25 0.33-37-0.28-7.6-0.38-15-0.78-23-0.78"/><path d="m1241 152c-4.8 0-9.6 0.15-14 0.53l0.031 0.38c12-1 25-0.37 37 0.24 12 0.61 25 1.2 37 0.28l-0.029-0.38c-12 0.96-25 0.33-37-0.28-7.6-0.38-15-0.78-23-0.78"/><path d="m1241 150c-4.8 0-9.6 0.15-14 0.53l0.031 0.38c12-1 25-0.37 37 0.24 12 0.61 25 1.2 37 0.28l-0.029-0.38c-12 0.96-25 0.33-37-0.28-7.6-0.38-15-0.78-23-0.78"/><path d="m1241 147c-4.8 0-9.6 0.15-14 0.53l0.031 0.38c12-1 25-0.37 37 0.24 12 0.61 25 1.2 37 0.28l-0.029-0.38c-12 0.96-25 0.33-37-0.28-7.6-0.38-15-0.78-23-0.78"/></g><g><path d="m1312 120c-27-1.3-54-1.3-81 0 0.16 3.5 0.33 6.9 0.49 10 27-1.3 54-1.3 80 0 0.16-3.5 0.33-6.9 0.49-10" fill="#d7f2f3"/><path d="m1234 129c25-1.1 50-1.1 75 0" fill="#a1d9e8"/><path d="m1272 128c-12 0-25 0.27-37 0.81l0.017 0.38c25-1.1 50-1.1 75 0l0.017-0.38c-12-0.54-25-0.81-37-0.81" fill="#b2e1ec"/><path d="m1234 126c25-1.1 50-1.1 75 0" fill="#a1d9e8"/><path d="m1272 125c-13 0-25 0.27-37 0.81l0.017 0.38c25-1.1 50-1.1 75 0l0.017-0.38c-12-0.54-25-0.81-37-0.81" fill="#b2e1ec"/><path d="m1234 124c25-1.1 50-1.1 75 0" fill="#a1d9e8"/><path d="m1272 123c-13 0-25 0.27-38 0.82l0.017 0.38c25-1.1 50-1.1 75 0l0.017-0.38c-12-0.54-25-0.82-38-0.82" fill="#b2e1ec"/><path d="m1234 121c25-1.1 50-1.1 75 0" fill="#a1d9e8"/><path d="m1272 120c-13 0-25 0.27-38 0.82l0.017 0.38c25-1.1 50-1.1 75 0l0.017-0.38c-12-0.55-25-0.82-38-0.82" fill="#b2e1ec"/><path d="m1315 99h-80v10h80v-10" fill="#d7f2f3"/></g><g fill="#eef9fa"><path d="m1312 108h-75v0.38h75v-0.38"/><path d="m1312 105h-75v0.38h75v-0.38"/><path d="m1312 103h-75v0.38h75v-0.38"/><path d="m1312 100h-75v0.38h75v-0.38"/></g><path d="m1301 109c-27 0-54-1.9-80-1.9v10c27 0 54 1.9 80 1.9v-10" fill="#a1d9e8"/><g fill="#eef9fa"><path d="m1224 116v0.38c12 0.061 25 0.5 37 0.93 12 0.43 25 0.87 37 0.93v-0.38c-12-0.061-25-0.5-37-0.93-12-0.43-25-0.87-37-0.93"/><path d="m1224 114v0.38c12 0.061 25 0.5 37 0.93 12 0.43 25 0.87 37 0.93v-0.38c-12-0.061-25-0.5-37-0.93-12-0.43-25-0.87-37-0.93"/><path d="m1224 111v0.38c12 0.061 25 0.5 37 0.93 12 0.43 25 0.87 37 0.93v-0.38c-12-0.061-25-0.5-37-0.93-12-0.42-25-0.87-37-0.93"/><path d="m1224 109v0.38c12 0.061 25 0.5 37 0.93 12 0.43 25 0.87 37 0.93v-0.38c-12-0.061-25-0.5-37-0.93-12-0.42-25-0.87-37-0.93"/></g><g><path d="m1275 139 16-6.9h-33s-4.2 6.9-12 6.9h29" fill="#b3e6eb"/><path d="m1279 85-22-9.2h-30l19 9.2h33" fill="#c3eaeb"/><path d="m1306 418c-27-4.7-54-3.8-80 2.5 0.3 9.6 0.59 19 0.89 29 26-6.3 54-7.1 80-2.5-0.3-9.6-0.59-19-0.89-29" fill="#d7f2f3"/></g><g fill="#bce7eb"><path d="m1267 442c-13 0.42-27 2.2-40 5.4l0.09 0.37c24-5.8 49-7 74-3.5l0.054-0.38c-11-1.6-23-2.3-34-1.9"/><path d="m1267 440c-13 0.41-27 2.2-40 5.4l0.089 0.37c25-6.1 51-7.1 77-3l0.06-0.38c-12-2-25-2.8-37-2.4"/><path d="m1266 436c-13 0.41-27 2.2-40 5.4l0.09 0.37c25-6.1 51-7.1 77-3l0.06-0.38c-12-2-25-2.8-37-2.4"/><path d="m1266 433c-13 0.42-27 2.2-40 5.4l0.09 0.37c25-6.1 51-7.1 77-3l0.06-0.38c-12-2-25-2.8-37-2.4"/><path d="m1266 430c-13 0.42-27 2.2-40 5.4l0.09 0.37c25-6.1 51-7.1 77-3l0.06-0.38c-12-2-25-2.8-37-2.4"/><path d="m1266 430c-13 0.4-26 2.1-39 5l0.086 0.37c24-5.6 49-6.6 74-2.9l0.058-0.38c-12-1.8-24-2.5-36-2.1"/><path d="m1266 427c-13 0.4-26 2.1-39 5l0.086 0.38c25-5.9 51-6.7 77-2.4l0.064-0.38c-13-2.2-26-3-39-2.6"/><path d="m1266 424c-13 0.4-26 2.1-39 5l0.086 0.38c25-5.9 51-6.7 77-2.4l0.064-0.38c-13-2.2-26-3-39-2.6"/><path d="m1266 420c-13 0.4-26 2.1-39 5l0.087 0.38c25-5.9 51-6.7 77-2.4l0.063-0.38c-13-2.2-26-3-39-2.6"/><path d="m1266 417c-13 0.4-26 2.1-39 5l0.087 0.38c25-5.9 51-6.7 77-2.4l0.064-0.38c-13-2.2-26-3-39-2.6"/></g><path d="m1314 447c-27-4.7-54-3.8-80 2.5 0.11 3.5 0.21 6.9 0.32 10 26-6.3 54-7.1 80-2.5-0.11-3.5-0.21-6.9-0.32-10" fill="#d7f2f3"/><g fill="#eef9fa"><path d="m1274 453c-12 0.38-25 2-37 4.7l0.085 0.38c25-5.5 50-6.3 74-2.3l0.061-0.38c-12-2-25-2.8-37-2.4"/><path d="m1274 450c-12 0.38-25 2-37 4.7l0.085 0.38c25-5.5 50-6.3 74-2.3l0.06-0.38c-12-2-25-2.8-37-2.4"/><path d="m1274 448c-12 0.38-25 2-37 4.7l0.084 0.38c25-5.5 50-6.3 74-2.3l0.061-0.38c-12-2-25-2.8-37-2.4"/><path d="m1274 445c-12 0.38-25 2-37 4.7l0.084 0.38c25-5.5 50-6.3 74-2.3l0.06-0.38c-12-2-25-2.8-37-2.4"/></g><path d="m1304 457c-27-4.7-54-3.8-80 2.5 0.11 3.5 0.21 6.9 0.32 10 26-6.3 54-7.1 80-2.5-0.11-3.5-0.21-6.9-0.32-10" fill="#a1d9e8"/><g fill="#eef9fa"><path d="m1264 463c-12 0.38-25 2-37 4.7l0.084 0.38c25-5.5 50-6.3 74-2.3l0.061-0.38c-12-2-25-2.8-37-2.4"/><path d="m1264 461c-12 0.38-25 2-37 4.7l0.084 0.38c25-5.5 50-6.3 74-2.3l0.061-0.38c-12-2-25-2.8-37-2.4"/><path d="m1264 458c-12 0.38-25 2-37 4.7l0.084 0.38c25-5.5 50-6.3 74-2.3l0.061-0.38c-12-2-25-2.8-37-2.4"/><path d="m1264 456c-12 0.38-25 2-37 4.7l0.084 0.38c25-5.5 50-6.3 74-2.3l0.061-0.38c-12-2-25-2.8-37-2.4"/></g><g><path d="m1282 433s-30-0.12-45-13c0 0-9 8.5-27 9.4 0 0 12 5.4 30 8.3l41-4.7" fill="#c3eaeb"/><path d="m1280 460 9.4-5.7-37 5.1s24 0.69 28 0.59" fill="#dbf3f2"/><path d="m1312 389c-27-0.44-54 0.39-80 2.5 0.18 5.9 0.36 12 0.55 18 27-2.1 54-2.9 80-2.5-0.18-5.9-0.36-12-0.54-18" fill="#9adbe0"/></g><g fill="#bce7eb"><path d="m1272 404c-13 0.41-27 1.1-40 2.2l0.03 0.38c26-2 52-2.8 77-2.5l0.01-0.38c-12-0.16-25-0.041-37 0.34"/><path d="m1272 402c-13 0.41-27 1.1-40 2.2l0.03 0.38c27-2.1 54-2.9 80-2.5l0.01-0.38c-13-0.22-27-0.12-40 0.3"/><path d="m1272 398c-13 0.41-27 1.1-40 2.2l0.03 0.38c27-2.1 54-2.9 80-2.5l0.01-0.38c-13-0.22-27-0.12-40 0.3"/><path d="m1272 395c-13 0.41-27 1.1-40 2.2l0.03 0.38c27-2.1 54-2.9 80-2.5l0.01-0.38c-13-0.22-27-0.12-40 0.3"/><path d="m1272 391c-13 0.41-27 1.1-40 2.2l0.03 0.38c27-2.1 54-2.9 80-2.5l0.01-0.38c-13-0.22-27-0.12-40 0.3"/></g><path d="m1310 329-80 2.5 0.89 29 80-2.5-0.89-29" fill="#d7f2f3"/><g fill="#bce7eb"><path d="m1305 356-74 2.3 0.012 0.38 74-2.3-0.012-0.38"/><path d="m1308 354-77 2.4 0.012 0.38 77-2.4-0.012-0.38"/><path d="m1308 351-77 2.4 0.012 0.38 77-2.4-0.011-0.38"/><path d="m1308 347-77 2.4 0.012 0.38 77-2.4-0.012-0.38"/><path d="m1308 344-77 2.4 0.012 0.38 77-2.4-0.012-0.38"/><path d="m1306 344-74 2.3 0.012 0.38 74-2.3-0.011-0.38"/><path d="m1309 341-77 2.4 0.012 0.38 77-2.4-0.012-0.38"/><path d="m1309 338-77 2.4 0.012 0.38 77-2.4-0.012-0.38"/><path d="m1309 334-77 2.4 0.012 0.38 77-2.4-0.012-0.38"/><path d="m1309 331-77 2.4 0.012 0.38 77-2.4-0.012-0.38"/></g><path d="m1313 407c-27 3.5-54-1-80 2.5 0.11 3.5 0.21 6.9 0.32 10 27-3.5 54 1 80-2.5-0.11-3.5-0.21-6.9-0.32-10" fill="#b3e6eb"/><g fill="#eef9fa"><path d="m1250 416c-4.8 0.15-9.5 0.44-14 0.97l0.043 0.38c12-1.4 25-1.2 37-0.91 12 0.24 25 0.48 37-0.86l-0.041-0.38c-12 1.3-25 1.1-37 0.86-7.6-0.15-15-0.3-23-0.061"/><path d="m1249 413c-4.8 0.15-9.5 0.44-14 0.97l0.043 0.38c12-1.4 25-1.2 37-0.91 12 0.24 25 0.48 37-0.86l-0.042-0.38c-12 1.3-25 1.1-37 0.86-7.6-0.15-15-0.3-23-0.061"/><path d="m1249 411c-4.8 0.15-9.5 0.44-14 0.97l0.043 0.38c12-1.4 25-1.2 37-0.91 12 0.24 25 0.48 37-0.86l-0.042-0.38c-12 1.3-25 1.1-37 0.86-7.6-0.15-15-0.3-23-0.06"/><path d="m1249 408c-4.8 0.15-9.5 0.44-14 0.97l0.043 0.38c12-1.4 25-1.2 37-0.91 12 0.24 25 0.48 37-0.86l-0.042-0.38c-12 1.3-25 1.1-37 0.86-7.6-0.15-15-0.3-23-0.061"/></g><g><path d="m1320 379c-27-0.44-54 0.39-81 2.5 0.27 3.5 0.54 6.9 0.81 10 27-2.1 54-2.9 80-2.5 0.056-3.5 0.11-6.9 0.17-10" fill="#d7f2f3"/><path d="m1242 390c25-1.9 50-2.6 75-2.3" fill="#a1d9e8"/><path d="m1279 388c-12 0.38-25 1-37 2l0.028 0.38c25-1.8 50-2.6 75-2.3l0.01-0.38c-12-0.16-25-0.046-37 0.34" fill="#b2e1ec"/><path d="m1242 387c25-1.9 50-2.6 75-2.3" fill="#a1d9e8"/><path d="m1279 385c-13 0.38-25 1-37 2l0.029 0.38c25-1.8 50-2.6 75-2.3v-0.38c-12-0.16-25-0.046-37 0.34" fill="#b2e1ec"/><path d="m1242 385c25-1.9 50-2.6 75-2.3" fill="#a1d9e8"/><path d="m1279 383c-13 0.39-25 1-38 2l0.029 0.38c25-1.9 50-2.6 75-2.3v-0.38c-12-0.16-25-0.046-38 0.34" fill="#b2e1ec"/><path d="m1241 382c25-1.9 50-2.6 75-2.3" fill="#a1d9e8"/><path d="m1279 380c-13 0.39-25 1-38 2l0.029 0.38c25-1.9 50-2.6 75-2.3l0.01-0.38c-13-0.16-25-0.046-38 0.34" fill="#b2e1ec"/><path d="m1322 358-80 2.5 0.32 10 80-2.5-0.32-10" fill="#d7f2f3"/></g><g fill="#eef9fa"><path d="m1319 367-74 2.3 0.012 0.38 74-2.3-0.011-0.38"/><path d="m1319 364-74 2.3 0.012 0.38 74-2.3-0.012-0.38"/><path d="m1319 362-74 2.3 0.012 0.38 74-2.3-0.011-0.38"/><path d="m1319 359-74 2.3 0.012 0.38 74-2.3-0.012-0.38"/></g><path d="m1308 369c-27 0.82-54-0.22-80 0.61 0.11 3.5 0.21 6.9 0.32 10 27-0.83 54 0.22 80-0.61-0.11-3.5-0.21-6.9-0.32-10" fill="#a1d9e8"/><g fill="#eef9fa"><path d="m1231 378 0.01 0.38c12-0.32 25-0.27 37-0.22 12 0.05 25 0.1 37-0.22l-0.01-0.38c-12 0.32-25 0.27-37 0.22-12-0.049-25-0.1-37 0.22"/><path d="m1231 375 0.01 0.38c12-0.32 25-0.27 37-0.22 12 0.049 25 0.1 37-0.22l-0.01-0.38c-12 0.32-25 0.27-37 0.22-12-0.049-25-0.1-37 0.22"/><path d="m1231 373 0.01 0.38c12-0.32 25-0.27 37-0.22 12 0.049 25 0.1 37-0.22l-0.01-0.38c-12 0.32-25 0.27-37 0.22-12-0.049-25-0.1-37 0.22"/><path d="m1231 370 0.01 0.38c12-0.32 25-0.27 37-0.22 12 0.049 25 0.1 37-0.22l-0.01-0.38c-12 0.32-25 0.27-37 0.22-12-0.049-25-0.1-37 0.22"/></g><g><path d="m1283 399 16-7.4-33 1s-4 7-11 7.3l29-0.9" fill="#b3e6eb"/><path d="m1285 345-22-8.6-30 0.93 19 8.6 33-1" fill="#c3eaeb"/><path d="m1228 187c27-2.1 54-2.9 80-2.5-0.18-5.9-0.36-12-0.54-18-27-0.44-54 0.39-80 2.5 0.18 5.9 0.36 12 0.55 18" fill="#9adbe0"/></g><g fill="#bce7eb"><path d="m1268 170c-12 0.38-25 1-37 1.9l0.028 0.38c26-1.9 52-2.7 77-2.2l0.01-0.38c-13-0.22-27-0.12-40 0.3"/><path d="m1268 172c-13 0.41-27 1.1-40 2.2l0.03 0.38c27-2.1 54-2.9 80-2.5l0.01-0.38c-13-0.22-27-0.12-40 0.3"/><path d="m1268 175c-13 0.41-27 1.1-40 2.2l0.03 0.38c27-2.1 54-2.9 80-2.5l0.01-0.38c-13-0.22-27-0.12-40 0.3"/><path d="m1268 179c-13 0.41-27 1.1-40 2.2l0.03 0.38c27-2.1 54-2.9 80-2.5l0.01-0.38c-13-0.22-27-0.12-40 0.3"/><path d="m1268 182c-13 0.41-27 1.1-40 2.2l0.03 0.38c27-2.1 54-2.9 80-2.5l0.01-0.38c-13-0.22-27-0.12-40 0.3"/></g><path d="m1230 247 80-2.5-0.89-29-80 2.5 0.89 29" fill="#d7f2f3"/><g fill="#bce7eb"><path d="m1309 217-74 2.3 0.011 0.38 74-2.3-0.012-0.38"/><path d="m1309 219-77 2.4 0.012 0.38 77-2.4-0.012-0.38"/><path d="m1310 223-77 2.4 0.012 0.38 77-2.4-0.012-0.38"/><path d="m1310 226-77 2.4 0.012 0.38 77-2.4-0.012-0.38"/><path d="m1310 230-77 2.4 0.012 0.38 77-2.4-0.012-0.38"/><path d="m1308 230-74 2.3 0.012 0.38 74-2.3-0.012-0.38"/><path d="m1308 232-77 2.4 0.012 0.38 77-2.4-0.011-0.38"/><path d="m1308 235-77 2.4 0.012 0.38 77-2.4-0.012-0.38"/><path d="m1309 239-77 2.4 0.012 0.38 77-2.4-0.012-0.38"/><path d="m1309 242-77 2.4 0.012 0.38 77-2.4-0.011-0.38"/></g><path d="m1228 169c27-3.5 54 1 80-2.5-0.11-3.5-0.21-6.9-0.32-10-27 3.5-54-1-80 2.5 0.11 3.5 0.21 6.9 0.32 10" fill="#b3e6eb"/><g fill="#eef9fa"><path d="m1244 160c-4.6 0.14-9.2 0.42-14 0.92l0.042 0.38c12-1.3 25-1.1 37-0.86 12 0.24 25 0.49 38-0.91l-0.043-0.38c-12 1.4-25 1.2-37 0.91-7.6-0.15-15-0.3-23-0.061"/><path d="m1244 162c-4.6 0.14-9.2 0.42-14 0.92l0.042 0.38c12-1.3 25-1.1 37-0.86 12 0.24 25 0.49 38-0.91l-0.043-0.38c-12 1.4-25 1.2-37 0.91-7.6-0.15-15-0.3-23-0.061"/><path d="m1244 165c-4.6 0.14-9.2 0.42-14 0.92l0.041 0.38c12-1.3 25-1.1 37-0.86 12 0.24 25 0.49 38-0.91l-0.043-0.38c-12 1.4-25 1.2-37 0.91-7.6-0.15-15-0.3-23-0.061"/><path d="m1244 167c-4.6 0.14-9.2 0.42-14 0.92l0.041 0.38c12-1.3 25-1.1 37-0.86 12 0.24 25 0.49 38-0.91l-0.043-0.38c-12 1.4-25 1.2-37 0.91-7.6-0.15-15-0.3-23-0.06"/></g><g><path d="m1221 197c27-2.1 54-2.9 80-2.5 0.056-3.5 0.11-6.9 0.17-10-27-0.44-54 0.39-81 2.5 0.27 3.5 0.54 6.9 0.81 10" fill="#d7f2f3"/><path d="m1299 186c-25-0.32-50 0.45-75 2.3" fill="#a1d9e8"/><path d="m1261 186c-13 0.39-25 1-38 2l0.029 0.38c25-1.9 50-2.6 75-2.3l0.01-0.38c-13-0.16-25-0.046-38 0.34" fill="#b2e1ec"/><path d="m1299 188c-25-0.32-50 0.45-75 2.3" fill="#a1d9e8"/><path d="m1261 188c-13 0.39-25 1-38 2l0.029 0.38c25-1.9 50-2.6 75-2.3v-0.38c-12-0.16-25-0.046-38 0.34" fill="#b2e1ec"/><path d="m1299 191c-25-0.32-50 0.45-75 2.3" fill="#a1d9e8"/><path d="m1261 191c-13 0.38-25 1-37 2l0.028 0.38c25-1.8 50-2.6 75-2.3l0.01-0.38c-12-0.16-25-0.046-37 0.34" fill="#b2e1ec"/><path d="m1299 193c-25-0.32-50 0.45-75 2.3" fill="#a1d9e8"/><path d="m1261 193c-12 0.38-25 1-37 2l0.028 0.38c25-1.8 50-2.6 75-2.3l0.01-0.38c-12-0.16-25-0.046-37 0.34" fill="#b2e1ec"/><path d="m1219 218 80-2.5-0.32-10-80 2.5 0.32 10" fill="#d7f2f3"/></g><g fill="#eef9fa"><path d="m1296 207-74 2.3 0.012 0.38 74-2.3-0.012-0.38"/><path d="m1296 209-74 2.3 0.012 0.38 74-2.3-0.012-0.38"/><path d="m1296 212-74 2.3 0.012 0.38 74-2.3-0.012-0.38"/><path d="m1296 214-74 2.3 0.012 0.38 74-2.3-0.012-0.38"/></g><path d="m1232 205c27-0.83 54 0.22 80-0.61-0.11-3.5-0.21-6.9-0.32-10-27 0.83-54-0.22-80 0.61 0.11 3.5 0.21 6.9 0.32 10" fill="#a1d9e8"/><g fill="#eef9fa"><path d="m1234 196 0.01 0.38c12-0.32 25-0.27 37-0.22 12 0.05 25 0.1 37-0.22l-0.01-0.38c-12 0.32-25 0.27-37 0.22-12-0.049-25-0.1-37 0.22"/><path d="m1235 199 0.01 0.38c12-0.32 25-0.27 37-0.22 12 0.05 25 0.1 37-0.22l-0.01-0.38c-12 0.32-25 0.27-37 0.22-12-0.05-25-0.1-37 0.22"/><path d="m1235 201 0.01 0.38c12-0.32 25-0.27 37-0.22 12 0.05 25 0.1 37-0.22l-0.01-0.38c-12 0.32-25 0.27-37 0.22-12-0.05-25-0.1-37 0.22"/><path d="m1235 204 0.01 0.38c12-0.32 25-0.27 37-0.22 12 0.049 25 0.1 37-0.22l-0.01-0.38c-12 0.32-25 0.27-37 0.22-12-0.049-25-0.1-37 0.22"/></g><g><path d="m1258 177-16 7.4 33-1s4-7 11-7.3l-29 0.9" fill="#b3e6eb"/><path d="m1255 231 22 8.6 30-0.93-19-8.6-33 1" fill="#c3eaeb"/><path d="m1302 304c-27-0.44-54 0.39-80 2.5 0.18 5.9 0.36 12 0.54 18 27-2.1 54-2.9 80-2.5-0.18-5.9-0.36-12-0.55-18" fill="#9adbe0"/></g><g fill="#bce7eb"><path d="m1262 319c-13 0.41-27 1.1-40 2.2l0.029 0.38c26-2 52-2.8 77-2.5v-0.38c-12-0.16-25-0.04-37 0.34"/><path d="m1262 316c-13 0.41-27 1.1-40 2.2l0.03 0.38c27-2.1 54-2.9 80-2.5l0.01-0.38c-13-0.22-27-0.12-40 0.3"/><path d="m1262 313c-13 0.41-27 1.1-40 2.2l0.03 0.38c27-2.1 54-2.9 80-2.5l0.01-0.38c-13-0.22-27-0.12-40 0.3"/><path d="m1262 309c-13 0.41-27 1.1-40 2.2l0.03 0.38c27-2.1 54-2.9 80-2.5l0.01-0.38c-13-0.22-27-0.12-40 0.3"/><path d="m1262 306c-13 0.41-27 1.1-40 2.2l0.03 0.38c27-2.1 54-2.9 80-2.5l0.01-0.38c-13-0.22-27-0.12-40 0.3"/></g><path d="m1300 244-80 2.5 0.89 29 80-2.5-0.89-29" fill="#d7f2f3"/><g fill="#bce7eb"><path d="m1295 271-74 2.3 0.012 0.38 74-2.3-0.012-0.38"/><path d="m1298 269-77 2.4 0.012 0.38 77-2.4-0.012-0.38"/><path d="m1297 265-77 2.4 0.012 0.38 77-2.4-0.012-0.38"/><path d="m1297 262-77 2.4 0.012 0.38 77-2.4-0.011-0.38"/><path d="m1297 258-77 2.4 0.012 0.38 77-2.4-0.012-0.38"/><path d="m1296 258-74 2.3 0.012 0.38 74-2.3-0.012-0.38"/><path d="m1299 256-77 2.4 0.012 0.38 77-2.4-0.012-0.38"/><path d="m1299 252-77 2.4 0.012 0.38 77-2.4-0.012-0.38"/><path d="m1299 249-77 2.4 0.012 0.38 77-2.4-0.012-0.38"/><path d="m1298 245-77 2.4 0.011 0.38 77-2.4-0.012-0.38"/></g><path d="m1302 322c-27 3.5-54-1-80 2.5 0.11 3.5 0.21 6.9 0.32 10 27-3.5 54 1 80-2.5-0.11-3.5-0.21-6.9-0.32-10" fill="#b3e6eb"/><g fill="#eef9fa"><path d="m1239 330c-4.8 0.15-9.5 0.44-14 0.97l0.043 0.38c12-1.4 25-1.2 37-0.91 12 0.24 25 0.48 37-0.86l-0.042-0.38c-12 1.3-25 1.1-37 0.86-7.6-0.15-15-0.3-23-0.06"/><path d="m1239 328c-4.8 0.15-9.5 0.44-14 0.97l0.043 0.38c12-1.4 25-1.2 37-0.91 12 0.24 25 0.48 37-0.86l-0.042-0.38c-12 1.3-25 1.1-37 0.86-7.6-0.15-15-0.3-23-0.061"/><path d="m1239 325c-4.8 0.15-9.5 0.44-14 0.97l0.043 0.38c12-1.4 25-1.2 37-0.91 12 0.24 25 0.48 37-0.86l-0.042-0.38c-12 1.3-25 1.1-37 0.86-7.6-0.15-15-0.3-23-0.061"/><path d="m1239 323c-4.8 0.15-9.5 0.44-14 0.97l0.043 0.38c12-1.4 25-1.2 37-0.91 12 0.24 25 0.48 37-0.86l-0.041-0.38c-12 1.3-25 1.1-37 0.86-7.6-0.15-15-0.3-23-0.061"/></g><g><path d="m1309 293c-27-0.44-54 0.4-81 2.5 0.27 3.5 0.54 6.9 0.81 10 27-2.1 54-2.9 80-2.5 0.056-3.5 0.11-6.9 0.17-10" fill="#d7f2f3"/><path d="m1232 304c25-1.9 50-2.6 75-2.3" fill="#a1d9e8"/><path d="m1269 302c-12 0.38-25 1-37 2l0.029 0.38c25-1.8 50-2.6 75-2.3l0.01-0.38c-12-0.16-25-0.046-37 0.34" fill="#b2e1ec"/><path d="m1231 302c25-1.9 50-2.6 75-2.3" fill="#a1d9e8"/><path d="m1269 300c-13 0.39-25 1-37 2l0.029 0.38c25-1.9 50-2.6 75-2.3v-0.38c-12-0.16-25-0.045-37 0.34" fill="#b2e1ec"/><path d="m1231 299c25-1.9 50-2.6 75-2.3" fill="#a1d9e8"/><path d="m1269 297c-13 0.39-25 1-38 2l0.029 0.38c25-1.9 50-2.6 75-2.3l0.01-0.38c-12-0.16-25-0.045-38 0.34" fill="#b2e1ec"/><path d="m1231 297c25-1.9 50-2.6 75-2.3" fill="#a1d9e8"/><path d="m1269 295c-13 0.39-25 1-38 2l0.029 0.38c25-1.9 50-2.6 75-2.3l0.01-0.38c-13-0.16-25-0.046-38 0.34" fill="#b2e1ec"/><path d="m1311 272-80 2.5 0.32 10 80-2.5-0.32-10" fill="#d7f2f3"/></g><g fill="#eef9fa"><path d="m1309 281-74 2.3 0.011 0.38 74-2.3-0.012-0.38"/><path d="m1308 279-74 2.3 0.011 0.38 74-2.3-0.012-0.38"/><path d="m1308 276-74 2.3 0.011 0.38 74-2.3-0.012-0.38"/><path d="m1308 274-74 2.3 0.012 0.38 74-2.3-0.012-0.38"/></g><path d="m1298 283c-27 0.83-54-0.22-80 0.61 0.11 3.5 0.21 6.9 0.32 10 27-0.82 54 0.22 80-0.61-0.11-3.5-0.21-6.9-0.32-10" fill="#a1d9e8"/><g fill="#eef9fa"><path d="m1221 292 0.01 0.38c12-0.32 25-0.27 37-0.22 12 0.049 25 0.1 37-0.22l-0.01-0.38c-12 0.32-25 0.27-37 0.22-12-0.049-25-0.1-37 0.22"/><path d="m1221 290 0.01 0.38c12-0.32 25-0.27 37-0.22 12 0.049 25 0.1 37-0.22l-0.01-0.38c-12 0.32-25 0.27-37 0.22-12-0.049-25-0.1-37 0.22"/><path d="m1221 287 0.01 0.38c12-0.32 25-0.27 37-0.22 12 0.05 25 0.1 37-0.22l-0.01-0.38c-12 0.32-25 0.27-37 0.22-12-0.05-25-0.1-37 0.22"/><path d="m1221 285 0.01 0.38c12-0.32 25-0.27 37-0.22 12 0.05 25 0.1 37-0.22l-0.01-0.38c-12 0.32-25 0.27-37 0.22-12-0.05-25-0.1-37 0.22"/></g><path d="m1272 314 16-7.4-33 1s-4 7-11 7.3l29-0.9" fill="#b3e6eb"/><path d="m1275 259-22-8.6-30 0.93 19 8.6 33-1" fill="#c3eaeb"/><text transform="scale(1,-1)" x="685.19269" y="-311.23901" fill="#aa0000" font-family="Freeman" font-size="183px" font-weight="bold" stroke="#ffffff" stroke-dashoffset=".25" stroke-linecap="round" stroke-linejoin="round" stroke-width="6.9" text-align="end" text-anchor="end" style="paint-order:markers stroke fill" xml:space="preserve"><tspan x="685.19269" y="-311.23901" stroke-width="6.9">sortlen</tspan></text><text transform="scale(1,-1)" x="835.00018" y="-202.37265" fill="#ffffff" font-family="Freeman" font-size="96px" font-weight="bold" stroke-dashoffset=".25" stroke-linecap="round" stroke-linejoin="round" stroke-width="16" text-align="end" text-anchor="end" style="paint-order:markers stroke fill" xml:space="preserve"><tspan x="835.00018" y="-202.37265" fill="#ffffff" font-size="96px" stroke-width="16">a simple cli utility</tspan></text></g></svg>
