<?xml version="1.0" encoding="UTF-8" standalone="no"?>
<!-- Created with Inkscape (http://www.inkscape.org/) -->

<svg
   version="1.1"
   id="svg2"
   width="2000"
   height="793.70697"
   viewBox="0 0 2000 793.70698"
   sodipodi:docname="hero-inkscape.svg"
   inkscape:version="1.2.2 (b0a8486541, 2022-12-01)"
   xmlns:inkscape="http://www.inkscape.org/namespaces/inkscape"
   xmlns:sodipodi="http://sodipodi.sourceforge.net/DTD/sodipodi-0.dtd"
   xmlns="http://www.w3.org/2000/svg"
   xmlns:svg="http://www.w3.org/2000/svg">
  <defs
     id="defs6">
    <clipPath
       clipPathUnits="userSpaceOnUse"
       id="clipPath42">
      <path
         d="m 1324.23,2328.64 -23.88,-6.39 -55.49,42.53 c 0,0 -10.32,-21.85 27.81,-46.44 l -4.75,-16.39 -3.12,-10.78 32.71,-4.11 30.1,15.18 z"
         id="path40" />
    </clipPath>
    <linearGradient
       x1="0"
       y1="0"
       x2="1"
       y2="0"
       gradientUnits="userSpaceOnUse"
       gradientTransform="matrix(6.06169,70.2844,-70.2844,6.06169,1280.07,2266.31)"
       spreadMethod="pad"
       id="linearGradient48">
      <stop
         style="stop-opacity:1;stop-color:#ffffff"
         offset="0"
         id="stop44" />
      <stop
         style="stop-opacity:1;stop-color:#b3d1ef"
         offset="1"
         id="stop46" />
    </linearGradient>
  </defs>
  <sodipodi:namedview
     id="namedview4"
     pagecolor="#505050"
     bordercolor="#ffffff"
     borderopacity="1"
     inkscape:showpageshadow="0"
     inkscape:pageopacity="0"
     inkscape:pagecheckerboard="1"
     inkscape:deskcolor="#505050"
     showgrid="false"
     inkscape:zoom="0.29733907"
     inkscape:cx="827.3383"
     inkscape:cy="509.51932"
     inkscape:window-width="1920"
     inkscape:window-height="1080"
     inkscape:window-x="1920"
     inkscape:window-y="0"
     inkscape:window-maximized="1"
     inkscape:current-layer="g10">
    <inkscape:page
       x="0"
       y="0"
       id="page8"
       width="2000"
       height="793.70697" />
  </sodipodi:namedview>
  <g
     id="g10"
     inkscape:groupmode="layer"
     inkscape:label="Page 1"
     transform="matrix(1.3333333,0,0,-1.3333333,0,793.70667)">
    <path
       d="M 0,1.7382e-5 H 1500 V 595.28002 H 0 Z"
       style="fill:#3a95b7;fill-opacity:1;fill-rule:nonzero;stroke:none;stroke-width:0.133481"
       id="path14" />
    <path
       d="M 1500,1.7382e-5 H 0 V 92.942217 c 0,0 146.98352,-16.324416 220.71595,-15.065593 91.58622,1.563638 243.889,26.391916 273.36217,28.061396 3.08947,0.175 85.32796,6.24814 88.37555,5.73186 L 695.38978,92.537917 c 5.06048,-0.857271 85.17149,13.545153 90.30103,13.400103 11.03231,-0.31195 77.36117,-2.25268 88.39349,-2.25268 8.07826,0 53.65861,-19.236812 53.65861,-11.147423 0,0 -0.0953,0.309006 0,0.4043 17.5943,17.594303 74.64629,0 74.64629,0 26.0323,-4.5723 32.1549,-5.965236 57.9465,-2.8883 l 85.3827,2.6113 h 77.5915 v 0.277 h 12.1406 v -1.4621 c 9.5624,-0.541 19.1284,-0.7391 28.6908,-0.7391 13.0652,0 26.1287,0.3699 39.1939,0.7391 13.0653,0.3699 26.1305,0.739 39.194,0.739 9.5642,0 19.1284,-0.198 28.6944,-0.739 v 1.4621 H 1500 V 1.7382e-5"
       style="fill:#3586a8;fill-opacity:1;fill-rule:nonzero;stroke:none;stroke-width:0.133481"
       id="path16"
       sodipodi:nodetypes="cccsssssssscccccccscscccc" />
    <path
       d="m 1427.723,92.942217 h -76.204 c 0,2.7937 0,5.5879 0,8.382803 1.3,-0.132 2.6,-0.238 3.9,-0.33 0.376,-0.027 0.752,-0.055 1.129,-0.079 0.363,-0.023 0.727,-0.042 1.09,-0.063 0.411,-0.023 0.822,-0.048 1.233,-0.067 0.211,-0.01 0.422,-0.017 0.634,-0.027 2.71,-0.119 5.427,-0.169 8.142,-0.169 1.375,0 2.749,0.013 4.122,0.036 -6.752,0.149 -13.503,0.38 -20.25,0.699 0,1.64 0,3.281 0,4.922 h -0.01 l 0.01,0.182 c 0,1.033 0,2.066 0,3.099 l -0.01,0.001 0.01,0.182 c 0,1.033 0,2.066 0,3.099 h -0.01 l 0.01,0.182 c 0,1.033 0,2.066 0,3.099 l -0.01,0.001 0.01,0.182 c 0,0.507 0,1.015 0,1.522 -2.272,0.087 -4.543,0.181 -6.814,0.286 V 92.942217 h -43.559 l -0.271,7.613803 10.378,0.37 -0.37,10.378 -13.549,-0.483 c -0.119,3.348 -0.238,6.695 -0.358,10.043 3.651,0.256 7.3,0.531 10.948,0.833 -0.286,3.45 -0.572,6.899 -0.858,10.349 -13.838,-1.147 -27.7,-1.944 -41.573,-2.414 0,0.007 0,0.013 0,0.019 11.434,0.485 22.861,1.189 34.269,2.135 -0.02,0.577 -0.041,1.153 -0.061,1.73 h 0.01 l -0.016,0.192 c -0.039,1.089 -0.078,2.178 -0.116,3.267 l 0.01,0.001 -0.016,0.191 c -0.017,0.472 -0.034,0.943 -0.051,1.414 2.419,0.083 4.839,0.169 7.258,0.252 -2.423,0.02 -4.847,0.051 -7.27,0.092 -0.018,0.503 -0.036,1.006 -0.054,1.509 l 0.01,0.001 -0.016,0.192 c -0.038,1.089 -0.077,2.178 -0.116,3.267 h 0.01 l -0.016,0.192 c -0.064,1.794 -0.128,3.587 -0.192,5.381 v 0 0 c -0.099,2.783 -0.198,5.567 -0.297,8.35 1.001,-0.075 2.003,-0.138 3.004,-0.234 v 0 0 c -0.012,2.617 -0.025,5.235 -0.037,7.853 1.618,-0.01 3.235,-0.015 4.853,-0.015 12.686,0 25.375,0.298 38.05,0.896 0,-1.702 0,-3.403 0,-5.105 l 0.01,-0.182 h -0.01 c 0,-1.033 0,-2.066 0,-3.099 l 0.01,-0.182 -0.01,-0.001 c 0,-1.033 0,-2.066 0,-3.099 l 0.01,-0.182 h -0.01 c 0,-1.033 0,-2.066 0,-3.099 l 0.01,-0.182 -0.01,-0.001 c 0,-0.547 0,-1.093 0,-1.64 -11.54,-0.545 -23.089,-0.839 -34.638,-0.888 1.163,-0.005 2.325,-0.008 3.488,-0.008 12.657,0 25.316,0.296 37.964,0.891 v 24.935 h -6.814 c 0,-2.719 0,-5.439 0,-8.158 -1.299,0.131 -2.598,0.237 -3.897,0.33 -0.378,0.027 -0.757,0.055 -1.136,0.079 -0.357,0.023 -0.714,0.041 -1.071,0.061 -0.417,0.024 -0.834,0.049 -1.252,0.069 -0.2,0.009 -0.4,0.016 -0.599,0.025 -2.729,0.12 -5.464,0.171 -8.198,0.171 -2.21,0 -4.42,-0.033 -6.625,-0.09 l -0.093,-0.003 c -0.689,-0.018 -1.378,-0.038 -2.066,-0.06 l -0.194,-0.006 c -0.661,-0.022 -1.323,-0.045 -1.983,-0.07 -0.096,-0.004 -0.193,-0.008 -0.289,-0.011 -0.634,-0.024 -1.268,-0.05 -1.901,-0.076 -0.126,-0.006 -0.253,-0.011 -0.38,-0.017 -0.613,-0.026 -1.226,-0.053 -1.838,-0.081 -0.123,-0.006 -0.246,-0.012 -0.369,-0.017 -2.077,-0.097 -4.146,-0.2 -6.202,-0.304 -1.197,-0.06 -2.398,-0.12 -3.602,-0.179 -0.404,-0.02 -0.808,-0.04 -1.211,-0.059 -0,0.629 -0.01,1.259 -0.01,1.888 -0,0.962 -0.01,1.923 -0.013,2.885 h 0.01 l -0.01,0.193 c -0,0.705 -0.01,1.41 -0.01,2.114 l 0.01,0.001 -0.01,0.193 c -0,0.855 -0.01,1.711 -0.013,2.567 1.617,0.077 3.235,0.158 4.852,0.24 7.329,0.368 14.658,0.737 21.987,0.737 4.391,0 8.783,-0.132 13.175,-0.476 v 11.499 0.365 2.917 0.364 2.917 0.365 2.917 0.364 1.823 0.365 1.413 h 9.845 v 8.21 c -4.285,-0.084 -8.569,-0.138 -12.853,-0.138 0,3.282 0,6.563 0,9.845 13.762,0 27.524,0.52 41.286,0.997 -10.608,0.087 -21.215,0.377 -31.814,0.877 0.15,3.18 0.3,6.36 0.45,9.541 -2.305,0.089 -4.61,0.184 -6.914,0.293 0,0.546 0,1.093 0,1.64 l -0.01,10e-4 0.01,0.182 c 0,1.033 0,2.066 0,3.099 h -0.01 l 0.01,0.182 c 0,1.033 0,2.066 0,3.099 l -0.01,0.001 0.01,0.182 c 0,1.033 0,2.066 0,3.099 h -0.01 l 0.01,0.182 c 0,0.669 0,1.337 0,2.005 l -0.01,0.001 0.01,0.182 c 0,0.972 0,1.945 0,2.917 h 10e-4 -10e-4 c 0,3.281 0,6.563 0,9.844 5.368,-0.54 10.734,-0.738 16.102,-0.738 7.333,0 14.667,0.369 22,0.739 7.332,0.369 14.664,0.738 21.997,0.738 5.368,0 10.737,-0.198 16.105,-0.739 0,-3.281 0,-6.563 0,-9.844 v 0 c 0,-1.702 0,-3.403 0,-5.105 l 0.01,-0.182 h -0.01 c 0,-1.033 0,-2.066 0,-3.099 l 0.01,-0.182 -0.01,-0.001 c 0,-1.033 0,-2.066 0,-3.099 l 0.01,-0.182 h -0.01 c 0,-1.033 0,-2.066 0,-3.099 l 0.01,-0.182 -0.01,-10e-4 c 0,-0.547 0,-1.094 0,-1.64 -11.54,-0.544 -23.088,-0.838 -34.638,-0.888 1.165,-0.005 2.328,-0.008 3.493,-0.008 12.694,10e-4 25.389,0.297 38.073,0.896 0.154,-3.278 0.309,-6.556 0.463,-9.834 -3.465,-0.163 -6.932,-0.303 -10.399,-0.422 0,-3.175 0,-6.35 0,-9.525 h 12.853 v -9.844 h -9.845 v -26.754 h 9.754 v -13.445 -0.364 -2.917 -0.365 -2.917 -0.364 -2.917 -0.365 -1.823 -0.365 -1.412 h -9.845 v -9.845 h -76.181 c 0,-2.704 0,-5.408 0,-8.113 h 12.829 c 0,2.114 0,4.227 0,6.341 25.402,0 50.803,1.772 76.205,1.772 0,-3.281 0,-6.563 0,-9.844 -13.26,0 -26.519,-0.483 -39.779,-0.945 9.951,0.102 19.9,0.384 29.843,0.853 0.154,-3.278 0.309,-6.555 0.463,-9.833 -11.694,-0.552 -23.398,-0.849 -35.102,-0.899 1.161,-0.005 2.321,-0.007 3.483,-0.007 12.698,0 25.396,0.297 38.084,0.895 0,-0.608 0,-1.216 0,-1.823 l 0.01,-0.182 -0.01,-0.001 c 0,-1.033 0,-2.066 0,-3.099 l 0.01,-0.182 h -0.01 c 0,-1.033 0,-2.066 0,-3.099 l 0.01,-0.182 -0.01,-0.001 c 0,-1.033 0,-2.066 0,-3.099 l 0.01,-0.182 h -0.01 c 0,-0.669 0,-1.337 0,-2.006 l 0.01,-0.182 h -0.01 c 0,-0.912 0,-1.823 0,-2.734 0,-2.794903 0,-5.589103 0,-8.382803 m -30.386,155.877803 c -0.711,-0.013 -1.421,-0.029 -2.131,-0.048 l -0.119,-0.003 c -0.683,-0.018 -1.365,-0.038 -2.047,-0.06 l -0.209,-0.007 c -0.659,-0.021 -1.317,-0.044 -1.975,-0.069 -0.096,-0.004 -0.193,-0.008 -0.289,-0.011 -0.637,-0.025 -1.273,-0.05 -1.908,-0.077 -0.118,-0.005 -0.237,-0.01 -0.355,-0.015 -0.622,-0.027 -1.244,-0.054 -1.864,-0.082 -0.107,-0.005 -0.214,-0.01 -0.322,-0.015 -2.091,-0.097 -4.173,-0.202 -6.242,-0.306 -1.196,-0.06 -2.398,-0.12 -3.602,-0.179 -0.492,-0.024 -0.984,-0.048 -1.476,-0.072 -0.304,-0.014 -0.608,-0.028 -0.912,-0.042 -0.61,-0.029 -1.221,-0.056 -1.831,-0.083 -0.236,-0.011 -0.471,-0.021 -0.707,-0.031 -0.713,-0.03 -1.426,-0.059 -2.139,-0.087 -0.143,-0.005 -0.286,-0.011 -0.43,-0.016 -2.245,-0.084 -4.49,-0.15 -6.735,-0.189 5.957,-0.131 11.914,-0.197 17.871,-0.197 12.688,0 25.377,0.298 38.054,0.896 -1.301,0.131 -2.602,0.237 -3.903,0.33 -0.375,0.027 -0.749,0.055 -1.125,0.079 -0.369,0.023 -0.739,0.042 -1.109,0.063 -0.403,0.023 -0.806,0.047 -1.21,0.066 -0.231,0.012 -0.461,0.019 -0.692,0.029 -2.706,0.118 -5.417,0.168 -8.128,0.168 -1.485,0 -2.971,-0.015 -4.455,-0.042 h -0.01 m -121.99,-100.988 c 0.023,0.473 0.045,0.946 0.068,1.42 -0.179,0.007 -0.357,0.013 -0.536,0.02 0.321,0.02 0.641,0.038 0.962,0.057 0.707,0.042 1.413,0.084 2.12,0.121 0.891,0.047 1.782,0.084 2.674,0.122 0.732,0.031 1.463,0.059 2.194,0.083 0.853,0.028 1.705,0.048 2.558,0.066 0.79,0.016 1.581,0.027 2.371,0.034 0.492,0.004 0.984,0.006 1.476,0.006 0.303,0 0.607,-0.001 0.911,-0.002 0.856,-0.005 1.711,-0.019 2.567,-0.036 0.75,-0.016 1.499,-0.034 2.247,-0.06 1.391,-0.049 2.782,-0.106 4.173,-0.196 v 0 c -7.921,-0.657 -15.85,-1.202 -23.785,-1.635"
       style="fill:#3281a1;fill-opacity:1;fill-rule:nonzero;stroke:none;stroke-width:0.1"
       id="path70" />
    <path
       d="m 1367.622,90.741017 c -5.367,0 -10.736,0.1981 -16.103,0.7391 0,0.4871 0,0.975 0,1.4621 h 76.204 c 0,-0.4871 0,-0.975 0,-1.4621 -5.369,0.541 -10.737,0.739 -16.105,0.739 -7.332,0 -14.665,-0.3691 -21.998,-0.739 -7.333,-0.3692 -14.665,-0.7391 -21.998,-0.7391 m -22.917,1.9242 h -43.549 l -0.01,0.277 h 43.559 v -0.277"
       style="fill:#2d7493;fill-opacity:1;fill-rule:nonzero;stroke:none;stroke-width:0.1"
       id="path72" />
    <path
       d="m 1178.815,92.942217 h -40.816 c -3.313,0.1308 -6.626,0.2199 -9.94,0.2199 -2.799,0 -5.6,-0.0641 -8.399,-0.2199 h -5.201 c 0,2.6359 0,5.273 0,7.909803 0,0.77 0,1.539 0,2.309 l -0.01,0.001 0.01,0.153 c 0,0.565 0,1.129 0,1.694 h -0.01 l 0.01,0.154 c 0,0.872 0,1.745 0,2.617 l -0.01,0.001 0.01,0.153 c 0,0.873 0,1.745 0,2.617 l -0.01,0.001 0.01,0.154 c 0,0.872 0,1.745 0,2.617 h -0.01 l 0.01,0.154 c 0,0.513 0,1.026 0,1.539 10.713,-0.505 21.433,-0.756 32.155,-0.756 0.983,0 1.967,0.003 2.949,0.007 -9.884,0.042 -19.769,0.293 -29.645,0.759 0.131,2.768 0.261,5.536 0.392,8.304 8.396,-0.396 16.799,-0.634 25.203,-0.72 -11.198,0.39 -22.396,0.797 -33.594,0.797 0,2.772 0,5.543 0,8.314 21.452,0 42.904,-1.496 64.356,-1.496 0,-1.785 0,-3.57 0,-5.355 h 10.835 c 0,2.284 0,4.568 0,6.851 h -64.337 v 8.314 h -8.314 v 1.194 0.307 1.54 0.308 2.463 0.308 2.464 0.308 2.463 0.308 11.355 h 8.237 v 22.594 h -8.314 v 8.314 h 10.854 c 0,2.681 0,5.362 0,8.043 -2.928,0.101 -5.855,0.219 -8.782,0.357 0.13,2.768 0.261,5.536 0.391,8.305 10.71,-0.506 21.426,-0.756 32.145,-0.756 0.985,0 1.973,0.002 2.959,0.006 -9.754,0.042 -19.507,0.29 -29.253,0.75 0,0.461 0,0.923 0,1.385 h -0.01 l 0.01,0.154 c 0,0.873 0,1.745 0,2.617 l -0.01,0.001 0.01,0.153 c 0,0.873 0,1.745 0,2.618 h -0.01 l 0.01,0.154 c 0,0.872 0,1.745 0,2.617 h -0.01 l 0.01,0.154 c 0,1.437 0,2.874 0,4.311 10.706,-0.505 21.42,-0.757 32.135,-0.757 5.032,0 10.065,0.056 15.095,0.167 -1.896,0.033 -3.792,0.088 -5.688,0.159 -0.121,0.005 -0.242,0.01 -0.363,0.014 -0.602,0.024 -1.204,0.048 -1.807,0.074 -0.199,0.008 -0.397,0.017 -0.596,0.025 -0.516,0.023 -1.031,0.046 -1.547,0.071 -0.256,0.012 -0.513,0.023 -0.77,0.035 -0.415,0.02 -0.831,0.041 -1.247,0.061 -1.016,0.05 -2.031,0.1 -3.041,0.151 -1.748,0.088 -3.506,0.177 -5.272,0.258 -0.091,0.004 -0.181,0.009 -0.272,0.013 -0.524,0.024 -1.049,0.047 -1.574,0.069 -0.1,0.005 -0.2,0.009 -0.3,0.013 -0.536,0.023 -1.073,0.045 -1.611,0.065 l -0.244,0.009 c -0.556,0.021 -1.112,0.041 -1.668,0.059 l -0.177,0.006 c -0.575,0.018 -1.152,0.035 -1.729,0.051 l -0.1,0.002 c -0.6,0.015 -1.199,0.029 -1.8,0.04 h -0.01 c -1.253,0.023 -2.508,0.036 -3.762,0.036 -2.29,0 -4.58,-0.042 -6.864,-0.141 -0.196,-0.009 -0.39,-0.016 -0.585,-0.025 -0.341,-0.016 -0.681,-0.037 -1.022,-0.056 -0.312,-0.018 -0.625,-0.034 -0.937,-0.054 -0.317,-0.02 -0.633,-0.043 -0.949,-0.066 -1.099,-0.079 -2.198,-0.168 -3.297,-0.279 0,2.772 0,5.543 0,8.314 4.534,0.457 9.067,0.624 13.602,0.624 6.192,0 12.385,-0.312 18.577,-0.624 6.193,-0.312 12.386,-0.624 18.579,-0.624 4.532,0 9.065,0.167 13.598,0.624 0,-2.771 0,-5.542 0,-8.314 v 0 c 0,-0.821 0,-1.642 0,-2.463 l 0.01,-0.154 -0.01,-0.001 c 0,-0.564 0,-1.128 0,-1.693 l 0.01,-0.154 h -0.01 c 0,-0.872 0,-1.745 0,-2.617 l 0.01,-0.154 h -0.01 c 0,-0.873 0,-1.745 0,-2.618 l 0.01,-0.153 -0.01,-0.001 c 0,-0.872 0,-1.744 0,-2.617 l 0.01,-0.154 h -0.01 c 0,-0.462 0,-0.924 0,-1.385 -1.946,-0.092 -3.892,-0.173 -5.839,-0.248 0.127,-2.686 0.254,-5.371 0.38,-8.057 -8.951,-0.422 -17.909,-0.667 -26.867,-0.741 11.622,-0.403 23.244,-0.842 34.867,-0.842 0,-2.771 0,-5.542 0,-8.314 -3.619,0 -7.237,0.045 -10.855,0.116 v -6.933 h 8.314 v -1.194 -0.308 -1.539 -0.308 -2.463 -0.308 -2.464 -0.308 -2.463 -0.308 -9.712 c 3.709,0.291 7.417,0.403 11.126,0.403 6.19,0 12.379,-0.312 18.569,-0.623 1.559,-0.078 3.117,-0.157 4.677,-0.23 0.01,-2.208 0.021,-4.416 0.032,-6.624 2.569,-0.246 5.139,-0.4 7.708,-0.511 -0.301,-0.002 -0.602,-0.003 -0.903,-0.003 -3.274,0 -6.55,0.086 -9.832,0.299 0.016,-0.443 0.032,-0.887 0.047,-1.33 -0.58,0.029 -1.158,0.058 -1.736,0.087 -1.736,0.087 -3.484,0.175 -5.238,0.256 -0.104,0.005 -0.208,0.01 -0.312,0.015 -0.516,0.023 -1.034,0.046 -1.552,0.068 -0.107,0.005 -0.214,0.009 -0.321,0.014 -0.535,0.022 -1.07,0.044 -1.605,0.065 l -0.244,0.009 c -0.558,0.021 -1.116,0.041 -1.675,0.059 l -0.164,0.005 c -0.581,0.019 -1.163,0.036 -1.745,0.051 l -0.078,0.002 c -1.863,0.048 -3.729,0.076 -5.596,0.076 -2.308,0 -4.618,-0.043 -6.922,-0.144 -0.169,-0.007 -0.338,-0.013 -0.506,-0.021 -0.353,-0.017 -0.705,-0.038 -1.058,-0.058 -0.301,-0.017 -0.603,-0.033 -0.904,-0.052 -0.32,-0.02 -0.64,-0.044 -0.96,-0.067 -1.097,-0.078 -2.194,-0.168 -3.29,-0.279 0,2.297 0,4.594 0,6.89 h -5.755 v -21.058 c 10.682,-0.503 21.373,-0.752 32.064,-0.752 0.981,0 1.963,0.002 2.943,0.006 -9.753,0.042 -19.507,0.29 -29.252,0.75 0,0.462 0,0.924 0,1.386 h -0.01 l 0.01,0.154 c 0,0.872 0,1.744 0,2.617 h -0.01 l 0.01,0.154 c 0,0.872 0,1.745 0,2.617 h -0.01 l 0.01,0.154 c 0,0.873 0,1.745 0,2.617 l -0.01,0.001 0.01,0.154 c 0,1.437 0,2.873 0,4.31 10.706,-0.504 21.42,-0.756 32.135,-0.756 0.599,0 1.196,10e-4 1.795,0.002 0.1,-2.793 0.199,-5.586 0.299,-8.38 0.036,-1.025 0.073,-2.051 0.109,-3.076 l -0,-0.191 h 0.01 c 0.025,-0.705 0.05,-1.41 0.075,-2.115 l -0,-0.191 h 0.01 c 0.039,-1.09 0.078,-2.179 0.117,-3.269 l -0,-0.191 h 0.01 c 0.039,-1.089 0.078,-2.179 0.117,-3.268 l -0,-0.191 h 0.01 c 0.018,-0.519 0.037,-1.038 0.055,-1.556 -0.9,-0.011 -1.8,-0.021 -2.7,-0.028 0.902,-0.031 1.803,-0.063 2.705,-0.094 0.018,-0.53 0.037,-1.06 0.056,-1.59 l -0,-0.191 h 0.01 c 0.021,-0.577 0.041,-1.153 0.062,-1.73 2.433,-0.028 4.866,-0.034 7.299,-0.041 -0.038,-3.361 -0.077,-6.722 -0.116,-10.083 3.178,-0.036 6.357,-0.054 9.535,-0.054 1.488,0 2.977,0.004 4.465,0.012 v -1.039 c -7.968,-0.517 -15.938,-0.966 -23.915,-1.25 0.124,-3.459 0.247,-6.919 0.37,-10.378 4.517,0.161 9.03,0.388 13.544,0.637 l 0.308,-8.663903 -10.378,-0.37 0.053,-1.489 0.014,-0.3852 0.069,-1.9219 0.012,-0.3589 h -36.119 v 21.464903 c -1.918,-0.089 -3.836,-0.168 -5.755,-0.241 0,-0.429 0,-0.858 0,-1.286 l 0.01,-0.154 h -0.01 c 0,-0.872 0,-1.745 0,-2.617 l 0.01,-0.154 -0.01,-0.001 c 0,-0.872 0,-1.744 0,-2.617 l 0.01,-0.153 -0.01,-0.001 c 0,-0.872 0,-1.745 0,-2.617 l 0.01,-0.154 h -0.01 c 0,-1.386 0,-2.771 0,-4.157 v 0 c 0,-2.636803 0,-5.273903 0,-7.909803 m 0,7.909803 c -5.699,-0.269 -11.4,-0.464 -17.102,-0.59 1.159,-0.019 2.318,-0.03 3.478,-0.03 2.294,0 4.59,0.042 6.88,0.142 0.178,0.008 0.356,0.014 0.535,0.023 0.347,0.017 0.694,0.038 1.041,0.057 0.307,0.017 0.614,0.033 0.921,0.053 0.318,0.02 0.635,0.044 0.953,0.066 1.098,0.079 2.196,0.168 3.294,0.279 m 61.35,45.781 c 0.214,0.012 0.428,0.025 0.643,0.037 0.572,0.031 1.143,0.063 1.714,0.097 1.314,0.08 2.627,0.167 3.939,0.261 0.554,0.039 1.107,0.076 1.659,0.118 0.269,0.02 0.537,0.04 0.806,0.061 0,-0.137 0,-0.274 0,-0.411 -2.92,-0.069 -5.841,-0.123 -8.761,-0.163"
       style="fill:#3281a1;fill-opacity:1;fill-rule:nonzero;stroke:none;stroke-width:0.1"
       id="path74" />
    <path
       d="m 1165.216,91.914117 c -6.192,0 -12.387,0.3121 -18.579,0.6238 -2.879,0.1453 -5.758,0.2902 -8.638,0.4043 h 40.816 c 0,-0.1352 0,-0.2692 0,-0.4043 -4.533,-0.457 -9.065,-0.6238 -13.599,-0.6238 m -50.757,0.6238 c 0,0.1351 0,0.2691 0,0.4043 h 5.201 c -1.734,-0.0973 -3.467,-0.2293 -5.201,-0.4043"
       style="fill:#2d7493;fill-opacity:1;fill-rule:nonzero;stroke:none;stroke-width:0.1"
       id="path76" />
    <path
       d="m 1181.779,190.60102 16.1,-6.364 c 0,0 -8.37,-17.778 -0.733,-25.47 l -20.052,-1.013 c 0,0 -11.068,8.41 4.685,32.847"
       style="fill:#feffff;fill-opacity:1;fill-rule:nonzero;stroke:none;stroke-width:0.1"
       id="path78" />
    <path
       d="m 1147.494,48.192217 -9.602,7.4578 -16.866,-10.168 42.259,-16.382 21.322,13.275 -14.928,5.8172 h -22.185"
       style="fill:#317bab;fill-opacity:1;fill-rule:nonzero;stroke:none;stroke-width:0.1"
       id="path80" />
    <path
       d="m 1162.1,73.967217 -25,-8.125 c 0,0 1.538,-27.3551 22.307,-28.509 0,0 1.154,9.0379 17.308,11.827 0,0 -21.539,9.1339 -14.615,24.807"
       style="fill:#feffff;fill-opacity:1;fill-rule:nonzero;stroke:none;stroke-width:0.1"
       id="path82" />
    <path
       d="m 1226.114,62.157017 6.56,-13.275 c 0,0 -3.024,10.7621 -22.298,5.3809 -19.275,-5.3809 -20.918,4.2012 -20.918,4.2012 v 3.6929 h 8.257 28.399"
       style="fill:#317bab;fill-opacity:1;fill-rule:nonzero;stroke:none;stroke-width:0.1"
       id="path84" />
    <path
       d="m 1229.915,56.648017 c 0,0 -8.077,6.9141 -16.923,-1.5429 0,0 -4.231,-3.1071 -13.462,2.1031 l -3.462,9.4398 c 0,0 12.308,-6.4328 15.001,-3.9851 2.692,2.4473 15,9.3703 18.846,-6.0149"
       style="fill:#feffff;fill-opacity:1;fill-rule:nonzero;stroke:none;stroke-width:0.1"
       id="path86" />
    <path
       d="m 1341.219,60.633217 3.007,-2.4633 c 0,0 -8.917,-10.5449 -23.846,-6.8 -14.93,3.7453 -20.881,-4.2777 -20.881,-4.2777 l 10.481,13.7891 31.239,-0.2481"
       style="fill:#317bab;fill-opacity:1;fill-rule:nonzero;stroke:none;stroke-width:0.1"
       id="path88" />
    <path
       d="m 1334.296,66.787117 6.923,-6.1539 c 0,0 -2.521,-11.6723 -17.884,-5.518 -15.364,6.1539 -17.885,0 -17.885,0 0,0 4.573,14.7489 15.364,13.211 0,0 11.559,-7.693 13.482,-1.5391"
       style="fill:#feffff;fill-opacity:1;fill-rule:nonzero;stroke:none;stroke-width:0.1"
       id="path90" />
    <path
       d="m 1124.335,71.455117 8.187,-1.0481 -23.594,-17.139 -34.295,-3.8891 13.523,16.5121 36.179,5.5641"
       style="fill:#317bab;fill-opacity:1;fill-rule:nonzero;stroke:none;stroke-width:0.1"
       id="path92" />
    <path
       d="m 1117.267,58.483217 -37.649,1.518 5.028,10.789 h 40.024 l -7.403,-12.307"
       style="fill:#feffff;fill-opacity:1;fill-rule:nonzero;stroke:none;stroke-width:0.1"
       id="path94" />
    <path
       d="m 1088.925,59.052017 -9.307,-0.5688 v 1.518 l 1.951,2.682 7.356,-3.6312"
       style="fill:#92cdcd;fill-opacity:1;fill-rule:nonzero;stroke:none;stroke-width:0.1"
       id="path96" />
    <path
       d="m 1268.501,92.942217 h -47.79 l -0.021,0.5719 -10e-4,0.025 h 28.237 v 11.354903 0.307 2.464 0.308 2.463 0.308 2.463 0.308 1.54 0.308 1.193 h -8.314 v 1.163 c 6.615,0.428 13.228,0.903 19.841,1.368 -6.612,-0.183 -13.226,-0.295 -19.841,-0.329 v 4.731 c 3.618,-0.07 7.236,-0.115 10.854,-0.115 0,2.771 0,5.542 0,8.314 -10.72,0 -21.442,0.373 -32.162,0.747 -0,0.041 -0,0.081 -0.01,0.122 8.059,0.097 16.116,0.334 24.168,0.713 -0.127,2.686 -0.254,5.372 -0.38,8.058 1.946,0.075 3.893,0.155 5.839,0.247 0,0.462 0,0.924 0,1.386 h 0.01 l -0.01,0.154 c 0,0.872 0,1.744 0,2.617 h 0.01 l -0.01,0.154 c 0,0.303 0,0.607 0,0.91 8.812,0.209 17.62,0.554 26.421,1.036 -0.127,-2.707 -0.255,-5.414 -0.382,-8.121 8.177,-0.386 16.359,-0.647 24.543,-0.786 0,-0.114 0.01,-0.229 0.012,-0.344 -11.342,-0.391 -22.685,-0.744 -34.027,-0.744 0,-2.729 0,-5.457 0,-8.186 -0.738,-0.031 -1.475,-0.061 -2.213,-0.091 0.738,0.023 1.475,0.047 2.213,0.072 0,-0.546 0,-1.093 0,-1.64 4.284,0 8.568,0.054 12.852,0.137 v -8.209 h -9.844 v -1.413 -0.365 -1.823 -0.364 -2.917 -0.365 -2.917 -0.364 -2.917 -0.365 -13.167803 m -19.575,54.264803 c 0,0.432 0,0.864 0,1.296 h 0.01 l -0.01,0.154 c 0,0.873 0,1.745 0,2.617 l 0.01,0.001 -0.01,0.154 c 0,0.564 0,1.129 0,1.693 h 0.01 l -0.01,0.154 c 0,0.821 0,1.642 0,2.463 v 0 c 0,2.772 0,5.543 0,8.314 -4.536,-0.457 -9.073,-0.624 -13.609,-0.624 -4.631,0 -9.262,0.174 -13.893,0.393 -0.01,1.253 -0.012,2.507 -0.018,3.76 1.389,-0.133 2.777,-0.232 4.166,-0.324 0.746,-0.049 1.493,-0.09 2.24,-0.129 0.857,-0.044 1.715,-0.084 2.572,-0.115 0.793,-0.028 1.586,-0.051 2.379,-0.069 0.792,-0.018 1.584,-0.031 2.376,-0.04 0.758,-0.007 1.516,-0.013 2.275,-0.013 0.093,0 0.186,0 0.279,0 0.733,0.001 1.467,0.008 2.2,0.016 0.892,0.01 1.785,0.02 2.677,0.039 l 0.191,0.005 c -7.12,0.123 -14.239,0.329 -21.355,0.63 -0.01,1.731 -0.017,3.462 -0.025,5.192 l -0.01,0.001 0.01,0.192 c -0.01,1.089 -0.01,2.179 -0.016,3.269 h -0.01 l 0.01,0.193 c -0.01,1.089 -0.011,2.179 -0.016,3.268 l -0.01,0.001 0.01,0.192 c -0,1.09 -0.01,2.179 -0.016,3.269 h -0.01 l 0.01,0.192 c -0,0.538 -0,1.076 -0.01,1.613 -2.6,0.087 -5.2,0.175 -7.799,0.285 0.147,3.458 0.293,6.916 0.44,10.375 3.493,-0.148 6.988,-0.272 10.483,-0.377 -0.015,3.013 -0.029,6.026 -0.044,9.039 26.795,0.128 53.58,2.125 80.375,2.254 0.017,-3.462 0.033,-6.923 0.05,-10.385 -13.952,-0.067 -27.902,-0.639 -41.851,-1.192 10.461,0.159 20.92,0.503 31.371,1.046 0.179,-3.457 0.359,-6.914 0.538,-10.371 -12.332,-0.641 -24.676,-1.003 -37.022,-1.114 14.619,0.007 29.238,0.377 43.841,1.135 0,-0.64 0.01,-1.281 0.01,-1.922 l 0.01,-0.193 h -0.01 c 0.01,-1.089 0.01,-2.179 0.016,-3.268 l 0.01,-0.193 -0.01,-0.001 c 0.01,-1.089 0.011,-2.179 0.016,-3.268 l 0.01,-0.193 h -0.01 c 10e-4,-0.234 0,-0.468 0,-0.701 -5.711,-0.274 -11.425,-0.498 -17.136,-0.498 -5.372,0 -10.742,0.198 -16.114,0.74 0,-3.282 0,-6.564 0,-9.845 h 10e-4 -10e-4 c 0,-0.972 0,-1.945 0,-2.917 l -0.01,-0.182 0.01,-0.001 c 0,-0.668 0,-1.337 0,-2.005 l -0.01,-0.182 h 0.01 c 0,-1.033 0,-2.066 0,-3.099 l -0.01,-0.182 0.01,-0.001 c 0,-1.033 0,-2.066 0,-3.099 l -0.01,-0.182 h 0.01 c 0,-1.033 0,-2.066 0,-3.099 l -0.01,-0.182 0.01,-0.001 c 0,-0.547 0,-1.093 0,-1.64 2.125,-0.101 4.252,-0.19 6.378,-0.273 -0.577,-0.034 -1.153,-0.069 -1.729,-0.108 -0.738,-0.049 -1.476,-0.104 -2.213,-0.157 -0.854,-0.062 -1.709,-0.122 -2.561,-0.188 -0.855,-0.067 -1.71,-0.137 -2.566,-0.207 -0.737,-0.06 -1.476,-0.118 -2.21,-0.18 -0.784,-0.066 -1.568,-0.134 -2.353,-0.201 -0.757,-0.065 -1.518,-0.129 -2.272,-0.194 -0.318,-0.028 -0.641,-0.055 -0.959,-0.082 -1.441,-0.124 -2.881,-0.247 -4.321,-0.368 -0.504,-0.042 -1.01,-0.08 -1.515,-0.122 -1.085,-0.088 -2.169,-0.175 -3.254,-0.258 m -30.426,7.778 c -0.01,0.223 -0.016,0.445 -0.024,0.668 0.435,-0.022 0.87,-0.043 1.306,-0.064 0.415,-0.021 0.831,-0.041 1.247,-0.061 0.256,-0.012 0.513,-0.024 0.77,-0.036 0.515,-0.024 1.031,-0.047 1.546,-0.07 0.199,-0.009 0.398,-0.017 0.597,-0.026 0.602,-0.026 1.204,-0.05 1.807,-0.073 0.121,-0.005 0.242,-0.01 0.363,-0.014 1.896,-0.071 3.792,-0.127 5.688,-0.16 -4.432,-0.097 -8.867,-0.152 -13.3,-0.164 m 83.302,10.451 c -4.342,0.026 -8.682,0.086 -13.022,0.182 2.245,0.039 4.49,0.105 6.735,0.189 0.143,0.005 0.286,0.011 0.429,0.017 0.714,0.027 1.427,0.056 2.14,0.086 0.235,0.01 0.471,0.02 0.706,0.031 0.61,0.027 1.221,0.054 1.831,0.083 0.305,0.014 0.609,0.028 0.912,0.042 0.089,0.005 0.177,0.009 0.266,0.013 10e-4,-0.214 0,-0.429 0,-0.643"
       style="fill:#3281a1;fill-opacity:1;fill-rule:nonzero;stroke:none;stroke-width:0.1"
       id="path98" />
    <path
       d="m 1221.565,68.962117 -0.505,14.1738 -0.014,0.384 -0.109,3.075 -0.014,0.3852 -0.11,3.0738 -0.013,0.3852 -0.089,2.5031 h 47.79 v -0.277 h 32.655 l 0.743,-20.841 -80.334,-2.8621"
       style="fill:#2d7493;fill-opacity:1;fill-rule:nonzero;stroke:none;stroke-width:0.1"
       id="path100" />
    <path
       d="m 1301.146,92.942217 h -32.645 v 26.977803 h 9.844 v 8.209 c -4.284,-0.083 -8.568,-0.137 -12.852,-0.137 0,0.547 0,1.094 0,1.64 13.873,0.47 27.735,1.267 41.573,2.414 0.286,-3.45 0.572,-6.899 0.858,-10.349 -3.648,-0.302 -7.297,-0.577 -10.948,-0.833 0.12,-3.348 0.239,-6.695 0.358,-10.043 l 13.549,0.483 0.37,-10.378 -10.378,-0.37 0.271,-7.613803 m -35.653,36.708803 c 0,2.729 0,5.457 0,8.186 11.342,0 22.685,0.353 34.027,0.744 0.017,-0.471 0.034,-0.942 0.051,-1.414 l 0.016,-0.191 -0.01,-0.001 c 0.038,-1.089 0.077,-2.178 0.116,-3.267 l 0.016,-0.192 h -0.01 c 0.02,-0.577 0.041,-1.153 0.061,-1.73 -11.408,-0.946 -22.835,-1.65 -34.269,-2.135 m 34.015,9.274 c -8.184,0.139 -16.366,0.4 -24.543,0.786 0.127,2.707 0.255,5.414 0.382,8.121 7.935,0.433 15.864,0.978 23.785,1.635 v 0 0 0 c 0.064,-1.794 0.128,-3.587 0.192,-5.381 l 0.016,-0.192 h -0.01 c 0.039,-1.089 0.078,-2.178 0.116,-3.267 l 0.016,-0.192 -0.01,-0.001 c 0.018,-0.503 0.036,-1.006 0.054,-1.509 m -24.629,10.347 c -2.126,0.083 -4.253,0.172 -6.378,0.273 0,0.547 0,1.093 0,1.64 l -0.01,0.001 0.01,0.182 c 0,1.033 0,2.066 0,3.099 h -0.01 l 0.01,0.182 c 0,1.033 0,2.066 0,3.099 l -0.01,0.001 0.01,0.182 c 0,1.033 0,2.066 0,3.099 h -0.01 l 0.01,0.182 c 0,0.668 0,1.337 0,2.005 l -0.01,0.001 0.01,0.182 c 0,0.972 0,1.945 0,2.917 h 10e-4 -10e-4 c 0,3.281 0,6.563 0,9.845 5.372,-0.542 10.742,-0.74 16.114,-0.74 5.711,0 11.425,0.224 17.136,0.498 0,-0.856 0.01,-1.712 0.013,-2.567 l 0.01,-0.193 -0.01,-0.001 c 0,-0.704 0.01,-1.409 0.01,-2.114 l 0.01,-0.193 h -0.01 c 0,-0.962 0.01,-1.923 0.013,-2.885 0,-0.629 0.01,-1.259 0.01,-1.888 -0.089,-0.004 -0.177,-0.008 -0.266,-0.013 -0.303,-0.014 -0.607,-0.028 -0.912,-0.042 -0.61,-0.029 -1.221,-0.056 -1.831,-0.083 -0.235,-0.011 -0.471,-0.021 -0.706,-0.031 -0.713,-0.03 -1.426,-0.059 -2.14,-0.086 -0.143,-0.006 -0.286,-0.012 -0.429,-0.017 -2.245,-0.084 -4.49,-0.15 -6.735,-0.189 4.34,-0.096 8.68,-0.156 13.022,-0.182 0.012,-2.618 0.025,-5.236 0.037,-7.853 -1.001,0.096 -2.003,0.159 -3.004,0.234 0.099,-2.783 0.198,-5.567 0.297,-8.35 -1.391,0.09 -2.782,0.147 -4.173,0.196 -0.748,0.026 -1.497,0.044 -2.247,0.06 -0.856,0.017 -1.711,0.031 -2.567,0.036 -0.304,0.001 -0.608,0.002 -0.911,0.002 -0.492,0 -0.984,-0.002 -1.476,-0.006 -0.79,-0.007 -1.581,-0.018 -2.371,-0.034 -0.853,-0.018 -1.705,-0.038 -2.558,-0.066 -0.731,-0.024 -1.462,-0.052 -2.194,-0.083 -0.892,-0.038 -1.783,-0.075 -2.674,-0.122 -0.707,-0.037 -1.413,-0.079 -2.12,-0.121 -0.321,-0.019 -0.641,-0.037 -0.962,-0.057"
       style="fill:#2b6f8c;fill-opacity:1;fill-rule:nonzero;stroke:none;stroke-width:0.1"
       id="path102" />
    <path
       d="m 1301.156,92.665217 h -32.655 v 0.277 h 32.645 l 0.01,-0.277"
       style="fill:#27637f;fill-opacity:1;fill-rule:nonzero;stroke:none;stroke-width:0.1"
       id="path104" />
    <path
       d="m 1248.926,93.539117 h -28.237 l -0.012,0.3589 -0.069,1.9219 -0.014,0.3852 -0.053,1.489 10.378,0.37 -0.308,8.663903 c -4.514,-0.249 -9.027,-0.476 -13.544,-0.637 -0.123,3.459 -0.246,6.919 -0.37,10.378 7.977,0.284 15.947,0.733 23.915,1.25 v -1.163 h 8.314 v -1.193 -0.308 -1.54 -0.308 -2.463 -0.308 -2.463 -0.308 -2.464 -0.307 -11.354903 m -12.779,25.206903 c -3.178,0 -6.357,0.018 -9.535,0.054 0.039,3.361 0.078,6.722 0.116,10.083 -2.433,0.007 -4.866,0.013 -7.299,0.041 -0.021,0.577 -0.041,1.153 -0.062,1.73 h -0.01 l 0,0.191 c -0.019,0.53 -0.038,1.06 -0.056,1.59 10.72,-0.374 21.442,-0.747 32.162,-0.747 0,-2.772 0,-5.543 0,-8.314 -3.618,0 -7.236,0.045 -10.854,0.115 v -4.731 c -1.488,-0.008 -2.977,-0.012 -4.465,-0.012 m -16.848,13.811 c -0.018,0.518 -0.037,1.037 -0.055,1.556 h -0.01 l 0,0.191 c -0.039,1.089 -0.078,2.179 -0.117,3.268 h -0.01 l 0,0.191 c -0.039,1.09 -0.078,2.179 -0.117,3.269 h -0.01 l 0,0.191 c -0.025,0.705 -0.05,1.41 -0.075,2.115 h -0.01 l 0,0.191 c -0.036,1.025 -0.073,2.051 -0.109,3.076 -0.1,2.794 -0.199,5.587 -0.299,8.38 4.433,0.012 8.868,0.067 13.3,0.164 -1.896,0.033 -3.792,0.089 -5.688,0.16 -0.121,0.004 -0.242,0.009 -0.363,0.014 -0.603,0.023 -1.205,0.047 -1.807,0.073 -0.199,0.009 -0.398,0.017 -0.597,0.026 -0.515,0.023 -1.031,0.046 -1.546,0.07 -0.257,0.012 -0.514,0.024 -0.77,0.036 -0.416,0.02 -0.832,0.04 -1.247,0.061 -0.436,0.021 -0.871,0.042 -1.306,0.064 -0.015,0.443 -0.031,0.887 -0.047,1.33 3.282,-0.213 6.558,-0.299 9.832,-0.299 0.301,0 0.602,0.001 0.903,0.003 -2.569,0.111 -5.139,0.265 -7.708,0.511 -0.011,2.208 -0.022,4.416 -0.032,6.624 4.631,-0.219 9.262,-0.393 13.893,-0.393 4.536,0 9.073,0.167 13.609,0.624 0,-2.771 0,-5.542 0,-8.314 v 0 c 0,-0.821 0,-1.642 0,-2.463 l 0.01,-0.154 h -0.01 c 0,-0.564 0,-1.129 0,-1.693 l 0.01,-0.154 -0.01,-0.001 c 0,-0.872 0,-1.744 0,-2.617 l 0.01,-0.154 h -0.01 c 0,-0.432 0,-0.864 0,-1.296 -0.269,-0.021 -0.537,-0.041 -0.806,-0.061 -0.552,-0.042 -1.105,-0.079 -1.659,-0.118 -1.312,-0.094 -2.625,-0.181 -3.939,-0.261 -0.571,-0.034 -1.142,-0.066 -1.714,-0.097 -0.215,-0.012 -0.429,-0.025 -0.643,-0.037 2.92,0.04 5.841,0.094 8.761,0.163 0,-0.303 0,-0.607 0,-0.91 l 0.01,-0.154 h -0.01 c 0,-0.873 0,-1.745 0,-2.617 l 0.01,-0.154 h -0.01 c 0,-0.462 0,-0.924 0,-1.386 -1.946,-0.092 -3.893,-0.172 -5.839,-0.247 0.126,-2.686 0.253,-5.372 0.38,-8.058 -8.052,-0.379 -16.109,-0.616 -24.168,-0.713"
       style="fill:#2b6f8c;fill-opacity:1;fill-rule:nonzero;stroke:none;stroke-width:0.1"
       id="path106" />
    <path
       d="m 1210.837,206.09002 -0.05,10.385 10.385,0.049 -0.135,28.221 -10.289,-0.049 -0.084,17.644 -0,0.384 -0.042,8.846 -0,0.385 -0.01,1.49 76.909,0.368 -66.524,-0.318 -0.041,8.67 c -4.519,-0.11 -9.038,-0.198 -13.557,-0.22 -0.017,3.462 -0.033,6.923 -0.05,10.385 14.607,0.07 29.211,0.693 43.815,1.268 -11.28,0.036 -22.56,0.279 -33.833,0.757 0.142,3.358 0.284,6.716 0.427,10.074 -2.432,0.082 -4.864,0.163 -7.295,0.266 -0,0.577 -0.01,1.154 -0.01,1.731 h -0.01 l 0.01,0.192 c -0.01,1.09 -0.011,2.179 -0.016,3.269 h -0.01 l 0.01,0.192 c -0,1.09 -0.01,2.18 -0.016,3.27 h -0.01 l 0.01,0.191 c -0.01,1.09 -0.011,2.18 -0.016,3.27 h -0.01 l 0.01,0.192 c -0,0.705 -0.01,1.41 -0.01,2.116 h -0.01 l 0.01,0.192 c -0.01,1.026 -0.01,2.051 -0.015,3.077 h 0 -0 c -0.016,3.462 -0.033,6.923 -0.05,10.384 2.56,-0.245 5.12,-0.398 7.679,-0.509 l -0.06,12.413 -10e-4,0.385 -0.015,3.076 -0,0.385 -0.015,3.077 -0,0.384 10e-4,0.001 -0.015,3.076 -0,0.385 -0.01,1.923 -0,0.385 -0.01,1.49 10.384,0.05 -0.041,8.669 c -4.519,-0.11 -9.038,-0.197 -13.557,-0.219 -0.017,3.462 -0.033,6.923 -0.05,10.385 14.607,0.07 29.212,0.693 43.816,1.268 -11.28,0.036 -22.56,0.279 -33.834,0.756 0.142,3.358 0.285,6.717 0.427,10.075 -2.432,0.082 -4.864,0.163 -7.295,0.266 -0,0.576 -0.01,1.153 -0.01,1.73 l -0.01,0.001 0.01,0.192 c -0.01,1.089 -0.01,2.179 -0.016,3.269 h -0.01 l 0.01,0.192 c -0.01,1.09 -0.01,2.179 -0.015,3.269 l -0.01,0.001 0.01,0.191 c -0.01,1.09 -0.011,2.18 -0.016,3.27 h -0.01 l 0.01,0.192 c -0,0.705 -0.01,1.41 -0.01,2.115 l -0.01,0.001 0.01,0.192 c -0,1.025 -0.01,2.051 -0.015,3.077 h 0 -0 c -0.015,3.258 -0.031,6.517 -0.046,9.775 -2.299,0.381 -4.594,0.787 -6.881,1.249 -0.01,2.047 -0.02,4.093 -0.03,6.139 -4.025,1.284 -9.024,2.294 -15.012,2.395 0,0 5.652,2.768 14.952,5.649 l -0.017,0.004 0.038,0.188 c -0.01,1.089 -0.011,2.177 -0.016,3.266 l -0.039,0.007 0.038,0.189 c -0,1.088 -0.01,2.177 -0.016,3.265 l -0.039,0.008 0.039,0.188 c -0.01,1.089 -0.011,2.177 -0.016,3.266 l -0.039,0.007 0.038,0.189 c -0,0.704 -0.01,1.408 -0.01,2.112 l -0.039,0.007 0.038,0.189 c -0,0.56 -0.01,1.121 -0.01,1.682 12.948,-2.617 26.089,-3.916 39.23,-3.915 1.545,0 3.091,0.018 4.635,0.053 -12.249,0.168 -24.488,1.458 -36.557,3.897 -0.014,2.837 -0.028,5.675 -0.041,8.512 -3.508,0.515 -7.006,1.118 -10.49,1.822 -0.016,3.462 -0.033,6.923 -0.05,10.385 12.959,-2.619 26.111,-3.928 39.263,-3.928 13.784,0 27.567,1.438 41.121,4.313 0.017,-3.462 0.033,-6.923 0.05,-10.385 -5.431,-1.152 -10.9,-2.06 -16.39,-2.75 l 1.581,-0.876 c 8.481,0.68 16.929,1.903 25.289,3.676 0.017,-3.461 0.034,-6.922 0.05,-10.384 -2.426,-0.515 -4.862,-0.967 -7.301,-1.39 0.044,-9.131 0.087,-18.263 0.131,-27.395 -0.226,-0.048 -0.454,-0.088 -0.681,-0.135 2.519,-0.112 5.039,-0.263 7.559,-0.505 0.017,-3.461 0.033,-6.923 0.05,-10.384 -1.388,0.133 -2.777,0.232 -4.165,0.324 -0.747,0.049 -1.495,0.09 -2.244,0.129 -0.856,0.044 -1.711,0.084 -2.566,0.115 -0.794,0.028 -1.588,0.052 -2.383,0.069 -0.791,0.018 -1.582,0.031 -2.373,0.039 -0.761,0.008 -1.52,0.014 -2.28,0.014 -0.094,0 -0.187,0 -0.28,0 -0.73,-0.001 -1.46,-0.008 -2.19,-0.016 -0.895,-0.01 -1.79,-0.02 -2.685,-0.039 -0.702,-0.015 -1.405,-0.035 -2.107,-0.055 -0.905,-0.026 -1.81,-0.05 -2.713,-0.083 -0.73,-0.026 -1.461,-0.057 -2.191,-0.088 -0.863,-0.036 -1.727,-0.07 -2.588,-0.11 -0.838,-0.039 -1.676,-0.082 -2.514,-0.125 -0.761,-0.038 -1.525,-0.075 -2.284,-0.115 -0.733,-0.039 -1.465,-0.079 -2.198,-0.12 -0.807,-0.044 -1.617,-0.087 -2.421,-0.131 -0.281,-0.016 -0.565,-0.031 -0.846,-0.046 -1.485,-0.082 -2.969,-0.163 -4.453,-0.241 -0.499,-0.026 -1,-0.049 -1.501,-0.075 -1.359,-0.069 -2.718,-0.135 -4.077,-0.195 -0.553,-0.024 -1.106,-0.044 -1.66,-0.066 -1.317,-0.054 -2.634,-0.1 -3.95,-0.139 -0.571,-0.017 -1.142,-0.031 -1.713,-0.045 -0.216,-0.005 -0.431,-0.012 -0.647,-0.017 4.955,-0.085 9.908,-0.128 14.863,-0.128 14.727,0 29.455,0.379 44.166,1.144 0.01,-1.795 0.017,-3.59 0.026,-5.385 l 0.01,-0.192 h -0.01 c 0.01,-1.09 0.01,-2.18 0.015,-3.27 l 0.01,-0.192 h -0.01 c 0.01,-1.09 0.011,-2.179 0.016,-3.269 l 0.01,-0.192 h -0.01 c 0,-1.09 0.01,-2.18 0.016,-3.27 l 0.01,-0.191 -0.01,-0.001 c 0,-0.577 0,-1.154 0.01,-1.731 -12.172,-0.632 -24.353,-0.99 -36.537,-1.1 14.62,0.007 29.24,0.377 43.844,1.135 0.18,-3.456 0.36,-6.913 0.539,-10.37 -3.655,-0.19 -7.311,-0.352 -10.968,-0.496 0.017,-3.349 0.033,-6.699 0.049,-10.049 l 13.557,0.065 0.05,-10.384 -10.385,-0.05 0.138,-28.75 -7.676,-0.037 c 0.013,-2.689 0.026,-5.379 0.039,-8.068 -1.389,0.133 -2.777,0.232 -4.166,0.324 -0.746,0.05 -1.493,0.09 -2.24,0.129 -0.858,0.044 -1.716,0.084 -2.574,0.115 -0.79,0.028 -1.581,0.052 -2.373,0.07 -0.795,0.018 -1.59,0.031 -2.385,0.039 -0.774,0.008 -1.549,0.014 -2.323,0.014 -0.076,0 -0.151,0 -0.226,-10e-4 -0.734,-10e-4 -1.468,-0.007 -2.203,-0.015 -0.89,-0.011 -1.781,-0.021 -2.671,-0.04 -0.709,-0.015 -1.418,-0.035 -2.127,-0.055 -0.897,-0.025 -1.795,-0.05 -2.692,-0.082 -0.738,-0.027 -1.477,-0.059 -2.215,-0.089 -0.857,-0.036 -1.715,-0.07 -2.57,-0.11 -0.839,-0.039 -1.677,-0.082 -2.516,-0.125 -0.761,-0.038 -1.524,-0.075 -2.282,-0.115 -0.646,-0.034 -1.292,-0.07 -1.938,-0.105 -0.894,-0.049 -1.791,-0.097 -2.682,-0.146 -0.342,-0.019 -0.688,-0.037 -1.031,-0.056 -1.422,-0.078 -2.844,-0.156 -4.266,-0.231 -0.5,-0.026 -1.001,-0.049 -1.502,-0.074 -1.359,-0.07 -2.718,-0.135 -4.078,-0.195 -0.552,-0.025 -1.105,-0.045 -1.659,-0.067 -1.317,-0.053 -2.634,-0.1 -3.951,-0.139 -0.571,-0.017 -1.141,-0.031 -1.713,-0.045 -0.215,-0.005 -0.431,-0.012 -0.646,-0.016 4.954,-0.086 9.907,-0.129 14.863,-0.129 14.726,0 29.455,0.379 44.166,1.144 v 0 0 0 c 0.01,-1.795 0.017,-3.59 0.026,-5.385 l 0.01,-0.192 h -0.01 c 0,-1.09 0.01,-2.179 0.015,-3.269 l 0.01,-0.192 -0.01,-10e-4 c 0,-1.089 0.01,-2.179 0.016,-3.268 l 0.01,-0.193 h -0.01 c 0.01,-1.09 0.01,-2.179 0.015,-3.269 l 0.01,-0.192 -0.01,-10e-4 c 0,-0.576 0.01,-1.153 0.01,-1.73 -12.171,-0.633 -24.352,-0.99 -36.534,-1.101 14.619,0.008 29.237,0.377 43.841,1.136 0.18,-3.457 0.359,-6.914 0.539,-10.371 -3.655,-0.19 -7.311,-0.352 -10.968,-0.496 0.016,-3.349 0.032,-6.699 0.048,-10.049 l 13.558,0.065 0.05,-10.384 -10.385,-0.05 0.135,-28.221 10.289,0.05 0.084,-17.644 0,-0.385 0.042,-8.846 0,-0.385 0.01,-1.49 -10.384,-0.05 0.049,-10.384 -80.383,-0.385 m 76.934,78.109 v 0 m -21.226,171.217 c -4.571,-0.462 -9.154,-0.774 -13.741,-0.918 1.38,-0.029 2.759,-0.044 4.139,-0.044 4.713,0 9.427,0.172 14.132,0.505 l -4.53,0.457"
       style="fill:#3281a1;fill-opacity:1;fill-rule:nonzero;stroke:none;stroke-width:0.1"
       id="path108" />
    <path
       d="m 1304.553,130.34102 c -26.78,-1.263 -53.605,-1.263 -80.385,0 0,5.898 0,11.795 0,17.693 26.78,-1.263 53.605,-1.263 80.385,0 0,-5.898 0,-11.795 0,-17.693"
       style="fill:#9adbe0;fill-opacity:1;fill-rule:nonzero;stroke:none;stroke-width:0.1"
       id="path110" />
    <path
       d="m 1264.374,143.82102 c -13.436,0 -26.874,0.314 -40.215,0.943 l 0.018,0.385 c 25.609,-1.208 51.581,-1.256 77.196,-0.144 l 0.016,-0.384 c -12.282,-0.534 -24.647,-0.8 -37.015,-0.8"
       style="fill:#bce7eb;fill-opacity:1;fill-rule:nonzero;stroke:none;stroke-width:0.1"
       id="path112" />
    <path
       d="m 1264.36,141.51302 c -13.431,0 -26.863,0.315 -40.201,0.944 l 0.018,0.384 c 26.664,-1.257 53.703,-1.257 80.367,0 l 0.018,-0.384 c -13.338,-0.629 -26.77,-0.944 -40.202,-0.944"
       style="fill:#bce7eb;fill-opacity:1;fill-rule:nonzero;stroke:none;stroke-width:0.1"
       id="path114" />
    <path
       d="m 1264.36,138.05202 c -13.431,0 -26.863,0.314 -40.201,0.943 l 0.018,0.384 c 26.664,-1.257 53.703,-1.257 80.367,0 l 0.018,-0.384 c -13.338,-0.629 -26.77,-0.943 -40.202,-0.943"
       style="fill:#bce7eb;fill-opacity:1;fill-rule:nonzero;stroke:none;stroke-width:0.1"
       id="path116" />
    <path
       d="m 1264.36,134.59002 c -13.431,0 -26.863,0.315 -40.201,0.944 l 0.018,0.384 c 26.664,-1.258 53.703,-1.258 80.367,0 l 0.018,-0.384 c -13.338,-0.629 -26.77,-0.944 -40.202,-0.944"
       style="fill:#bce7eb;fill-opacity:1;fill-rule:nonzero;stroke:none;stroke-width:0.1"
       id="path118" />
    <path
       d="m 1264.36,131.12902 c -13.431,0 -26.863,0.314 -40.201,0.943 l 0.018,0.384 c 26.664,-1.257 53.703,-1.257 80.367,0 l 0.018,-0.384 c -13.338,-0.629 -26.77,-0.943 -40.202,-0.943"
       style="fill:#bce7eb;fill-opacity:1;fill-rule:nonzero;stroke:none;stroke-width:0.1"
       id="path120" />
    <path
       d="m 1304.553,70.341017 h -80.385 v 28.75 h 80.385 v -28.75"
       style="fill:#d7f2f3;fill-opacity:1;fill-rule:nonzero;stroke:none;stroke-width:0.1"
       id="path122" />
    <path
       d="m 1298.332,97.216017 h -74.164 v 0.3852 h 74.164 v -0.3852"
       style="fill:#bce7eb;fill-opacity:1;fill-rule:nonzero;stroke:none;stroke-width:0.1"
       id="path124" />
    <path
       d="m 1301.38,94.909017 h -77.212 v 0.384 h 77.212 v -0.384"
       style="fill:#bce7eb;fill-opacity:1;fill-rule:nonzero;stroke:none;stroke-width:0.1"
       id="path126" />
    <path
       d="m 1301.38,91.446917 h -77.212 v 0.3851 h 77.212 v -0.3851"
       style="fill:#bce7eb;fill-opacity:1;fill-rule:nonzero;stroke:none;stroke-width:0.1"
       id="path128" />
    <path
       d="m 1301.38,87.985917 h -77.212 v 0.384 h 77.212 v -0.384"
       style="fill:#bce7eb;fill-opacity:1;fill-rule:nonzero;stroke:none;stroke-width:0.1"
       id="path130" />
    <path
       d="m 1301.38,84.524217 h -77.212 v 0.3848 h 77.212 v -0.3848"
       style="fill:#bce7eb;fill-opacity:1;fill-rule:nonzero;stroke:none;stroke-width:0.1"
       id="path132" />
    <path
       d="m 1299.918,84.524217 h -74.163 v 0.3848 h 74.163 v -0.3848"
       style="fill:#bce7eb;fill-opacity:1;fill-rule:nonzero;stroke:none;stroke-width:0.1"
       id="path134" />
    <path
       d="m 1302.966,82.216017 h -77.211 v 0.3852 h 77.211 v -0.3852"
       style="fill:#bce7eb;fill-opacity:1;fill-rule:nonzero;stroke:none;stroke-width:0.1"
       id="path136" />
    <path
       d="m 1302.966,78.755117 h -77.211 v 0.384 h 77.211 v -0.384"
       style="fill:#bce7eb;fill-opacity:1;fill-rule:nonzero;stroke:none;stroke-width:0.1"
       id="path138" />
    <path
       d="m 1302.966,75.293017 h -77.211 v 0.3851 h 77.211 v -0.3851"
       style="fill:#bce7eb;fill-opacity:1;fill-rule:nonzero;stroke:none;stroke-width:0.1"
       id="path140" />
    <path
       d="m 1302.966,71.832017 h -77.211 v 0.384 h 77.211 v -0.384"
       style="fill:#bce7eb;fill-opacity:1;fill-rule:nonzero;stroke:none;stroke-width:0.1"
       id="path142" />
    <path
       d="m 1304.553,148.03402 c -26.795,2.699 -53.59,-2.701 -80.385,0 0,3.461 0,6.923 0,10.384 26.795,-2.7 53.59,2.7 80.385,0 0,-3.461 0,-6.923 0,-10.384"
       style="fill:#b3e6eb;fill-opacity:1;fill-rule:nonzero;stroke:none;stroke-width:0.1"
       id="path144" />
    <path
       d="m 1241.148,154.75702 c -4.775,0 -9.553,0.147 -14.303,0.532 l 0.031,0.384 c 12.487,-1.015 25.19,-0.374 37.475,0.245 12.139,0.611 24.692,1.243 37.043,0.282 l -0.029,-0.383 c -12.328,0.96 -24.868,0.328 -36.995,-0.283 -7.629,-0.384 -15.42,-0.777 -23.222,-0.777"
       style="fill:#eef9fa;fill-opacity:1;fill-rule:nonzero;stroke:none;stroke-width:0.1"
       id="path146" />
    <path
       d="m 1241.148,152.25702 c -4.775,0 -9.553,0.147 -14.303,0.532 l 0.031,0.384 c 12.487,-1.014 25.19,-0.374 37.475,0.245 12.139,0.611 24.692,1.244 37.043,0.282 l -0.029,-0.383 c -12.328,0.96 -24.868,0.328 -36.995,-0.283 -7.629,-0.384 -15.42,-0.777 -23.222,-0.777"
       style="fill:#eef9fa;fill-opacity:1;fill-rule:nonzero;stroke:none;stroke-width:0.1"
       id="path148" />
    <path
       d="m 1241.148,149.75702 c -4.775,0 -9.553,0.147 -14.303,0.532 l 0.031,0.384 c 12.487,-1.014 25.19,-0.374 37.475,0.245 12.139,0.611 24.692,1.243 37.043,0.282 l -0.029,-0.383 c -12.328,0.96 -24.868,0.328 -36.995,-0.283 -7.629,-0.384 -15.42,-0.777 -23.222,-0.777"
       style="fill:#eef9fa;fill-opacity:1;fill-rule:nonzero;stroke:none;stroke-width:0.1"
       id="path150" />
    <path
       d="m 1241.148,147.25702 c -4.775,0 -9.553,0.147 -14.303,0.532 l 0.031,0.384 c 12.487,-1.014 25.19,-0.374 37.475,0.245 12.139,0.611 24.692,1.244 37.043,0.283 l -0.029,-0.384 c -12.328,0.96 -24.868,0.328 -36.995,-0.283 -7.629,-0.384 -15.42,-0.777 -23.222,-0.777"
       style="fill:#eef9fa;fill-opacity:1;fill-rule:nonzero;stroke:none;stroke-width:0.1"
       id="path152" />
    <path
       d="m 1312.35,119.96802 c -27.106,-1.278 -54.257,-1.278 -81.363,0 0.163,3.458 0.326,6.915 0.489,10.373 26.78,-1.263 53.604,-1.263 80.384,0 0.163,-3.458 0.327,-6.915 0.49,-10.373"
       style="fill:#d7f2f3;fill-opacity:1;fill-rule:nonzero;stroke:none;stroke-width:0.1"
       id="path154" />
    <path
       d="m 1234.344,128.76702 c 24.871,-1.087 49.777,-1.087 74.648,0"
       style="fill:#a1d9e8;fill-opacity:1;fill-rule:nonzero;stroke:none;stroke-width:0.1"
       id="path156" />
    <path
       d="m 1271.668,127.76302 c -12.473,0 -24.946,0.271 -37.332,0.812 l 0.017,0.384 c 24.76,-1.082 49.87,-1.082 74.631,0 l 0.017,-0.384 c -12.386,-0.541 -24.86,-0.812 -37.333,-0.812"
       style="fill:#b2e1ec;fill-opacity:1;fill-rule:nonzero;stroke:none;stroke-width:0.1"
       id="path158" />
    <path
       d="m 1234.235,126.27002 c 24.943,-1.091 49.923,-1.091 74.866,0"
       style="fill:#a1d9e8;fill-opacity:1;fill-rule:nonzero;stroke:none;stroke-width:0.1"
       id="path160" />
    <path
       d="m 1271.668,125.26302 c -12.51,0 -25.019,0.271 -37.442,0.814 l 0.017,0.385 c 24.834,-1.086 50.017,-1.086 74.85,0 l 0.017,-0.385 c -12.423,-0.543 -24.932,-0.814 -37.442,-0.814"
       style="fill:#b2e1ec;fill-opacity:1;fill-rule:nonzero;stroke:none;stroke-width:0.1"
       id="path162" />
    <path
       d="m 1234.126,123.77202 c 25.016,-1.094 50.068,-1.094 75.084,0"
       style="fill:#a1d9e8;fill-opacity:1;fill-rule:nonzero;stroke:none;stroke-width:0.1"
       id="path164" />
    <path
       d="m 1271.668,122.76302 c -12.546,0 -25.092,0.272 -37.551,0.817 l 0.017,0.384 c 24.906,-1.089 50.162,-1.089 75.068,0 l 0.017,-0.384 c -12.458,-0.545 -25.005,-0.817 -37.551,-0.817"
       style="fill:#b2e1ec;fill-opacity:1;fill-rule:nonzero;stroke:none;stroke-width:0.1"
       id="path166" />
    <path
       d="m 1234.017,121.27402 c 25.089,-1.097 50.214,-1.097 75.303,0"
       style="fill:#a1d9e8;fill-opacity:1;fill-rule:nonzero;stroke:none;stroke-width:0.1"
       id="path168" />
    <path
       d="m 1271.668,120.26302 c -12.582,0 -25.165,0.273 -37.66,0.819 l 0.017,0.384 c 24.978,-1.091 50.308,-1.091 75.286,0 l 0.017,-0.384 c -12.495,-0.546 -25.077,-0.819 -37.66,-0.819"
       style="fill:#b2e1ec;fill-opacity:1;fill-rule:nonzero;stroke:none;stroke-width:0.1"
       id="path170" />
    <path
       d="m 1314.937,99.091017 h -80.384 v 10.385003 h 80.384 V 99.091017"
       style="fill:#d7f2f3;fill-opacity:1;fill-rule:nonzero;stroke:none;stroke-width:0.1"
       id="path172" />
    <path
       d="m 1312.005,107.84102 h -74.52 v 0.385 h 74.52 v -0.385"
       style="fill:#eef9fa;fill-opacity:1;fill-rule:nonzero;stroke:none;stroke-width:0.1"
       id="path174" />
    <path
       d="m 1312.005,105.34102 h -74.52 v 0.385 h 74.52 v -0.385"
       style="fill:#eef9fa;fill-opacity:1;fill-rule:nonzero;stroke:none;stroke-width:0.1"
       id="path176" />
    <path
       d="m 1312.005,102.84102 h -74.52 v 0.385 h 74.52 v -0.385"
       style="fill:#eef9fa;fill-opacity:1;fill-rule:nonzero;stroke:none;stroke-width:0.1"
       id="path178" />
    <path
       d="m 1312.005,100.34102 h -74.52 v 0.385 h 74.52 v -0.385"
       style="fill:#eef9fa;fill-opacity:1;fill-rule:nonzero;stroke:none;stroke-width:0.1"
       id="path180" />
    <path
       d="m 1301.38,109.47602 c -26.795,0 -53.59,-1.869 -80.385,-1.869 0,3.461 0,6.923 0,10.384 26.795,0 53.59,1.87 80.385,1.87 0,-3.462 0,-6.924 0,-10.385"
       style="fill:#a1d9e8;fill-opacity:1;fill-rule:nonzero;stroke:none;stroke-width:0.1"
       id="path182" />
    <path
       d="m 1223.929,116.36402 -0,0.385 c 12.417,0.061 25.043,0.501 37.254,0.927 12.213,0.426 24.842,0.866 37.265,0.927 l 0,-0.384 c -12.417,-0.061 -25.044,-0.502 -37.254,-0.928 -12.213,-0.426 -24.842,-0.866 -37.265,-0.927"
       style="fill:#eef9fa;fill-opacity:1;fill-rule:nonzero;stroke:none;stroke-width:0.1"
       id="path184" />
    <path
       d="m 1223.929,113.86402 -0,0.385 c 12.417,0.061 25.043,0.501 37.254,0.927 12.213,0.426 24.842,0.866 37.265,0.927 l 0,-0.384 c -12.417,-0.061 -25.044,-0.502 -37.254,-0.928 -12.213,-0.426 -24.842,-0.866 -37.265,-0.927"
       style="fill:#eef9fa;fill-opacity:1;fill-rule:nonzero;stroke:none;stroke-width:0.1"
       id="path186" />
    <path
       d="m 1223.929,111.36402 -0,0.385 c 12.417,0.061 25.043,0.501 37.254,0.927 12.213,0.426 24.842,0.866 37.265,0.927 l 0,-0.384 c -12.417,-0.061 -25.044,-0.502 -37.254,-0.928 -12.213,-0.425 -24.842,-0.866 -37.265,-0.927"
       style="fill:#eef9fa;fill-opacity:1;fill-rule:nonzero;stroke:none;stroke-width:0.1"
       id="path188" />
    <path
       d="m 1223.929,108.86402 -0,0.385 c 12.417,0.061 25.043,0.501 37.254,0.927 12.213,0.426 24.842,0.866 37.265,0.927 l 0,-0.384 c -12.417,-0.061 -25.044,-0.502 -37.254,-0.928 -12.213,-0.425 -24.842,-0.866 -37.265,-0.927"
       style="fill:#eef9fa;fill-opacity:1;fill-rule:nonzero;stroke:none;stroke-width:0.1"
       id="path190" />
    <path
       d="m 1274.745,139.18702 15.817,-6.923 h -33.461 c 0,0 -4.231,6.923 -11.539,6.923 h 29.183"
       style="fill:#b3e6eb;fill-opacity:1;fill-rule:nonzero;stroke:none;stroke-width:0.1"
       id="path192" />
    <path
       d="m 1279.024,84.716017 -21.923,-9.2301 h -30.241 l 18.702,9.2301 h 33.462"
       style="fill:#c3eaeb;fill-opacity:1;fill-rule:nonzero;stroke:none;stroke-width:0.1"
       id="path194" />
    <path
       d="m 1306.14,418.27402 c -26.67,-4.671 -54.015,-3.827 -80.346,2.478 0.295,9.579 0.59,19.157 0.886,28.736 26.331,-6.305 53.676,-7.148 80.346,-2.477 -0.295,-9.579 -0.591,-19.158 -0.886,-28.737"
       style="fill:#d7f2f3;fill-opacity:1;fill-rule:nonzero;stroke:none;stroke-width:0.1"
       id="path196" />
    <path
       d="m 1266.642,442.24502 c -13.446,0.415 -26.835,2.208 -40.059,5.374 l 0.09,0.374 c 24.356,-5.832 49.277,-6.996 74.071,-3.459 l 0.054,-0.381 c -11.381,-1.624 -22.789,-2.258 -34.156,-1.908"
       style="fill:#bce7eb;fill-opacity:1;fill-rule:nonzero;stroke:none;stroke-width:0.1"
       id="path198" />
    <path
       d="m 1266.58,439.93402 c -13.44,0.414 -26.829,2.209 -40.068,5.379 l 0.089,0.374 c 25.386,-6.079 51.329,-7.089 77.111,-3.002 l 0.06,-0.38 c -12.386,-1.964 -24.81,-2.753 -37.192,-2.371"
       style="fill:#bce7eb;fill-opacity:1;fill-rule:nonzero;stroke:none;stroke-width:0.1"
       id="path200" />
    <path
       d="m 1266.474,436.47402 c -13.44,0.414 -26.83,2.209 -40.069,5.379 l 0.09,0.374 c 25.385,-6.079 51.329,-7.089 77.11,-3.002 l 0.06,-0.38 c -12.386,-1.963 -24.81,-2.753 -37.191,-2.371"
       style="fill:#bce7eb;fill-opacity:1;fill-rule:nonzero;stroke:none;stroke-width:0.1"
       id="path202" />
    <path
       d="m 1266.367,433.01402 c -13.44,0.415 -26.83,2.209 -40.069,5.379 l 0.09,0.374 c 25.385,-6.079 51.329,-7.088 77.11,-3.002 l 0.06,-0.38 c -12.385,-1.963 -24.81,-2.753 -37.191,-2.371"
       style="fill:#bce7eb;fill-opacity:1;fill-rule:nonzero;stroke:none;stroke-width:0.1"
       id="path204" />
    <path
       d="m 1266.26,429.55402 c -13.44,0.415 -26.829,2.209 -40.068,5.379 l 0.09,0.374 c 25.385,-6.079 51.328,-7.088 77.11,-3.002 l 0.06,-0.38 c -12.386,-1.963 -24.81,-2.752 -37.192,-2.371"
       style="fill:#bce7eb;fill-opacity:1;fill-rule:nonzero;stroke:none;stroke-width:0.1"
       id="path206" />
    <path
       d="m 1266.264,429.55902 c -12.915,0.398 -25.784,2.068 -38.51,5.007 l 0.086,0.374 c 24.402,-5.635 49.332,-6.597 74.095,-2.86 l 0.058,-0.38 c -11.897,-1.796 -23.833,-2.508 -35.729,-2.141"
       style="fill:#bce7eb;fill-opacity:1;fill-rule:nonzero;stroke:none;stroke-width:0.1"
       id="path208" />
    <path
       d="m 1266.205,427.24702 c -12.91,0.398 -25.781,2.07 -38.522,5.012 l 0.086,0.375 c 25.434,-5.873 51.384,-6.673 77.131,-2.379 l 0.064,-0.379 c -12.899,-2.151 -25.849,-3.027 -38.759,-2.629"
       style="fill:#bce7eb;fill-opacity:1;fill-rule:nonzero;stroke:none;stroke-width:0.1"
       id="path210" />
    <path
       d="m 1266.099,423.78702 c -12.911,0.398 -25.782,2.07 -38.523,5.012 l 0.086,0.375 c 25.434,-5.873 51.385,-6.673 77.131,-2.378 l 0.064,-0.38 c -12.899,-2.151 -25.848,-3.027 -38.758,-2.629"
       style="fill:#bce7eb;fill-opacity:1;fill-rule:nonzero;stroke:none;stroke-width:0.1"
       id="path212" />
    <path
       d="m 1265.992,420.32702 c -12.91,0.398 -25.781,2.07 -38.523,5.012 l 0.087,0.375 c 25.433,-5.873 51.384,-6.673 77.131,-2.378 l 0.063,-0.38 c -12.898,-2.151 -25.848,-3.027 -38.758,-2.629"
       style="fill:#bce7eb;fill-opacity:1;fill-rule:nonzero;stroke:none;stroke-width:0.1"
       id="path214" />
    <path
       d="m 1265.885,416.86702 c -12.91,0.399 -25.781,2.07 -38.523,5.012 l 0.087,0.375 c 25.434,-5.873 51.384,-6.673 77.131,-2.378 l 0.064,-0.379 c -12.899,-2.152 -25.849,-3.028 -38.759,-2.63"
       style="fill:#bce7eb;fill-opacity:1;fill-rule:nonzero;stroke:none;stroke-width:0.1"
       id="path216" />
    <path
       d="m 1314.33,446.78602 c -26.67,-4.671 -54.014,-3.828 -80.346,2.477 0.107,3.46 0.213,6.92 0.32,10.38 26.332,-6.306 53.676,-7.149 80.346,-2.478 -0.106,-3.46 -0.213,-6.92 -0.32,-10.379"
       style="fill:#d7f2f3;fill-opacity:1;fill-rule:nonzero;stroke:none;stroke-width:0.1"
       id="path218" />
    <path
       d="m 1274.299,452.63902 c -12.464,0.384 -24.892,1.953 -37.196,4.706 l 0.085,0.375 c 24.56,-5.494 49.614,-6.267 74.466,-2.296 l 0.061,-0.38 c -12.451,-1.989 -24.951,-2.79 -37.416,-2.405"
       style="fill:#eef9fa;fill-opacity:1;fill-rule:nonzero;stroke:none;stroke-width:0.1"
       id="path220" />
    <path
       d="m 1274.222,450.14002 c -12.464,0.384 -24.892,1.954 -37.196,4.706 l 0.085,0.376 c 24.559,-5.495 49.614,-6.267 74.466,-2.296 l 0.06,-0.38 c -12.45,-1.989 -24.951,-2.791 -37.415,-2.406"
       style="fill:#eef9fa;fill-opacity:1;fill-rule:nonzero;stroke:none;stroke-width:0.1"
       id="path222" />
    <path
       d="m 1274.145,447.64102 c -12.464,0.384 -24.892,1.954 -37.196,4.706 l 0.084,0.376 c 24.56,-5.494 49.615,-6.267 74.467,-2.296 l 0.061,-0.38 c -12.451,-1.989 -24.951,-2.79 -37.416,-2.406"
       style="fill:#eef9fa;fill-opacity:1;fill-rule:nonzero;stroke:none;stroke-width:0.1"
       id="path224" />
    <path
       d="m 1274.068,445.14202 c -12.464,0.384 -24.892,1.954 -37.196,4.706 l 0.084,0.376 c 24.56,-5.494 49.615,-6.267 74.467,-2.296 l 0.06,-0.38 c -12.45,-1.989 -24.951,-2.79 -37.415,-2.406"
       style="fill:#eef9fa;fill-opacity:1;fill-rule:nonzero;stroke:none;stroke-width:0.1"
       id="path226" />
    <path
       d="m 1304.174,457.48802 c -26.67,-4.671 -54.014,-3.828 -80.346,2.478 0.107,3.459 0.214,6.919 0.32,10.379 26.332,-6.305 53.676,-7.148 80.347,-2.477 -0.107,-3.46 -0.214,-6.92 -0.321,-10.38"
       style="fill:#a1d9e8;fill-opacity:1;fill-rule:nonzero;stroke:none;stroke-width:0.1"
       id="path228" />
    <path
       d="m 1264.144,463.34102 c -12.465,0.384 -24.892,1.954 -37.196,4.707 l 0.084,0.375 c 24.56,-5.494 49.614,-6.267 74.466,-2.296 l 0.061,-0.38 c -12.45,-1.989 -24.951,-2.79 -37.415,-2.406"
       style="fill:#eef9fa;fill-opacity:1;fill-rule:nonzero;stroke:none;stroke-width:0.1"
       id="path230" />
    <path
       d="m 1264.067,460.84202 c -12.465,0.385 -24.892,1.954 -37.196,4.707 l 0.084,0.375 c 24.56,-5.494 49.614,-6.267 74.466,-2.296 l 0.061,-0.38 c -12.45,-1.989 -24.951,-2.79 -37.415,-2.406"
       style="fill:#eef9fa;fill-opacity:1;fill-rule:nonzero;stroke:none;stroke-width:0.1"
       id="path232" />
    <path
       d="m 1263.99,458.34402 c -12.465,0.384 -24.892,1.954 -37.196,4.706 l 0.084,0.375 c 24.56,-5.494 49.614,-6.266 74.466,-2.295 l 0.061,-0.381 c -12.451,-1.989 -24.951,-2.79 -37.415,-2.405"
       style="fill:#eef9fa;fill-opacity:1;fill-rule:nonzero;stroke:none;stroke-width:0.1"
       id="path234" />
    <path
       d="m 1263.912,455.84502 c -12.464,0.384 -24.891,1.954 -37.195,4.706 l 0.084,0.376 c 24.56,-5.495 49.614,-6.267 74.466,-2.296 l 0.061,-0.38 c -12.451,-1.989 -24.951,-2.791 -37.416,-2.406"
       style="fill:#eef9fa;fill-opacity:1;fill-rule:nonzero;stroke:none;stroke-width:0.1"
       id="path236" />
    <path
       d="m 1282.364,433.38902 c 0,0 -30.403,-0.121 -44.653,-13.005 0,0 -8.973,8.502 -26.645,9.432 0,0 12.095,5.399 29.886,8.313 l 41.412,-4.74"
       style="fill:#c3eaeb;fill-opacity:1;fill-rule:nonzero;stroke:none;stroke-width:0.1"
       id="path238" />
    <path
       d="m 1280.48,459.66202 9.445,-5.679 -37.168,5.091 c 0,0 24.263,0.694 27.723,0.588"
       style="fill:#dbf3f2;fill-opacity:1;fill-rule:nonzero;stroke:none;stroke-width:0.1"
       id="path240" />
    <path
       d="m 1312.126,389.32602 c -26.806,-0.437 -53.618,0.39 -80.347,2.477 0.182,5.895 0.364,11.79 0.546,17.684 26.728,-2.087 53.54,-2.914 80.346,-2.477 -0.182,-5.895 -0.363,-11.789 -0.545,-17.684"
       style="fill:#9adbe0;fill-opacity:1;fill-rule:nonzero;stroke:none;stroke-width:0.1"
       id="path242" />
    <path
       d="m 1272.381,404.03802 c -13.429,0.414 -26.851,1.142 -40.166,2.182 l 0.03,0.384 c 25.559,-1.996 51.518,-2.845 77.154,-2.523 l 0.01,-0.384 c -12.293,-0.155 -24.661,-0.041 -37.023,0.341"
       style="fill:#bce7eb;fill-opacity:1;fill-rule:nonzero;stroke:none;stroke-width:0.1"
       id="path244" />
    <path
       d="m 1272.297,401.73202 c -13.425,0.414 -26.841,1.142 -40.153,2.182 l 0.03,0.383 c 26.612,-2.078 53.638,-2.912 80.328,-2.477 l 0.01,-0.384 c -13.351,-0.218 -26.786,-0.118 -40.211,0.296"
       style="fill:#bce7eb;fill-opacity:1;fill-rule:nonzero;stroke:none;stroke-width:0.1"
       id="path246" />
    <path
       d="m 1272.19,398.27202 c -13.425,0.414 -26.841,1.142 -40.153,2.182 l 0.03,0.383 c 26.612,-2.078 53.638,-2.912 80.328,-2.476 l 0.01,-0.385 c -13.351,-0.218 -26.787,-0.118 -40.212,0.296"
       style="fill:#bce7eb;fill-opacity:1;fill-rule:nonzero;stroke:none;stroke-width:0.1"
       id="path248" />
    <path
       d="m 1272.084,394.81202 c -13.426,0.414 -26.841,1.142 -40.154,2.182 l 0.03,0.383 c 26.613,-2.078 53.639,-2.912 80.329,-2.476 l 0.01,-0.385 c -13.351,-0.218 -26.786,-0.118 -40.211,0.296"
       style="fill:#bce7eb;fill-opacity:1;fill-rule:nonzero;stroke:none;stroke-width:0.1"
       id="path250" />
    <path
       d="m 1271.977,391.35202 c -13.426,0.414 -26.841,1.142 -40.153,2.182 l 0.03,0.383 c 26.612,-2.078 53.638,-2.912 80.328,-2.476 l 0.01,-0.385 c -13.351,-0.217 -26.786,-0.118 -40.211,0.296"
       style="fill:#bce7eb;fill-opacity:1;fill-rule:nonzero;stroke:none;stroke-width:0.1"
       id="path252" />
    <path
       d="m 1310.277,329.35502 -80.347,2.477 0.886,28.736 80.347,-2.477 -0.886,-28.736"
       style="fill:#d7f2f3;fill-opacity:1;fill-rule:nonzero;stroke:none;stroke-width:0.1"
       id="path254" />
    <path
       d="m 1304.887,356.40902 -74.129,2.285 0.012,0.385 74.129,-2.286 -0.012,-0.384"
       style="fill:#bce7eb;fill-opacity:1;fill-rule:nonzero;stroke:none;stroke-width:0.1"
       id="path256" />
    <path
       d="m 1307.862,354.00802 -77.175,2.38 0.012,0.384 77.175,-2.379 -0.012,-0.385"
       style="fill:#bce7eb;fill-opacity:1;fill-rule:nonzero;stroke:none;stroke-width:0.1"
       id="path258" />
    <path
       d="m 1307.756,350.54802 -77.175,2.38 0.012,0.384 77.174,-2.379 -0.011,-0.385"
       style="fill:#bce7eb;fill-opacity:1;fill-rule:nonzero;stroke:none;stroke-width:0.1"
       id="path260" />
    <path
       d="m 1307.649,347.08802 -77.175,2.38 0.012,0.384 77.175,-2.379 -0.012,-0.385"
       style="fill:#bce7eb;fill-opacity:1;fill-rule:nonzero;stroke:none;stroke-width:0.1"
       id="path262" />
    <path
       d="m 1307.542,343.62802 -77.175,2.38 0.012,0.385 77.175,-2.38 -0.012,-0.385"
       style="fill:#bce7eb;fill-opacity:1;fill-rule:nonzero;stroke:none;stroke-width:0.1"
       id="path264" />
    <path
       d="m 1306.082,343.67302 -74.129,2.286 0.012,0.385 74.128,-2.286 -0.011,-0.385"
       style="fill:#bce7eb;fill-opacity:1;fill-rule:nonzero;stroke:none;stroke-width:0.1"
       id="path266" />
    <path
       d="m 1309.057,341.27302 -77.175,2.38 0.012,0.384 77.175,-2.379 -0.012,-0.385"
       style="fill:#bce7eb;fill-opacity:1;fill-rule:nonzero;stroke:none;stroke-width:0.1"
       id="path268" />
    <path
       d="m 1308.95,337.81302 -77.175,2.38 0.012,0.384 77.175,-2.379 -0.012,-0.385"
       style="fill:#bce7eb;fill-opacity:1;fill-rule:nonzero;stroke:none;stroke-width:0.1"
       id="path270" />
    <path
       d="m 1308.843,334.35302 -77.174,2.38 0.012,0.384 77.174,-2.379 -0.012,-0.385"
       style="fill:#bce7eb;fill-opacity:1;fill-rule:nonzero;stroke:none;stroke-width:0.1"
       id="path272" />
    <path
       d="m 1308.737,330.89302 -77.175,2.38 0.012,0.384 77.175,-2.379 -0.012,-0.385"
       style="fill:#bce7eb;fill-opacity:1;fill-rule:nonzero;stroke:none;stroke-width:0.1"
       id="path274" />
    <path
       d="m 1312.671,407.01002 c -26.699,3.525 -53.647,-1.047 -80.346,2.478 0.106,3.459 0.213,6.919 0.32,10.379 26.699,-3.524 53.647,1.047 80.346,-2.477 -0.107,-3.46 -0.213,-6.92 -0.32,-10.38"
       style="fill:#b3e6eb;fill-opacity:1;fill-rule:nonzero;stroke:none;stroke-width:0.1"
       id="path276" />
    <path
       d="m 1249.504,415.68402 c -4.773,0.147 -9.544,0.442 -14.28,0.973 l 0.043,0.383 c 12.45,-1.399 25.166,-1.15 37.464,-0.91 12.152,0.237 24.719,0.482 37.035,-0.86 l -0.041,-0.382 c -12.293,1.339 -24.846,1.094 -36.987,0.857 -7.636,-0.149 -15.436,-0.301 -23.234,-0.061"
       style="fill:#eef9fa;fill-opacity:1;fill-rule:nonzero;stroke:none;stroke-width:0.1"
       id="path278" />
    <path
       d="m 1249.426,413.18502 c -4.772,0.148 -9.543,0.442 -14.279,0.974 l 0.043,0.382 c 12.45,-1.399 25.166,-1.15 37.464,-0.91 12.152,0.237 24.719,0.482 37.035,-0.859 l -0.042,-0.383 c -12.292,1.34 -24.845,1.094 -36.986,0.857 -7.636,-0.149 -15.436,-0.301 -23.235,-0.061"
       style="fill:#eef9fa;fill-opacity:1;fill-rule:nonzero;stroke:none;stroke-width:0.1"
       id="path280" />
    <path
       d="m 1249.35,410.68702 c -4.773,0.147 -9.544,0.441 -14.28,0.973 l 0.043,0.382 c 12.45,-1.399 25.166,-1.15 37.464,-0.91 12.152,0.237 24.719,0.482 37.035,-0.859 l -0.042,-0.383 c -12.292,1.34 -24.845,1.094 -36.986,0.857 -7.636,-0.149 -15.436,-0.301 -23.234,-0.06"
       style="fill:#eef9fa;fill-opacity:1;fill-rule:nonzero;stroke:none;stroke-width:0.1"
       id="path282" />
    <path
       d="m 1249.272,408.18802 c -4.772,0.147 -9.543,0.441 -14.279,0.973 l 0.043,0.382 c 12.45,-1.398 25.166,-1.15 37.464,-0.91 12.152,0.237 24.719,0.482 37.035,-0.859 l -0.042,-0.382 c -12.292,1.339 -24.845,1.094 -36.986,0.857 -7.637,-0.149 -15.436,-0.302 -23.235,-0.061"
       style="fill:#eef9fa;fill-opacity:1;fill-rule:nonzero;stroke:none;stroke-width:0.1"
       id="path284" />
    <path
       d="m 1319.599,378.71802 c -27.132,-0.443 -54.27,0.394 -81.324,2.507 0.27,3.451 0.539,6.902 0.809,10.353 26.728,-2.087 53.54,-2.914 80.346,-2.477 0.056,-3.461 0.113,-6.922 0.169,-10.383"
       style="fill:#d7f2f3;fill-opacity:1;fill-rule:nonzero;stroke:none;stroke-width:0.1"
       id="path286" />
    <path
       d="m 1241.902,389.91702 c 24.825,-1.854 49.72,-2.621 74.612,-2.301"
       style="fill:#a1d9e8;fill-opacity:1;fill-rule:nonzero;stroke:none;stroke-width:0.1"
       id="path288" />
    <path
       d="m 1279.177,387.76202 c -12.467,0.385 -24.926,1.04 -37.289,1.963 l 0.028,0.383 c 24.716,-1.845 49.814,-2.619 74.596,-2.3 l 0.01,-0.384 c -12.397,-0.16 -24.873,-0.046 -37.34,0.338"
       style="fill:#b2e1ec;fill-opacity:1;fill-rule:nonzero;stroke:none;stroke-width:0.1"
       id="path290" />
    <path
       d="m 1241.716,387.42302 c 24.898,-1.858 49.865,-2.628 74.831,-2.307"
       style="fill:#a1d9e8;fill-opacity:1;fill-rule:nonzero;stroke:none;stroke-width:0.1"
       id="path292" />
    <path
       d="m 1279.1,385.26402 c -12.503,0.385 -24.999,1.042 -37.399,1.968 l 0.029,0.383 c 24.788,-1.85 49.959,-2.626 74.814,-2.306 l 0,-0.385 c -12.433,-0.16 -24.945,-0.046 -37.449,0.34"
       style="fill:#b2e1ec;fill-opacity:1;fill-rule:nonzero;stroke:none;stroke-width:0.1"
       id="path294" />
    <path
       d="m 1241.53,384.93002 c 24.971,-1.864 50.011,-2.636 75.049,-2.314"
       style="fill:#a1d9e8;fill-opacity:1;fill-rule:nonzero;stroke:none;stroke-width:0.1"
       id="path296" />
    <path
       d="m 1279.023,382.76502 c -12.54,0.387 -25.072,1.046 -37.508,1.974 l 0.029,0.383 c 24.86,-1.855 50.105,-2.634 75.032,-2.313 l 0,-0.385 c -12.469,-0.16 -25.018,-0.046 -37.558,0.341"
       style="fill:#b2e1ec;fill-opacity:1;fill-rule:nonzero;stroke:none;stroke-width:0.1"
       id="path298" />
    <path
       d="m 1241.344,382.43702 c 25.043,-1.869 50.156,-2.643 75.267,-2.32"
       style="fill:#a1d9e8;fill-opacity:1;fill-rule:nonzero;stroke:none;stroke-width:0.1"
       id="path300" />
    <path
       d="m 1278.946,380.26602 c -12.576,0.388 -25.145,1.049 -37.617,1.98 l 0.029,0.383 c 24.933,-1.861 50.25,-2.642 75.25,-2.32 l 0.01,-0.385 c -12.505,-0.16 -25.09,-0.046 -37.667,0.342"
       style="fill:#b2e1ec;fill-opacity:1;fill-rule:nonzero;stroke:none;stroke-width:0.1"
       id="path302" />
    <path
       d="m 1321.542,357.77102 -80.346,2.477 0.32,10.38 80.346,-2.477 -0.32,-10.38"
       style="fill:#d7f2f3;fill-opacity:1;fill-rule:nonzero;stroke:none;stroke-width:0.1"
       id="path304" />
    <path
       d="m 1318.881,366.60702 -74.484,2.297 0.012,0.384 74.483,-2.296 -0.011,-0.385"
       style="fill:#eef9fa;fill-opacity:1;fill-rule:nonzero;stroke:none;stroke-width:0.1"
       id="path306" />
    <path
       d="m 1318.804,364.10902 -74.484,2.296 0.012,0.384 74.484,-2.296 -0.012,-0.384"
       style="fill:#eef9fa;fill-opacity:1;fill-rule:nonzero;stroke:none;stroke-width:0.1"
       id="path308" />
    <path
       d="m 1318.727,361.61002 -74.484,2.296 0.012,0.385 74.483,-2.297 -0.011,-0.384"
       style="fill:#eef9fa;fill-opacity:1;fill-rule:nonzero;stroke:none;stroke-width:0.1"
       id="path310" />
    <path
       d="m 1318.649,359.11102 -74.483,2.296 0.012,0.385 74.483,-2.297 -0.012,-0.384"
       style="fill:#eef9fa;fill-opacity:1;fill-rule:nonzero;stroke:none;stroke-width:0.1"
       id="path312" />
    <path
       d="m 1308.311,368.56902 c -26.782,0.825 -53.622,-0.217 -80.404,0.609 0.107,3.459 0.214,6.919 0.32,10.379 26.782,-0.826 53.622,0.217 80.404,-0.609 -0.107,-3.46 -0.213,-6.919 -0.32,-10.379"
       style="fill:#a1d9e8;fill-opacity:1;fill-rule:nonzero;stroke:none;stroke-width:0.1"
       id="path314" />
    <path
       d="m 1231.109,377.84002 0.01,0.385 c 12.413,-0.322 25.047,-0.271 37.265,-0.222 12.221,0.05 24.857,0.101 37.276,-0.221 l -0.01,-0.385 c -12.413,0.322 -25.047,0.271 -37.264,0.222 -12.221,-0.049 -24.858,-0.101 -37.277,0.221"
       style="fill:#eef9fa;fill-opacity:1;fill-rule:nonzero;stroke:none;stroke-width:0.1"
       id="path316" />
    <path
       d="m 1231.032,375.34202 0.01,0.384 c 12.413,-0.322 25.047,-0.271 37.265,-0.221 12.221,0.049 24.857,0.1 37.276,-0.222 l -0.01,-0.384 c -12.413,0.322 -25.047,0.27 -37.265,0.221 -12.22,-0.049 -24.857,-0.1 -37.276,0.222"
       style="fill:#eef9fa;fill-opacity:1;fill-rule:nonzero;stroke:none;stroke-width:0.1"
       id="path318" />
    <path
       d="m 1230.955,372.84302 0.01,0.384 c 12.413,-0.322 25.047,-0.271 37.265,-0.221 12.22,0.049 24.857,0.1 37.276,-0.222 l -0.01,-0.384 c -12.413,0.322 -25.047,0.271 -37.265,0.221 -12.22,-0.049 -24.857,-0.1 -37.276,0.222"
       style="fill:#eef9fa;fill-opacity:1;fill-rule:nonzero;stroke:none;stroke-width:0.1"
       id="path320" />
    <path
       d="m 1230.878,370.34402 0.01,0.385 c 12.413,-0.323 25.047,-0.271 37.265,-0.222 12.22,0.049 24.857,0.101 37.276,-0.222 l -0.01,-0.384 c -12.413,0.322 -25.047,0.271 -37.265,0.221 -12.22,-0.049 -24.857,-0.1 -37.276,0.222"
       style="fill:#eef9fa;fill-opacity:1;fill-rule:nonzero;stroke:none;stroke-width:0.1"
       id="path322" />
    <path
       d="m 1282.605,399.08702 15.596,-7.407 -33.445,1.031 c 0,0 -4.016,7.05 -11.32,7.275 l 29.169,-0.899"
       style="fill:#b3e6eb;fill-opacity:1;fill-rule:nonzero;stroke:none;stroke-width:0.1"
       id="path324" />
    <path
       d="m 1285.203,344.51002 -22.197,-8.551 -30.226,0.932 18.977,8.65 33.446,-1.031"
       style="fill:#c3eaeb;fill-opacity:1;fill-rule:nonzero;stroke:none;stroke-width:0.1"
       id="path326" />
    <path
       d="m 1228.066,186.58802 c 26.728,-2.087 53.54,-2.914 80.346,-2.477 -0.182,-5.895 -0.363,-11.789 -0.545,-17.684 -26.806,-0.437 -53.618,0.39 -80.347,2.478 0.182,5.894 0.364,11.789 0.546,17.683"
       style="fill:#9adbe0;fill-opacity:1;fill-rule:nonzero;stroke:none;stroke-width:0.1"
       id="path328" />
    <path
       d="m 1267.74,169.60702 c -12.363,0.381 -24.712,1.028 -36.973,1.94 l 0.028,0.384 c 25.568,-1.902 51.529,-2.654 77.164,-2.236 l 0.01,-0.385 c -13.352,-0.217 -26.797,-0.117 -40.225,0.297"
       style="fill:#bce7eb;fill-opacity:1;fill-rule:nonzero;stroke:none;stroke-width:0.1"
       id="path330" />
    <path
       d="m 1267.825,171.91302 c -13.426,0.414 -26.842,1.142 -40.154,2.182 l 0.03,0.383 c 26.613,-2.078 53.639,-2.912 80.329,-2.476 l 0.01,-0.385 c -13.351,-0.218 -26.786,-0.118 -40.211,0.296"
       style="fill:#bce7eb;fill-opacity:1;fill-rule:nonzero;stroke:none;stroke-width:0.1"
       id="path332" />
    <path
       d="m 1267.931,175.37302 c -13.425,0.414 -26.841,1.142 -40.153,2.182 l 0.03,0.383 c 26.612,-2.078 53.638,-2.912 80.328,-2.477 l 0.01,-0.384 c -13.35,-0.218 -26.785,-0.118 -40.211,0.296"
       style="fill:#bce7eb;fill-opacity:1;fill-rule:nonzero;stroke:none;stroke-width:0.1"
       id="path334" />
    <path
       d="m 1268.038,178.83302 c -13.425,0.414 -26.841,1.142 -40.153,2.182 l 0.03,0.383 c 26.612,-2.079 53.638,-2.912 80.328,-2.477 l 0.01,-0.384 c -13.351,-0.218 -26.786,-0.118 -40.211,0.296"
       style="fill:#bce7eb;fill-opacity:1;fill-rule:nonzero;stroke:none;stroke-width:0.1"
       id="path336" />
    <path
       d="m 1268.145,182.29302 c -13.426,0.414 -26.842,1.142 -40.154,2.181 l 0.03,0.384 c 26.613,-2.079 53.639,-2.912 80.329,-2.477 l 0.01,-0.384 c -13.351,-0.218 -26.786,-0.118 -40.211,0.296"
       style="fill:#bce7eb;fill-opacity:1;fill-rule:nonzero;stroke:none;stroke-width:0.1"
       id="path338" />
    <path
       d="m 1229.915,246.56002 80.346,-2.477 -0.886,-28.737 -80.346,2.478 0.886,28.736"
       style="fill:#d7f2f3;fill-opacity:1;fill-rule:nonzero;stroke:none;stroke-width:0.1"
       id="path340" />
    <path
       d="m 1309.421,216.83602 -74.128,2.285 0.011,0.385 74.129,-2.286 -0.012,-0.384"
       style="fill:#bce7eb;fill-opacity:1;fill-rule:nonzero;stroke:none;stroke-width:0.1"
       id="path342" />
    <path
       d="m 1309.492,219.14302 -77.175,2.379 0.012,0.384 77.175,-2.379 -0.012,-0.384"
       style="fill:#bce7eb;fill-opacity:1;fill-rule:nonzero;stroke:none;stroke-width:0.1"
       id="path344" />
    <path
       d="m 1309.599,222.60302 -77.175,2.379 0.012,0.384 77.175,-2.379 -0.012,-0.384"
       style="fill:#bce7eb;fill-opacity:1;fill-rule:nonzero;stroke:none;stroke-width:0.1"
       id="path346" />
    <path
       d="m 1309.705,226.06202 -77.174,2.38 0.012,0.384 77.174,-2.379 -0.012,-0.385"
       style="fill:#bce7eb;fill-opacity:1;fill-rule:nonzero;stroke:none;stroke-width:0.1"
       id="path348" />
    <path
       d="m 1309.812,229.52202 -77.175,2.38 0.012,0.384 77.175,-2.379 -0.012,-0.385"
       style="fill:#bce7eb;fill-opacity:1;fill-rule:nonzero;stroke:none;stroke-width:0.1"
       id="path350" />
    <path
       d="m 1308.226,229.57102 -74.128,2.286 0.012,0.384 74.128,-2.285 -0.012,-0.385"
       style="fill:#bce7eb;fill-opacity:1;fill-rule:nonzero;stroke:none;stroke-width:0.1"
       id="path352" />
    <path
       d="m 1308.298,231.87802 -77.175,2.379 0.012,0.385 77.174,-2.38 -0.011,-0.384"
       style="fill:#bce7eb;fill-opacity:1;fill-rule:nonzero;stroke:none;stroke-width:0.1"
       id="path354" />
    <path
       d="m 1308.404,235.33802 -77.175,2.379 0.012,0.385 77.175,-2.38 -0.012,-0.384"
       style="fill:#bce7eb;fill-opacity:1;fill-rule:nonzero;stroke:none;stroke-width:0.1"
       id="path356" />
    <path
       d="m 1308.511,238.79702 -77.175,2.38 0.012,0.384 77.175,-2.379 -0.012,-0.385"
       style="fill:#bce7eb;fill-opacity:1;fill-rule:nonzero;stroke:none;stroke-width:0.1"
       id="path358" />
    <path
       d="m 1308.618,242.25702 -77.175,2.38 0.012,0.384 77.174,-2.379 -0.011,-0.385"
       style="fill:#bce7eb;fill-opacity:1;fill-rule:nonzero;stroke:none;stroke-width:0.1"
       id="path360" />
    <path
       d="m 1227.52,168.90502 c 26.699,-3.525 53.648,1.047 80.347,-2.478 -0.107,-3.46 -0.214,-6.919 -0.32,-10.379 -26.699,3.524 -53.648,-1.048 -80.347,2.477 0.107,3.46 0.214,6.92 0.32,10.38"
       style="fill:#b3e6eb;fill-opacity:1;fill-rule:nonzero;stroke:none;stroke-width:0.1"
       id="path362" />
    <path
       d="m 1244.223,159.72402 c -4.612,0.142 -9.221,0.422 -13.798,0.92 l 0.042,0.383 c 12.293,-1.34 24.846,-1.094 36.986,-0.857 12.31,0.24 25.04,0.488 37.515,-0.913 l -0.043,-0.382 c -12.45,1.399 -25.167,1.15 -37.464,0.91 -7.637,-0.149 -15.439,-0.301 -23.238,-0.061"
       style="fill:#eef9fa;fill-opacity:1;fill-rule:nonzero;stroke:none;stroke-width:0.1"
       id="path364" />
    <path
       d="m 1244.3,162.22302 c -4.612,0.142 -9.221,0.422 -13.798,0.92 l 0.042,0.382 c 12.293,-1.339 24.846,-1.094 36.986,-0.857 12.31,0.241 25.04,0.489 37.515,-0.912 l -0.043,-0.382 c -12.45,1.398 -25.167,1.15 -37.464,0.91 -7.637,-0.149 -15.439,-0.301 -23.238,-0.061"
       style="fill:#eef9fa;fill-opacity:1;fill-rule:nonzero;stroke:none;stroke-width:0.1"
       id="path366" />
    <path
       d="m 1244.377,164.72202 c -4.611,0.142 -9.221,0.421 -13.797,0.92 l 0.041,0.382 c 12.293,-1.339 24.846,-1.093 36.986,-0.857 12.31,0.24 25.04,0.488 37.515,-0.912 l -0.043,-0.382 c -12.45,1.398 -25.167,1.15 -37.464,0.91 -7.637,-0.149 -15.439,-0.302 -23.238,-0.061"
       style="fill:#eef9fa;fill-opacity:1;fill-rule:nonzero;stroke:none;stroke-width:0.1"
       id="path368" />
    <path
       d="m 1244.454,167.22102 c -4.611,0.142 -9.221,0.421 -13.797,0.92 l 0.041,0.382 c 12.293,-1.339 24.846,-1.094 36.986,-0.857 12.31,0.24 25.04,0.488 37.515,-0.912 l -0.043,-0.383 c -12.45,1.399 -25.167,1.151 -37.464,0.91 -7.637,-0.149 -15.439,-0.301 -23.238,-0.06"
       style="fill:#eef9fa;fill-opacity:1;fill-rule:nonzero;stroke:none;stroke-width:0.1"
       id="path370" />
    <path
       d="m 1221.082,197.19302 c 26.728,-2.087 53.54,-2.914 80.346,-2.477 0.056,-3.461 0.113,-6.922 0.169,-10.383 -27.132,-0.442 -54.271,0.394 -81.324,2.507 0.269,3.451 0.539,6.902 0.809,10.353"
       style="fill:#d7f2f3;fill-opacity:1;fill-rule:nonzero;stroke:none;stroke-width:0.1"
       id="path372" />
    <path
       d="m 1298.609,185.73202 c -25.111,-0.323 -50.224,0.451 -75.267,2.32"
       style="fill:#a1d9e8;fill-opacity:1;fill-rule:nonzero;stroke:none;stroke-width:0.1"
       id="path374" />
    <path
       d="m 1260.944,185.88102 c -12.576,0.388 -25.145,1.049 -37.617,1.98 l 0.029,0.383 c 24.933,-1.861 50.25,-2.642 75.25,-2.32 l 0.01,-0.385 c -12.505,-0.16 -25.09,-0.046 -37.667,0.342"
       style="fill:#b2e1ec;fill-opacity:1;fill-rule:nonzero;stroke:none;stroke-width:0.1"
       id="path376" />
    <path
       d="m 1298.577,188.23202 c -25.038,-0.323 -50.079,0.449 -75.049,2.314"
       style="fill:#a1d9e8;fill-opacity:1;fill-rule:nonzero;stroke:none;stroke-width:0.1"
       id="path378" />
    <path
       d="m 1261.021,188.38002 c -12.54,0.387 -25.072,1.046 -37.508,1.974 l 0.029,0.383 c 24.86,-1.855 50.105,-2.634 75.032,-2.313 l 0,-0.385 c -12.469,-0.16 -25.018,-0.046 -37.558,0.341"
       style="fill:#b2e1ec;fill-opacity:1;fill-rule:nonzero;stroke:none;stroke-width:0.1"
       id="path380" />
    <path
       d="m 1298.545,190.73102 c -24.966,-0.321 -49.933,0.449 -74.831,2.308"
       style="fill:#a1d9e8;fill-opacity:1;fill-rule:nonzero;stroke:none;stroke-width:0.1"
       id="path382" />
    <path
       d="m 1261.098,190.87902 c -12.504,0.385 -24.999,1.042 -37.398,1.968 l 0.028,0.383 c 24.788,-1.85 49.959,-2.626 74.814,-2.306 l 0.01,-0.385 c -12.433,-0.16 -24.945,-0.046 -37.449,0.34"
       style="fill:#b2e1ec;fill-opacity:1;fill-rule:nonzero;stroke:none;stroke-width:0.1"
       id="path384" />
    <path
       d="m 1298.512,193.23102 c -24.892,-0.32 -49.787,0.447 -74.612,2.3"
       style="fill:#a1d9e8;fill-opacity:1;fill-rule:nonzero;stroke:none;stroke-width:0.1"
       id="path386" />
    <path
       d="m 1261.175,193.37702 c -12.467,0.385 -24.926,1.04 -37.289,1.963 l 0.028,0.383 c 24.716,-1.845 49.814,-2.619 74.596,-2.3 l 0.01,-0.384 c -12.397,-0.16 -24.873,-0.046 -37.34,0.338"
       style="fill:#b2e1ec;fill-opacity:1;fill-rule:nonzero;stroke:none;stroke-width:0.1"
       id="path388" />
    <path
       d="m 1218.649,218.14402 80.346,-2.478 -0.32,-10.379 -80.346,2.477 0.32,10.38"
       style="fill:#d7f2f3;fill-opacity:1;fill-rule:nonzero;stroke:none;stroke-width:0.1"
       id="path390" />
    <path
       d="m 1295.783,206.62602 -74.484,2.297 0.012,0.384 74.484,-2.296 -0.012,-0.385"
       style="fill:#eef9fa;fill-opacity:1;fill-rule:nonzero;stroke:none;stroke-width:0.1"
       id="path392" />
    <path
       d="m 1295.86,209.12502 -74.484,2.297 0.012,0.384 74.484,-2.296 -0.012,-0.385"
       style="fill:#eef9fa;fill-opacity:1;fill-rule:nonzero;stroke:none;stroke-width:0.1"
       id="path394" />
    <path
       d="m 1295.937,211.62402 -74.484,2.297 0.012,0.384 74.484,-2.297 -0.012,-0.384"
       style="fill:#eef9fa;fill-opacity:1;fill-rule:nonzero;stroke:none;stroke-width:0.1"
       id="path396" />
    <path
       d="m 1296.014,214.12302 -74.484,2.296 0.012,0.385 74.484,-2.297 -0.012,-0.384"
       style="fill:#eef9fa;fill-opacity:1;fill-rule:nonzero;stroke:none;stroke-width:0.1"
       id="path398" />
    <path
       d="m 1231.823,205.47802 c 26.782,-0.826 53.622,0.217 80.404,-0.609 -0.107,-3.46 -0.214,-6.92 -0.32,-10.38 -26.783,0.826 -53.622,-0.217 -80.404,0.609 0.106,3.46 0.213,6.92 0.32,10.38"
       style="fill:#a1d9e8;fill-opacity:1;fill-rule:nonzero;stroke:none;stroke-width:0.1"
       id="path400" />
    <path
       d="m 1234.474,196.26402 0.01,0.385 c 12.412,-0.322 25.045,-0.271 37.262,-0.222 12.221,0.05 24.859,0.101 37.279,-0.221 l -0.01,-0.384 c -12.414,0.321 -25.049,0.27 -37.267,0.221 -12.22,-0.049 -24.856,-0.1 -37.274,0.221"
       style="fill:#eef9fa;fill-opacity:1;fill-rule:nonzero;stroke:none;stroke-width:0.1"
       id="path402" />
    <path
       d="m 1234.551,198.76302 0.01,0.385 c 12.412,-0.322 25.045,-0.271 37.262,-0.222 12.222,0.05 24.859,0.101 37.279,-0.221 l -0.01,-0.385 c -12.414,0.322 -25.049,0.271 -37.267,0.222 -12.22,-0.05 -24.856,-0.101 -37.274,0.221"
       style="fill:#eef9fa;fill-opacity:1;fill-rule:nonzero;stroke:none;stroke-width:0.1"
       id="path404" />
    <path
       d="m 1234.628,201.26202 0.01,0.384 c 12.412,-0.321 25.045,-0.27 37.262,-0.221 12.222,0.05 24.859,0.101 37.279,-0.221 l -0.01,-0.385 c -12.414,0.322 -25.049,0.271 -37.267,0.222 -12.22,-0.05 -24.856,-0.101 -37.274,0.221"
       style="fill:#eef9fa;fill-opacity:1;fill-rule:nonzero;stroke:none;stroke-width:0.1"
       id="path406" />
    <path
       d="m 1234.705,203.76102 0.01,0.384 c 12.412,-0.322 25.045,-0.27 37.262,-0.221 12.222,0.049 24.859,0.101 37.279,-0.222 l -0.01,-0.384 c -12.414,0.322 -25.049,0.271 -37.267,0.221 -12.22,-0.049 -24.856,-0.1 -37.274,0.222"
       style="fill:#eef9fa;fill-opacity:1;fill-rule:nonzero;stroke:none;stroke-width:0.1"
       id="path408" />
    <path
       d="m 1257.587,176.82802 -15.597,7.407 33.446,-1.031 c 0,0 4.015,-7.05 11.319,-7.276 l -29.168,0.9"
       style="fill:#b3e6eb;fill-opacity:1;fill-rule:nonzero;stroke:none;stroke-width:0.1"
       id="path410" />
    <path
       d="m 1254.988,231.40502 22.198,8.551 30.226,-0.932 -18.978,-8.65 -33.446,1.031"
       style="fill:#c3eaeb;fill-opacity:1;fill-rule:nonzero;stroke:none;stroke-width:0.1"
       id="path412" />
    <path
       d="m 1301.81,303.84202 c -26.806,-0.436 -53.618,0.39 -80.346,2.478 0.182,5.894 0.364,11.789 0.545,17.684 26.729,-2.088 53.54,-2.915 80.347,-2.478 -0.182,-5.894 -0.364,-11.789 -0.546,-17.684"
       style="fill:#9adbe0;fill-opacity:1;fill-rule:nonzero;stroke:none;stroke-width:0.1"
       id="path414" />
    <path
       d="m 1262.066,318.55402 c -13.429,0.414 -26.852,1.143 -40.166,2.183 l 0.029,0.383 c 25.56,-1.996 51.518,-2.845 77.155,-2.523 l 0,-0.384 c -12.293,-0.155 -24.661,-0.04 -37.023,0.341"
       style="fill:#bce7eb;fill-opacity:1;fill-rule:nonzero;stroke:none;stroke-width:0.1"
       id="path416" />
    <path
       d="m 1261.981,316.24802 c -13.425,0.414 -26.841,1.142 -40.153,2.182 l 0.03,0.383 c 26.613,-2.078 53.639,-2.912 80.329,-2.476 l 0.01,-0.385 c -13.351,-0.218 -26.786,-0.118 -40.212,0.296"
       style="fill:#bce7eb;fill-opacity:1;fill-rule:nonzero;stroke:none;stroke-width:0.1"
       id="path418" />
    <path
       d="m 1261.875,312.78802 c -13.425,0.414 -26.841,1.142 -40.153,2.182 l 0.03,0.383 c 26.612,-2.078 53.638,-2.911 80.328,-2.476 l 0.01,-0.385 c -13.351,-0.217 -26.786,-0.118 -40.211,0.296"
       style="fill:#bce7eb;fill-opacity:1;fill-rule:nonzero;stroke:none;stroke-width:0.1"
       id="path420" />
    <path
       d="m 1261.768,309.32802 c -13.425,0.414 -26.841,1.142 -40.153,2.182 l 0.03,0.384 c 26.612,-2.079 53.638,-2.912 80.328,-2.477 l 0.01,-0.385 c -13.351,-0.217 -26.787,-0.118 -40.212,0.296"
       style="fill:#bce7eb;fill-opacity:1;fill-rule:nonzero;stroke:none;stroke-width:0.1"
       id="path422" />
    <path
       d="m 1261.662,305.86802 c -13.426,0.414 -26.842,1.142 -40.154,2.182 l 0.03,0.384 c 26.613,-2.079 53.639,-2.912 80.329,-2.477 l 0.01,-0.385 c -13.351,-0.217 -26.786,-0.118 -40.211,0.296"
       style="fill:#bce7eb;fill-opacity:1;fill-rule:nonzero;stroke:none;stroke-width:0.1"
       id="path424" />
    <path
       d="m 1299.961,243.87102 -80.346,2.477 0.886,28.737 80.346,-2.478 -0.886,-28.736"
       style="fill:#d7f2f3;fill-opacity:1;fill-rule:nonzero;stroke:none;stroke-width:0.1"
       id="path426" />
    <path
       d="m 1294.572,270.92502 -74.129,2.286 0.012,0.384 74.129,-2.286 -0.012,-0.384"
       style="fill:#bce7eb;fill-opacity:1;fill-rule:nonzero;stroke:none;stroke-width:0.1"
       id="path428" />
    <path
       d="m 1297.547,268.52502 -77.175,2.379 0.012,0.385 77.175,-2.38 -0.012,-0.384"
       style="fill:#bce7eb;fill-opacity:1;fill-rule:nonzero;stroke:none;stroke-width:0.1"
       id="path430" />
    <path
       d="m 1297.44,265.06502 -77.175,2.379 0.012,0.385 77.175,-2.38 -0.012,-0.384"
       style="fill:#bce7eb;fill-opacity:1;fill-rule:nonzero;stroke:none;stroke-width:0.1"
       id="path432" />
    <path
       d="m 1297.334,261.60502 -77.175,2.379 0.012,0.385 77.174,-2.38 -0.011,-0.384"
       style="fill:#bce7eb;fill-opacity:1;fill-rule:nonzero;stroke:none;stroke-width:0.1"
       id="path434" />
    <path
       d="m 1297.227,258.14502 -77.175,2.379 0.012,0.385 77.175,-2.38 -0.012,-0.384"
       style="fill:#bce7eb;fill-opacity:1;fill-rule:nonzero;stroke:none;stroke-width:0.1"
       id="path436" />
    <path
       d="m 1295.766,258.19002 -74.128,2.285 0.012,0.385 74.128,-2.286 -0.012,-0.384"
       style="fill:#bce7eb;fill-opacity:1;fill-rule:nonzero;stroke:none;stroke-width:0.1"
       id="path438" />
    <path
       d="m 1298.741,255.78902 -77.174,2.38 0.012,0.384 77.174,-2.379 -0.012,-0.385"
       style="fill:#bce7eb;fill-opacity:1;fill-rule:nonzero;stroke:none;stroke-width:0.1"
       id="path440" />
    <path
       d="m 1298.635,252.32902 -77.175,2.38 0.012,0.384 77.175,-2.379 -0.012,-0.385"
       style="fill:#bce7eb;fill-opacity:1;fill-rule:nonzero;stroke:none;stroke-width:0.1"
       id="path442" />
    <path
       d="m 1298.528,248.87002 -77.175,2.379 0.012,0.384 77.175,-2.379 -0.012,-0.384"
       style="fill:#bce7eb;fill-opacity:1;fill-rule:nonzero;stroke:none;stroke-width:0.1"
       id="path444" />
    <path
       d="m 1298.421,245.41002 -77.174,2.379 0.011,0.385 77.175,-2.38 -0.012,-0.384"
       style="fill:#bce7eb;fill-opacity:1;fill-rule:nonzero;stroke:none;stroke-width:0.1"
       id="path446" />
    <path
       d="m 1302.356,321.52602 c -26.699,3.525 -53.648,-1.047 -80.347,2.478 0.107,3.46 0.214,6.919 0.32,10.379 26.699,-3.524 53.648,1.048 80.347,-2.477 -0.107,-3.46 -0.214,-6.92 -0.32,-10.38"
       style="fill:#b3e6eb;fill-opacity:1;fill-rule:nonzero;stroke:none;stroke-width:0.1"
       id="path448" />
    <path
       d="m 1239.188,330.20102 c -4.772,0.147 -9.544,0.441 -14.28,0.973 l 0.043,0.382 c 12.45,-1.399 25.167,-1.15 37.464,-0.91 12.153,0.237 24.72,0.482 37.036,-0.859 l -0.042,-0.383 c -12.292,1.34 -24.846,1.094 -36.986,0.857 -7.637,-0.149 -15.436,-0.301 -23.235,-0.06"
       style="fill:#eef9fa;fill-opacity:1;fill-rule:nonzero;stroke:none;stroke-width:0.1"
       id="path450" />
    <path
       d="m 1239.111,327.70202 c -4.772,0.147 -9.544,0.441 -14.28,0.973 l 0.043,0.382 c 12.45,-1.398 25.167,-1.15 37.464,-0.91 12.153,0.237 24.72,0.482 37.036,-0.859 l -0.042,-0.383 c -12.292,1.34 -24.846,1.094 -36.986,0.858 -7.637,-0.149 -15.436,-0.302 -23.235,-0.061"
       style="fill:#eef9fa;fill-opacity:1;fill-rule:nonzero;stroke:none;stroke-width:0.1"
       id="path452" />
    <path
       d="m 1239.034,325.20302 c -4.772,0.147 -9.544,0.441 -14.28,0.973 l 0.043,0.382 c 12.45,-1.398 25.167,-1.15 37.464,-0.91 12.153,0.237 24.719,0.482 37.036,-0.859 l -0.042,-0.382 c -12.292,1.339 -24.846,1.094 -36.986,0.857 -7.637,-0.149 -15.436,-0.302 -23.235,-0.061"
       style="fill:#eef9fa;fill-opacity:1;fill-rule:nonzero;stroke:none;stroke-width:0.1"
       id="path454" />
    <path
       d="m 1238.957,322.70402 c -4.773,0.147 -9.544,0.442 -14.28,0.973 l 0.043,0.383 c 12.45,-1.399 25.167,-1.151 37.464,-0.91 12.153,0.237 24.719,0.482 37.035,-0.86 l -0.041,-0.382 c -12.292,1.339 -24.846,1.094 -36.986,0.857 -7.637,-0.149 -15.436,-0.301 -23.235,-0.061"
       style="fill:#eef9fa;fill-opacity:1;fill-rule:nonzero;stroke:none;stroke-width:0.1"
       id="path456" />
    <path
       d="m 1309.284,293.23402 c -27.132,-0.442 -54.271,0.395 -81.324,2.507 0.269,3.452 0.539,6.903 0.808,10.354 26.729,-2.088 53.54,-2.915 80.347,-2.478 0.056,-3.461 0.112,-6.922 0.169,-10.383"
       style="fill:#d7f2f3;fill-opacity:1;fill-rule:nonzero;stroke:none;stroke-width:0.1"
       id="path458" />
    <path
       d="m 1231.587,304.43302 c 24.825,-1.853 49.72,-2.621 74.612,-2.301"
       style="fill:#a1d9e8;fill-opacity:1;fill-rule:nonzero;stroke:none;stroke-width:0.1"
       id="path460" />
    <path
       d="m 1268.862,302.27902 c -12.467,0.384 -24.926,1.039 -37.29,1.962 l 0.029,0.384 c 24.716,-1.845 49.813,-2.619 74.596,-2.3 l 0.01,-0.385 c -12.397,-0.159 -24.873,-0.046 -37.34,0.339"
       style="fill:#b2e1ec;fill-opacity:1;fill-rule:nonzero;stroke:none;stroke-width:0.1"
       id="path462" />
    <path
       d="m 1231.401,301.94002 c 24.898,-1.859 49.865,-2.629 74.83,-2.307"
       style="fill:#a1d9e8;fill-opacity:1;fill-rule:nonzero;stroke:none;stroke-width:0.1"
       id="path464" />
    <path
       d="m 1268.785,299.78002 c -12.504,0.386 -24.999,1.042 -37.399,1.968 l 0.029,0.384 c 24.788,-1.851 49.959,-2.627 74.814,-2.307 l 0,-0.385 c -12.433,-0.16 -24.945,-0.045 -37.449,0.34"
       style="fill:#b2e1ec;fill-opacity:1;fill-rule:nonzero;stroke:none;stroke-width:0.1"
       id="path466" />
    <path
       d="m 1231.214,299.44702 c 24.971,-1.864 50.011,-2.636 75.05,-2.314"
       style="fill:#a1d9e8;fill-opacity:1;fill-rule:nonzero;stroke:none;stroke-width:0.1"
       id="path468" />
    <path
       d="m 1268.708,297.28102 c -12.54,0.387 -25.072,1.046 -37.508,1.974 l 0.029,0.383 c 24.86,-1.855 50.105,-2.633 75.032,-2.313 l 0.01,-0.385 c -12.469,-0.16 -25.018,-0.045 -37.558,0.341"
       style="fill:#b2e1ec;fill-opacity:1;fill-rule:nonzero;stroke:none;stroke-width:0.1"
       id="path470" />
    <path
       d="m 1231.028,296.95402 c 25.044,-1.87 50.157,-2.644 75.268,-2.321"
       style="fill:#a1d9e8;fill-opacity:1;fill-rule:nonzero;stroke:none;stroke-width:0.1"
       id="path472" />
    <path
       d="m 1268.631,294.78202 c -12.577,0.388 -25.145,1.049 -37.617,1.98 l 0.029,0.383 c 24.932,-1.861 50.25,-2.641 75.25,-2.32 l 0.01,-0.384 c -12.506,-0.161 -25.091,-0.046 -37.667,0.341"
       style="fill:#b2e1ec;fill-opacity:1;fill-rule:nonzero;stroke:none;stroke-width:0.1"
       id="path474" />
    <path
       d="m 1311.227,272.28702 -80.346,2.478 0.32,10.379 80.346,-2.477 -0.32,-10.38"
       style="fill:#d7f2f3;fill-opacity:1;fill-rule:nonzero;stroke:none;stroke-width:0.1"
       id="path476" />
    <path
       d="m 1308.565,281.12402 -74.483,2.296 0.011,0.385 74.484,-2.297 -0.012,-0.384"
       style="fill:#eef9fa;fill-opacity:1;fill-rule:nonzero;stroke:none;stroke-width:0.1"
       id="path478" />
    <path
       d="m 1308.488,278.62502 -74.483,2.296 0.011,0.385 74.484,-2.297 -0.012,-0.384"
       style="fill:#eef9fa;fill-opacity:1;fill-rule:nonzero;stroke:none;stroke-width:0.1"
       id="path480" />
    <path
       d="m 1308.411,276.12602 -74.483,2.296 0.011,0.385 74.484,-2.297 -0.012,-0.384"
       style="fill:#eef9fa;fill-opacity:1;fill-rule:nonzero;stroke:none;stroke-width:0.1"
       id="path482" />
    <path
       d="m 1308.334,273.62702 -74.484,2.297 0.012,0.384 74.484,-2.296 -0.012,-0.385"
       style="fill:#eef9fa;fill-opacity:1;fill-rule:nonzero;stroke:none;stroke-width:0.1"
       id="path484" />
    <path
       d="m 1297.996,283.08502 c -26.782,0.826 -53.622,-0.217 -80.404,0.609 0.107,3.46 0.213,6.92 0.32,10.379 26.782,-0.825 53.622,0.217 80.404,-0.608 -0.107,-3.46 -0.214,-6.92 -0.32,-10.38"
       style="fill:#a1d9e8;fill-opacity:1;fill-rule:nonzero;stroke:none;stroke-width:0.1"
       id="path486" />
    <path
       d="m 1220.794,292.35702 0.01,0.384 c 12.413,-0.322 25.047,-0.271 37.265,-0.221 12.22,0.049 24.857,0.1 37.276,-0.222 l -0.01,-0.384 c -12.413,0.322 -25.047,0.271 -37.265,0.221 -12.22,-0.049 -24.857,-0.1 -37.276,0.222"
       style="fill:#eef9fa;fill-opacity:1;fill-rule:nonzero;stroke:none;stroke-width:0.1"
       id="path488" />
    <path
       d="m 1220.717,289.85802 0.01,0.384 c 12.413,-0.321 25.047,-0.271 37.265,-0.221 12.22,0.049 24.857,0.1 37.276,-0.222 l -0.01,-0.384 c -12.413,0.322 -25.047,0.271 -37.265,0.221 -12.221,-0.049 -24.857,-0.1 -37.276,0.222"
       style="fill:#eef9fa;fill-opacity:1;fill-rule:nonzero;stroke:none;stroke-width:0.1"
       id="path490" />
    <path
       d="m 1220.64,287.35902 0.01,0.385 c 12.413,-0.322 25.047,-0.271 37.265,-0.222 12.22,0.05 24.857,0.101 37.276,-0.221 l -0.01,-0.385 c -12.413,0.322 -25.047,0.271 -37.265,0.222 -12.221,-0.05 -24.857,-0.101 -37.276,0.221"
       style="fill:#eef9fa;fill-opacity:1;fill-rule:nonzero;stroke:none;stroke-width:0.1"
       id="path492" />
    <path
       d="m 1220.563,284.86002 0.01,0.385 c 12.413,-0.322 25.047,-0.271 37.264,-0.222 12.221,0.05 24.858,0.101 37.277,-0.221 l -0.01,-0.385 c -12.413,0.322 -25.047,0.271 -37.265,0.222 -12.221,-0.05 -24.857,-0.101 -37.276,0.221"
       style="fill:#eef9fa;fill-opacity:1;fill-rule:nonzero;stroke:none;stroke-width:0.1"
       id="path494" />
    <path
       d="m 1272.29,313.60302 15.596,-7.407 -33.446,1.031 c 0,0 -4.015,7.05 -11.319,7.275 l 29.169,-0.899"
       style="fill:#b3e6eb;fill-opacity:1;fill-rule:nonzero;stroke:none;stroke-width:0.1"
       id="path496" />
    <path
       d="m 1274.888,259.02602 -22.197,-8.551 -30.226,0.932 18.977,8.65 33.446,-1.031"
       style="fill:#c3eaeb;fill-opacity:1;fill-rule:nonzero;stroke:none;stroke-width:0.1"
       id="path498" />
    <text
       xml:space="preserve"
       style="font-weight:bold;font-size:183.404px;font-family:Freeman;-inkscape-font-specification:'Freeman Bold';text-align:end;text-anchor:end;fill:#aa0000;stroke:#ffffff;stroke-width:6.87764;stroke-linecap:round;stroke-linejoin:round;stroke-dashoffset:0.25;paint-order:markers stroke fill"
       x="685.19269"
       y="-311.23901"
       id="text1120"
       transform="scale(1,-1)"><tspan
         sodipodi:role="line"
         id="tspan1118"
         style="stroke-width:6.87764"
         x="685.19269"
         y="-311.23901">sortlen</tspan></text>
    <text
       xml:space="preserve"
       style="font-weight:bold;font-size:95.6742px;font-family:Freeman;-inkscape-font-specification:'Freeman Bold';text-align:end;text-anchor:end;fill:#ffffff;fill-opacity:1;stroke:none;stroke-width:15.9457;stroke-linecap:round;stroke-linejoin:round;stroke-dashoffset:0.25;paint-order:markers stroke fill"
       x="835.00018"
       y="-202.37265"
       id="text1174"
       transform="scale(1,-1)"><tspan
         sodipodi:role="line"
         id="tspan1172"
         style="font-size:95.6742px;fill:#ffffff;fill-opacity:1;stroke:none;stroke-width:15.9457"
         x="835.00018"
         y="-202.37265">a simple cli utility</tspan></text>
  </g>
</svg>
